G75*
%MOIN*%
%OFA0B0*%
%FSLAX25Y25*%
%IPPOS*%
%LPD*%
%AMOC8*
5,1,8,0,0,1.08239X$1,22.5*
%
%ADD10C,0.01200*%
%ADD11C,0.01000*%
%ADD12C,0.00800*%
%ADD13C,0.00300*%
%ADD14C,0.00000*%
%ADD15C,0.00200*%
%ADD16R,0.40354X0.01476*%
D10*
X0043500Y0236500D02*
X0043500Y0241500D01*
X0048500Y0241500D01*
X0048500Y0236500D02*
X0043500Y0236500D01*
X0088500Y0236500D02*
X0093500Y0236500D01*
X0093500Y0241500D01*
X0088500Y0241500D01*
D11*
X0090186Y0307500D02*
X0090189Y0307778D01*
X0090200Y0308055D01*
X0090217Y0308332D01*
X0090240Y0308609D01*
X0090271Y0308885D01*
X0090308Y0309160D01*
X0090353Y0309434D01*
X0090403Y0309707D01*
X0090461Y0309979D01*
X0090525Y0310249D01*
X0090596Y0310518D01*
X0090673Y0310784D01*
X0090757Y0311049D01*
X0090847Y0311312D01*
X0090944Y0311572D01*
X0091047Y0311830D01*
X0091157Y0312085D01*
X0091272Y0312337D01*
X0091394Y0312587D01*
X0091522Y0312833D01*
X0091656Y0313077D01*
X0091796Y0313317D01*
X0091941Y0313553D01*
X0092093Y0313786D01*
X0092250Y0314015D01*
X0092413Y0314240D01*
X0092581Y0314461D01*
X0092754Y0314678D01*
X0092933Y0314890D01*
X0093117Y0315098D01*
X0093306Y0315301D01*
X0093500Y0315500D01*
X0093699Y0315694D01*
X0093902Y0315883D01*
X0094110Y0316067D01*
X0094322Y0316246D01*
X0094539Y0316419D01*
X0094760Y0316587D01*
X0094985Y0316750D01*
X0095214Y0316907D01*
X0095447Y0317059D01*
X0095683Y0317204D01*
X0095923Y0317344D01*
X0096167Y0317478D01*
X0096413Y0317606D01*
X0096663Y0317728D01*
X0096915Y0317843D01*
X0097170Y0317953D01*
X0097428Y0318056D01*
X0097688Y0318153D01*
X0097951Y0318243D01*
X0098216Y0318327D01*
X0098482Y0318404D01*
X0098751Y0318475D01*
X0099021Y0318539D01*
X0099293Y0318597D01*
X0099566Y0318647D01*
X0099840Y0318692D01*
X0100115Y0318729D01*
X0100391Y0318760D01*
X0100668Y0318783D01*
X0100945Y0318800D01*
X0101222Y0318811D01*
X0101500Y0318814D01*
X0101778Y0318811D01*
X0102055Y0318800D01*
X0102332Y0318783D01*
X0102609Y0318760D01*
X0102885Y0318729D01*
X0103160Y0318692D01*
X0103434Y0318647D01*
X0103707Y0318597D01*
X0103979Y0318539D01*
X0104249Y0318475D01*
X0104518Y0318404D01*
X0104784Y0318327D01*
X0105049Y0318243D01*
X0105312Y0318153D01*
X0105572Y0318056D01*
X0105830Y0317953D01*
X0106085Y0317843D01*
X0106337Y0317728D01*
X0106587Y0317606D01*
X0106833Y0317478D01*
X0107077Y0317344D01*
X0107317Y0317204D01*
X0107553Y0317059D01*
X0107786Y0316907D01*
X0108015Y0316750D01*
X0108240Y0316587D01*
X0108461Y0316419D01*
X0108678Y0316246D01*
X0108890Y0316067D01*
X0109098Y0315883D01*
X0109301Y0315694D01*
X0109500Y0315500D01*
X0109694Y0315301D01*
X0109883Y0315098D01*
X0110067Y0314890D01*
X0110246Y0314678D01*
X0110419Y0314461D01*
X0110587Y0314240D01*
X0110750Y0314015D01*
X0110907Y0313786D01*
X0111059Y0313553D01*
X0111204Y0313317D01*
X0111344Y0313077D01*
X0111478Y0312833D01*
X0111606Y0312587D01*
X0111728Y0312337D01*
X0111843Y0312085D01*
X0111953Y0311830D01*
X0112056Y0311572D01*
X0112153Y0311312D01*
X0112243Y0311049D01*
X0112327Y0310784D01*
X0112404Y0310518D01*
X0112475Y0310249D01*
X0112539Y0309979D01*
X0112597Y0309707D01*
X0112647Y0309434D01*
X0112692Y0309160D01*
X0112729Y0308885D01*
X0112760Y0308609D01*
X0112783Y0308332D01*
X0112800Y0308055D01*
X0112811Y0307778D01*
X0112814Y0307500D01*
X0112811Y0307222D01*
X0112800Y0306945D01*
X0112783Y0306668D01*
X0112760Y0306391D01*
X0112729Y0306115D01*
X0112692Y0305840D01*
X0112647Y0305566D01*
X0112597Y0305293D01*
X0112539Y0305021D01*
X0112475Y0304751D01*
X0112404Y0304482D01*
X0112327Y0304216D01*
X0112243Y0303951D01*
X0112153Y0303688D01*
X0112056Y0303428D01*
X0111953Y0303170D01*
X0111843Y0302915D01*
X0111728Y0302663D01*
X0111606Y0302413D01*
X0111478Y0302167D01*
X0111344Y0301923D01*
X0111204Y0301683D01*
X0111059Y0301447D01*
X0110907Y0301214D01*
X0110750Y0300985D01*
X0110587Y0300760D01*
X0110419Y0300539D01*
X0110246Y0300322D01*
X0110067Y0300110D01*
X0109883Y0299902D01*
X0109694Y0299699D01*
X0109500Y0299500D01*
X0109301Y0299306D01*
X0109098Y0299117D01*
X0108890Y0298933D01*
X0108678Y0298754D01*
X0108461Y0298581D01*
X0108240Y0298413D01*
X0108015Y0298250D01*
X0107786Y0298093D01*
X0107553Y0297941D01*
X0107317Y0297796D01*
X0107077Y0297656D01*
X0106833Y0297522D01*
X0106587Y0297394D01*
X0106337Y0297272D01*
X0106085Y0297157D01*
X0105830Y0297047D01*
X0105572Y0296944D01*
X0105312Y0296847D01*
X0105049Y0296757D01*
X0104784Y0296673D01*
X0104518Y0296596D01*
X0104249Y0296525D01*
X0103979Y0296461D01*
X0103707Y0296403D01*
X0103434Y0296353D01*
X0103160Y0296308D01*
X0102885Y0296271D01*
X0102609Y0296240D01*
X0102332Y0296217D01*
X0102055Y0296200D01*
X0101778Y0296189D01*
X0101500Y0296186D01*
X0101222Y0296189D01*
X0100945Y0296200D01*
X0100668Y0296217D01*
X0100391Y0296240D01*
X0100115Y0296271D01*
X0099840Y0296308D01*
X0099566Y0296353D01*
X0099293Y0296403D01*
X0099021Y0296461D01*
X0098751Y0296525D01*
X0098482Y0296596D01*
X0098216Y0296673D01*
X0097951Y0296757D01*
X0097688Y0296847D01*
X0097428Y0296944D01*
X0097170Y0297047D01*
X0096915Y0297157D01*
X0096663Y0297272D01*
X0096413Y0297394D01*
X0096167Y0297522D01*
X0095923Y0297656D01*
X0095683Y0297796D01*
X0095447Y0297941D01*
X0095214Y0298093D01*
X0094985Y0298250D01*
X0094760Y0298413D01*
X0094539Y0298581D01*
X0094322Y0298754D01*
X0094110Y0298933D01*
X0093902Y0299117D01*
X0093699Y0299306D01*
X0093500Y0299500D01*
X0093306Y0299699D01*
X0093117Y0299902D01*
X0092933Y0300110D01*
X0092754Y0300322D01*
X0092581Y0300539D01*
X0092413Y0300760D01*
X0092250Y0300985D01*
X0092093Y0301214D01*
X0091941Y0301447D01*
X0091796Y0301683D01*
X0091656Y0301923D01*
X0091522Y0302167D01*
X0091394Y0302413D01*
X0091272Y0302663D01*
X0091157Y0302915D01*
X0091047Y0303170D01*
X0090944Y0303428D01*
X0090847Y0303688D01*
X0090757Y0303951D01*
X0090673Y0304216D01*
X0090596Y0304482D01*
X0090525Y0304751D01*
X0090461Y0305021D01*
X0090403Y0305293D01*
X0090353Y0305566D01*
X0090308Y0305840D01*
X0090271Y0306115D01*
X0090240Y0306391D01*
X0090217Y0306668D01*
X0090200Y0306945D01*
X0090189Y0307222D01*
X0090186Y0307500D01*
X0119500Y0317500D02*
X0119500Y0265500D01*
X0131500Y0265500D01*
X0131500Y0317500D01*
X0119500Y0317500D01*
X0119500Y0329500D01*
X0015500Y0329500D01*
X0015500Y0317500D01*
X0003500Y0317500D01*
X0003500Y0275500D01*
X0015500Y0275500D01*
X0015500Y0249500D01*
X0119500Y0249500D01*
X0119500Y0265500D01*
X0015500Y0275500D02*
X0015500Y0317500D01*
D12*
X0018500Y0211500D02*
X0018500Y0041500D01*
X0018503Y0041258D01*
X0018512Y0041017D01*
X0018526Y0040776D01*
X0018547Y0040535D01*
X0018573Y0040295D01*
X0018605Y0040055D01*
X0018643Y0039816D01*
X0018686Y0039579D01*
X0018736Y0039342D01*
X0018791Y0039107D01*
X0018851Y0038873D01*
X0018918Y0038641D01*
X0018989Y0038410D01*
X0019067Y0038181D01*
X0019150Y0037954D01*
X0019238Y0037729D01*
X0019332Y0037506D01*
X0019431Y0037286D01*
X0019536Y0037068D01*
X0019645Y0036853D01*
X0019760Y0036640D01*
X0019880Y0036430D01*
X0020005Y0036224D01*
X0020135Y0036020D01*
X0020270Y0035819D01*
X0020410Y0035622D01*
X0020554Y0035428D01*
X0020703Y0035238D01*
X0020857Y0035052D01*
X0021015Y0034869D01*
X0021177Y0034690D01*
X0021344Y0034515D01*
X0021515Y0034344D01*
X0021690Y0034177D01*
X0021869Y0034015D01*
X0022052Y0033857D01*
X0022238Y0033703D01*
X0022428Y0033554D01*
X0022622Y0033410D01*
X0022819Y0033270D01*
X0023020Y0033135D01*
X0023224Y0033005D01*
X0023430Y0032880D01*
X0023640Y0032760D01*
X0023853Y0032645D01*
X0024068Y0032536D01*
X0024286Y0032431D01*
X0024506Y0032332D01*
X0024729Y0032238D01*
X0024954Y0032150D01*
X0025181Y0032067D01*
X0025410Y0031989D01*
X0025641Y0031918D01*
X0025873Y0031851D01*
X0026107Y0031791D01*
X0026342Y0031736D01*
X0026579Y0031686D01*
X0026816Y0031643D01*
X0027055Y0031605D01*
X0027295Y0031573D01*
X0027535Y0031547D01*
X0027776Y0031526D01*
X0028017Y0031512D01*
X0028258Y0031503D01*
X0028500Y0031500D01*
X0053500Y0031500D01*
X0053500Y0046500D01*
X0083500Y0046500D01*
X0083500Y0031500D01*
X0108500Y0031500D01*
X0108742Y0031503D01*
X0108983Y0031512D01*
X0109224Y0031526D01*
X0109465Y0031547D01*
X0109705Y0031573D01*
X0109945Y0031605D01*
X0110184Y0031643D01*
X0110421Y0031686D01*
X0110658Y0031736D01*
X0110893Y0031791D01*
X0111127Y0031851D01*
X0111359Y0031918D01*
X0111590Y0031989D01*
X0111819Y0032067D01*
X0112046Y0032150D01*
X0112271Y0032238D01*
X0112494Y0032332D01*
X0112714Y0032431D01*
X0112932Y0032536D01*
X0113147Y0032645D01*
X0113360Y0032760D01*
X0113570Y0032880D01*
X0113776Y0033005D01*
X0113980Y0033135D01*
X0114181Y0033270D01*
X0114378Y0033410D01*
X0114572Y0033554D01*
X0114762Y0033703D01*
X0114948Y0033857D01*
X0115131Y0034015D01*
X0115310Y0034177D01*
X0115485Y0034344D01*
X0115656Y0034515D01*
X0115823Y0034690D01*
X0115985Y0034869D01*
X0116143Y0035052D01*
X0116297Y0035238D01*
X0116446Y0035428D01*
X0116590Y0035622D01*
X0116730Y0035819D01*
X0116865Y0036020D01*
X0116995Y0036224D01*
X0117120Y0036430D01*
X0117240Y0036640D01*
X0117355Y0036853D01*
X0117464Y0037068D01*
X0117569Y0037286D01*
X0117668Y0037506D01*
X0117762Y0037729D01*
X0117850Y0037954D01*
X0117933Y0038181D01*
X0118011Y0038410D01*
X0118082Y0038641D01*
X0118149Y0038873D01*
X0118209Y0039107D01*
X0118264Y0039342D01*
X0118314Y0039579D01*
X0118357Y0039816D01*
X0118395Y0040055D01*
X0118427Y0040295D01*
X0118453Y0040535D01*
X0118474Y0040776D01*
X0118488Y0041017D01*
X0118497Y0041258D01*
X0118500Y0041500D01*
X0118500Y0211500D01*
X0118497Y0211742D01*
X0118488Y0211983D01*
X0118474Y0212224D01*
X0118453Y0212465D01*
X0118427Y0212705D01*
X0118395Y0212945D01*
X0118357Y0213184D01*
X0118314Y0213421D01*
X0118264Y0213658D01*
X0118209Y0213893D01*
X0118149Y0214127D01*
X0118082Y0214359D01*
X0118011Y0214590D01*
X0117933Y0214819D01*
X0117850Y0215046D01*
X0117762Y0215271D01*
X0117668Y0215494D01*
X0117569Y0215714D01*
X0117464Y0215932D01*
X0117355Y0216147D01*
X0117240Y0216360D01*
X0117120Y0216570D01*
X0116995Y0216776D01*
X0116865Y0216980D01*
X0116730Y0217181D01*
X0116590Y0217378D01*
X0116446Y0217572D01*
X0116297Y0217762D01*
X0116143Y0217948D01*
X0115985Y0218131D01*
X0115823Y0218310D01*
X0115656Y0218485D01*
X0115485Y0218656D01*
X0115310Y0218823D01*
X0115131Y0218985D01*
X0114948Y0219143D01*
X0114762Y0219297D01*
X0114572Y0219446D01*
X0114378Y0219590D01*
X0114181Y0219730D01*
X0113980Y0219865D01*
X0113776Y0219995D01*
X0113570Y0220120D01*
X0113360Y0220240D01*
X0113147Y0220355D01*
X0112932Y0220464D01*
X0112714Y0220569D01*
X0112494Y0220668D01*
X0112271Y0220762D01*
X0112046Y0220850D01*
X0111819Y0220933D01*
X0111590Y0221011D01*
X0111359Y0221082D01*
X0111127Y0221149D01*
X0110893Y0221209D01*
X0110658Y0221264D01*
X0110421Y0221314D01*
X0110184Y0221357D01*
X0109945Y0221395D01*
X0109705Y0221427D01*
X0109465Y0221453D01*
X0109224Y0221474D01*
X0108983Y0221488D01*
X0108742Y0221497D01*
X0108500Y0221500D01*
X0098500Y0221500D01*
X0098500Y0131500D01*
X0038500Y0131500D01*
X0038500Y0221500D01*
X0028500Y0221500D01*
X0028258Y0221497D01*
X0028017Y0221488D01*
X0027776Y0221474D01*
X0027535Y0221453D01*
X0027295Y0221427D01*
X0027055Y0221395D01*
X0026816Y0221357D01*
X0026579Y0221314D01*
X0026342Y0221264D01*
X0026107Y0221209D01*
X0025873Y0221149D01*
X0025641Y0221082D01*
X0025410Y0221011D01*
X0025181Y0220933D01*
X0024954Y0220850D01*
X0024729Y0220762D01*
X0024506Y0220668D01*
X0024286Y0220569D01*
X0024068Y0220464D01*
X0023853Y0220355D01*
X0023640Y0220240D01*
X0023430Y0220120D01*
X0023224Y0219995D01*
X0023020Y0219865D01*
X0022819Y0219730D01*
X0022622Y0219590D01*
X0022428Y0219446D01*
X0022238Y0219297D01*
X0022052Y0219143D01*
X0021869Y0218985D01*
X0021690Y0218823D01*
X0021515Y0218656D01*
X0021344Y0218485D01*
X0021177Y0218310D01*
X0021015Y0218131D01*
X0020857Y0217948D01*
X0020703Y0217762D01*
X0020554Y0217572D01*
X0020410Y0217378D01*
X0020270Y0217181D01*
X0020135Y0216980D01*
X0020005Y0216776D01*
X0019880Y0216570D01*
X0019760Y0216360D01*
X0019645Y0216147D01*
X0019536Y0215932D01*
X0019431Y0215714D01*
X0019332Y0215494D01*
X0019238Y0215271D01*
X0019150Y0215046D01*
X0019067Y0214819D01*
X0018989Y0214590D01*
X0018918Y0214359D01*
X0018851Y0214127D01*
X0018791Y0213893D01*
X0018736Y0213658D01*
X0018686Y0213421D01*
X0018643Y0213184D01*
X0018605Y0212945D01*
X0018573Y0212705D01*
X0018547Y0212465D01*
X0018526Y0212224D01*
X0018512Y0211983D01*
X0018503Y0211742D01*
X0018500Y0211500D01*
X0038500Y0221500D02*
X0098500Y0221500D01*
X0088500Y0216500D02*
X0078500Y0216500D01*
X0078500Y0206500D01*
X0073500Y0206500D01*
X0073500Y0216500D01*
X0068500Y0216500D01*
X0068500Y0206500D01*
X0063500Y0206500D01*
X0063500Y0216500D01*
X0058500Y0216500D01*
X0058500Y0206500D01*
X0053500Y0206500D01*
X0053500Y0216500D01*
X0048500Y0216500D01*
X0048500Y0201500D01*
X0048224Y0230594D02*
X0088776Y0230594D01*
X0088776Y0242406D01*
X0048224Y0242406D01*
X0048224Y0230594D01*
X0048500Y0046500D02*
X0038500Y0046500D01*
X0038500Y0036500D01*
X0048500Y0036500D01*
X0048500Y0046500D01*
X0053500Y0031500D02*
X0083500Y0031500D01*
X0088500Y0036500D02*
X0088500Y0046500D01*
X0098500Y0046500D01*
X0098500Y0036500D01*
X0088500Y0036500D01*
D13*
X0100979Y0056650D02*
X0101784Y0056650D01*
X0101839Y0056652D01*
X0101894Y0056658D01*
X0101948Y0056667D01*
X0102001Y0056680D01*
X0102054Y0056697D01*
X0102105Y0056717D01*
X0102155Y0056740D01*
X0102203Y0056767D01*
X0102249Y0056798D01*
X0102293Y0056831D01*
X0102334Y0056867D01*
X0102373Y0056906D01*
X0102409Y0056947D01*
X0102442Y0056991D01*
X0102473Y0057037D01*
X0102500Y0057085D01*
X0102523Y0057135D01*
X0102543Y0057186D01*
X0102560Y0057239D01*
X0102573Y0057292D01*
X0102582Y0057346D01*
X0102588Y0057401D01*
X0102590Y0057456D01*
X0102588Y0057511D01*
X0102582Y0057566D01*
X0102573Y0057620D01*
X0102560Y0057673D01*
X0102543Y0057726D01*
X0102523Y0057777D01*
X0102500Y0057827D01*
X0102473Y0057875D01*
X0102442Y0057921D01*
X0102409Y0057965D01*
X0102373Y0058006D01*
X0102334Y0058045D01*
X0102293Y0058081D01*
X0102249Y0058114D01*
X0102203Y0058145D01*
X0102155Y0058172D01*
X0102105Y0058195D01*
X0102054Y0058215D01*
X0102001Y0058232D01*
X0101948Y0058245D01*
X0101894Y0058254D01*
X0101839Y0058260D01*
X0101784Y0058262D01*
X0101946Y0058261D02*
X0101301Y0058261D01*
X0101946Y0058262D02*
X0101995Y0058264D01*
X0102044Y0058270D01*
X0102093Y0058279D01*
X0102140Y0058292D01*
X0102187Y0058309D01*
X0102232Y0058329D01*
X0102275Y0058352D01*
X0102317Y0058379D01*
X0102356Y0058409D01*
X0102393Y0058442D01*
X0102427Y0058478D01*
X0102458Y0058516D01*
X0102487Y0058556D01*
X0102512Y0058598D01*
X0102534Y0058643D01*
X0102552Y0058688D01*
X0102567Y0058735D01*
X0102578Y0058783D01*
X0102586Y0058832D01*
X0102590Y0058881D01*
X0102590Y0058931D01*
X0102586Y0058980D01*
X0102578Y0059029D01*
X0102567Y0059077D01*
X0102552Y0059124D01*
X0102534Y0059169D01*
X0102512Y0059214D01*
X0102487Y0059256D01*
X0102458Y0059296D01*
X0102427Y0059334D01*
X0102393Y0059370D01*
X0102356Y0059403D01*
X0102317Y0059433D01*
X0102275Y0059460D01*
X0102232Y0059483D01*
X0102187Y0059503D01*
X0102140Y0059520D01*
X0102093Y0059533D01*
X0102044Y0059542D01*
X0101995Y0059548D01*
X0101946Y0059550D01*
X0100979Y0059550D01*
X0103698Y0059550D02*
X0104664Y0056650D01*
X0105631Y0059550D01*
X0106739Y0059550D02*
X0107706Y0059550D01*
X0107755Y0059548D01*
X0107804Y0059542D01*
X0107853Y0059533D01*
X0107900Y0059520D01*
X0107947Y0059503D01*
X0107992Y0059483D01*
X0108035Y0059460D01*
X0108077Y0059433D01*
X0108116Y0059403D01*
X0108153Y0059370D01*
X0108187Y0059334D01*
X0108218Y0059296D01*
X0108247Y0059256D01*
X0108272Y0059214D01*
X0108294Y0059169D01*
X0108312Y0059124D01*
X0108327Y0059077D01*
X0108338Y0059029D01*
X0108346Y0058980D01*
X0108350Y0058931D01*
X0108350Y0058881D01*
X0108346Y0058832D01*
X0108338Y0058783D01*
X0108327Y0058735D01*
X0108312Y0058688D01*
X0108294Y0058643D01*
X0108272Y0058598D01*
X0108247Y0058556D01*
X0108218Y0058516D01*
X0108187Y0058478D01*
X0108153Y0058442D01*
X0108116Y0058409D01*
X0108077Y0058379D01*
X0108035Y0058352D01*
X0107992Y0058329D01*
X0107947Y0058309D01*
X0107900Y0058292D01*
X0107853Y0058279D01*
X0107804Y0058270D01*
X0107755Y0058264D01*
X0107706Y0058262D01*
X0107706Y0058261D02*
X0107061Y0058261D01*
X0107544Y0058262D02*
X0107599Y0058260D01*
X0107654Y0058254D01*
X0107708Y0058245D01*
X0107761Y0058232D01*
X0107814Y0058215D01*
X0107865Y0058195D01*
X0107915Y0058172D01*
X0107963Y0058145D01*
X0108009Y0058114D01*
X0108053Y0058081D01*
X0108094Y0058045D01*
X0108133Y0058006D01*
X0108169Y0057965D01*
X0108202Y0057921D01*
X0108233Y0057875D01*
X0108260Y0057827D01*
X0108283Y0057777D01*
X0108303Y0057726D01*
X0108320Y0057673D01*
X0108333Y0057620D01*
X0108342Y0057566D01*
X0108348Y0057511D01*
X0108350Y0057456D01*
X0108348Y0057401D01*
X0108342Y0057346D01*
X0108333Y0057292D01*
X0108320Y0057239D01*
X0108303Y0057186D01*
X0108283Y0057135D01*
X0108260Y0057085D01*
X0108233Y0057037D01*
X0108202Y0056991D01*
X0108169Y0056947D01*
X0108133Y0056906D01*
X0108094Y0056867D01*
X0108053Y0056831D01*
X0108009Y0056798D01*
X0107963Y0056767D01*
X0107915Y0056740D01*
X0107865Y0056717D01*
X0107814Y0056697D01*
X0107761Y0056680D01*
X0107708Y0056667D01*
X0107654Y0056658D01*
X0107599Y0056652D01*
X0107544Y0056650D01*
X0106739Y0056650D01*
X0106739Y0066650D02*
X0107544Y0066650D01*
X0106739Y0066650D02*
X0106739Y0069550D01*
X0107544Y0069550D01*
X0107599Y0069548D01*
X0107654Y0069542D01*
X0107708Y0069533D01*
X0107761Y0069520D01*
X0107814Y0069503D01*
X0107865Y0069483D01*
X0107915Y0069460D01*
X0107963Y0069433D01*
X0108009Y0069402D01*
X0108053Y0069369D01*
X0108094Y0069333D01*
X0108133Y0069294D01*
X0108169Y0069253D01*
X0108202Y0069209D01*
X0108233Y0069163D01*
X0108260Y0069115D01*
X0108283Y0069065D01*
X0108303Y0069014D01*
X0108320Y0068961D01*
X0108333Y0068908D01*
X0108342Y0068854D01*
X0108348Y0068799D01*
X0108350Y0068744D01*
X0108350Y0067456D01*
X0108348Y0067401D01*
X0108342Y0067346D01*
X0108333Y0067292D01*
X0108320Y0067239D01*
X0108303Y0067186D01*
X0108283Y0067135D01*
X0108260Y0067085D01*
X0108233Y0067037D01*
X0108202Y0066991D01*
X0108169Y0066947D01*
X0108133Y0066906D01*
X0108094Y0066867D01*
X0108053Y0066831D01*
X0108009Y0066798D01*
X0107963Y0066767D01*
X0107915Y0066740D01*
X0107865Y0066717D01*
X0107814Y0066697D01*
X0107761Y0066680D01*
X0107708Y0066667D01*
X0107654Y0066658D01*
X0107599Y0066652D01*
X0107544Y0066650D01*
X0105278Y0066650D02*
X0105278Y0069550D01*
X0103667Y0069550D02*
X0103667Y0066650D01*
X0102206Y0066650D02*
X0101239Y0066650D01*
X0101191Y0066652D01*
X0101143Y0066657D01*
X0101096Y0066666D01*
X0101049Y0066679D01*
X0101004Y0066695D01*
X0100960Y0066714D01*
X0100917Y0066736D01*
X0100876Y0066762D01*
X0100837Y0066791D01*
X0100801Y0066822D01*
X0100767Y0066856D01*
X0100736Y0066892D01*
X0100707Y0066931D01*
X0100681Y0066972D01*
X0100659Y0067015D01*
X0100640Y0067059D01*
X0100624Y0067104D01*
X0100611Y0067151D01*
X0100602Y0067198D01*
X0100597Y0067246D01*
X0100595Y0067294D01*
X0100595Y0068906D01*
X0100597Y0068957D01*
X0100603Y0069007D01*
X0100613Y0069056D01*
X0100627Y0069105D01*
X0100644Y0069152D01*
X0100665Y0069198D01*
X0100690Y0069242D01*
X0100718Y0069285D01*
X0100749Y0069324D01*
X0100784Y0069361D01*
X0100821Y0069396D01*
X0100860Y0069427D01*
X0100903Y0069455D01*
X0100947Y0069480D01*
X0100993Y0069501D01*
X0101040Y0069518D01*
X0101089Y0069532D01*
X0101138Y0069542D01*
X0101188Y0069548D01*
X0101239Y0069550D01*
X0102206Y0069550D01*
X0102206Y0068261D02*
X0102206Y0066650D01*
X0102206Y0068261D02*
X0101723Y0068261D01*
X0103667Y0069550D02*
X0105278Y0066650D01*
X0104695Y0076650D02*
X0104695Y0079550D01*
X0103890Y0079550D02*
X0105501Y0079550D01*
X0106417Y0079550D02*
X0108350Y0076650D01*
X0106417Y0076650D02*
X0108350Y0079550D01*
X0108350Y0086650D02*
X0106417Y0089550D01*
X0104523Y0089550D02*
X0103718Y0089550D01*
X0103718Y0086650D01*
X0103718Y0087939D02*
X0104523Y0087939D01*
X0104685Y0087939D02*
X0105329Y0086650D01*
X0106417Y0086650D02*
X0108350Y0089550D01*
X0108350Y0097456D02*
X0108348Y0097401D01*
X0108342Y0097346D01*
X0108333Y0097292D01*
X0108320Y0097239D01*
X0108303Y0097186D01*
X0108283Y0097135D01*
X0108260Y0097085D01*
X0108233Y0097037D01*
X0108202Y0096991D01*
X0108169Y0096947D01*
X0108133Y0096906D01*
X0108094Y0096867D01*
X0108053Y0096831D01*
X0108009Y0096798D01*
X0107963Y0096767D01*
X0107915Y0096740D01*
X0107865Y0096717D01*
X0107814Y0096697D01*
X0107761Y0096680D01*
X0107708Y0096667D01*
X0107654Y0096658D01*
X0107599Y0096652D01*
X0107544Y0096650D01*
X0107489Y0096652D01*
X0107434Y0096658D01*
X0107380Y0096667D01*
X0107327Y0096680D01*
X0107274Y0096697D01*
X0107223Y0096717D01*
X0107173Y0096740D01*
X0107125Y0096767D01*
X0107079Y0096798D01*
X0107035Y0096831D01*
X0106994Y0096867D01*
X0106955Y0096906D01*
X0106919Y0096947D01*
X0106886Y0096991D01*
X0106855Y0097037D01*
X0106828Y0097085D01*
X0106805Y0097135D01*
X0106785Y0097186D01*
X0106768Y0097239D01*
X0106755Y0097292D01*
X0106746Y0097346D01*
X0106740Y0097401D01*
X0106738Y0097456D01*
X0106740Y0097511D01*
X0106746Y0097566D01*
X0106755Y0097620D01*
X0106768Y0097673D01*
X0106785Y0097726D01*
X0106805Y0097777D01*
X0106828Y0097827D01*
X0106855Y0097875D01*
X0106886Y0097921D01*
X0106919Y0097965D01*
X0106955Y0098006D01*
X0106994Y0098045D01*
X0107035Y0098081D01*
X0107079Y0098114D01*
X0107125Y0098145D01*
X0107173Y0098172D01*
X0107223Y0098195D01*
X0107274Y0098215D01*
X0107327Y0098232D01*
X0107380Y0098245D01*
X0107434Y0098254D01*
X0107489Y0098260D01*
X0107544Y0098262D01*
X0107599Y0098260D01*
X0107654Y0098254D01*
X0107708Y0098245D01*
X0107761Y0098232D01*
X0107814Y0098215D01*
X0107865Y0098195D01*
X0107915Y0098172D01*
X0107963Y0098145D01*
X0108009Y0098114D01*
X0108053Y0098081D01*
X0108094Y0098045D01*
X0108133Y0098006D01*
X0108169Y0097965D01*
X0108202Y0097921D01*
X0108233Y0097875D01*
X0108260Y0097827D01*
X0108283Y0097777D01*
X0108303Y0097726D01*
X0108320Y0097673D01*
X0108333Y0097620D01*
X0108342Y0097566D01*
X0108348Y0097511D01*
X0108350Y0097456D01*
X0108188Y0098906D02*
X0108186Y0098857D01*
X0108180Y0098808D01*
X0108171Y0098759D01*
X0108158Y0098712D01*
X0108141Y0098665D01*
X0108121Y0098620D01*
X0108098Y0098577D01*
X0108071Y0098535D01*
X0108041Y0098496D01*
X0108008Y0098459D01*
X0107972Y0098425D01*
X0107934Y0098394D01*
X0107894Y0098365D01*
X0107852Y0098340D01*
X0107807Y0098318D01*
X0107762Y0098300D01*
X0107715Y0098285D01*
X0107667Y0098274D01*
X0107618Y0098266D01*
X0107569Y0098262D01*
X0107519Y0098262D01*
X0107470Y0098266D01*
X0107421Y0098274D01*
X0107373Y0098285D01*
X0107326Y0098300D01*
X0107281Y0098318D01*
X0107236Y0098340D01*
X0107194Y0098365D01*
X0107154Y0098394D01*
X0107116Y0098425D01*
X0107080Y0098459D01*
X0107047Y0098496D01*
X0107017Y0098535D01*
X0106990Y0098577D01*
X0106967Y0098620D01*
X0106947Y0098665D01*
X0106930Y0098712D01*
X0106917Y0098759D01*
X0106908Y0098808D01*
X0106902Y0098857D01*
X0106900Y0098906D01*
X0106902Y0098955D01*
X0106908Y0099004D01*
X0106917Y0099053D01*
X0106930Y0099100D01*
X0106947Y0099147D01*
X0106967Y0099192D01*
X0106990Y0099235D01*
X0107017Y0099277D01*
X0107047Y0099316D01*
X0107080Y0099353D01*
X0107116Y0099387D01*
X0107154Y0099418D01*
X0107194Y0099447D01*
X0107236Y0099472D01*
X0107281Y0099494D01*
X0107326Y0099512D01*
X0107373Y0099527D01*
X0107421Y0099538D01*
X0107470Y0099546D01*
X0107519Y0099550D01*
X0107569Y0099550D01*
X0107618Y0099546D01*
X0107667Y0099538D01*
X0107715Y0099527D01*
X0107762Y0099512D01*
X0107807Y0099494D01*
X0107852Y0099472D01*
X0107894Y0099447D01*
X0107934Y0099418D01*
X0107972Y0099387D01*
X0108008Y0099353D01*
X0108041Y0099316D01*
X0108071Y0099277D01*
X0108098Y0099235D01*
X0108121Y0099192D01*
X0108141Y0099147D01*
X0108158Y0099100D01*
X0108171Y0099053D01*
X0108180Y0099004D01*
X0108186Y0098955D01*
X0108188Y0098906D01*
X0105374Y0098744D02*
X0105374Y0097456D01*
X0105372Y0097401D01*
X0105366Y0097346D01*
X0105357Y0097292D01*
X0105344Y0097239D01*
X0105327Y0097186D01*
X0105307Y0097135D01*
X0105284Y0097085D01*
X0105257Y0097037D01*
X0105226Y0096991D01*
X0105193Y0096947D01*
X0105157Y0096906D01*
X0105118Y0096867D01*
X0105077Y0096831D01*
X0105033Y0096798D01*
X0104987Y0096767D01*
X0104939Y0096740D01*
X0104889Y0096717D01*
X0104838Y0096697D01*
X0104785Y0096680D01*
X0104732Y0096667D01*
X0104678Y0096658D01*
X0104623Y0096652D01*
X0104568Y0096650D01*
X0103763Y0096650D01*
X0103763Y0099550D01*
X0104568Y0099550D01*
X0104623Y0099548D01*
X0104678Y0099542D01*
X0104732Y0099533D01*
X0104785Y0099520D01*
X0104838Y0099503D01*
X0104889Y0099483D01*
X0104939Y0099460D01*
X0104987Y0099433D01*
X0105033Y0099402D01*
X0105077Y0099369D01*
X0105118Y0099333D01*
X0105157Y0099294D01*
X0105193Y0099253D01*
X0105226Y0099209D01*
X0105257Y0099163D01*
X0105284Y0099115D01*
X0105307Y0099065D01*
X0105327Y0099014D01*
X0105344Y0098961D01*
X0105357Y0098908D01*
X0105366Y0098854D01*
X0105372Y0098799D01*
X0105374Y0098744D01*
X0104568Y0106650D02*
X0103763Y0106650D01*
X0103763Y0109550D01*
X0104568Y0109550D01*
X0104623Y0109548D01*
X0104678Y0109542D01*
X0104732Y0109533D01*
X0104785Y0109520D01*
X0104838Y0109503D01*
X0104889Y0109483D01*
X0104939Y0109460D01*
X0104987Y0109433D01*
X0105033Y0109402D01*
X0105077Y0109369D01*
X0105118Y0109333D01*
X0105157Y0109294D01*
X0105193Y0109253D01*
X0105226Y0109209D01*
X0105257Y0109163D01*
X0105284Y0109115D01*
X0105307Y0109065D01*
X0105327Y0109014D01*
X0105344Y0108961D01*
X0105357Y0108908D01*
X0105366Y0108854D01*
X0105372Y0108799D01*
X0105374Y0108744D01*
X0105374Y0107456D01*
X0105372Y0107401D01*
X0105366Y0107346D01*
X0105357Y0107292D01*
X0105344Y0107239D01*
X0105327Y0107186D01*
X0105307Y0107135D01*
X0105284Y0107085D01*
X0105257Y0107037D01*
X0105226Y0106991D01*
X0105193Y0106947D01*
X0105157Y0106906D01*
X0105118Y0106867D01*
X0105077Y0106831D01*
X0105033Y0106798D01*
X0104987Y0106767D01*
X0104939Y0106740D01*
X0104889Y0106717D01*
X0104838Y0106697D01*
X0104785Y0106680D01*
X0104732Y0106667D01*
X0104678Y0106658D01*
X0104623Y0106652D01*
X0104568Y0106650D01*
X0102429Y0107939D02*
X0102427Y0107905D01*
X0102422Y0107872D01*
X0102413Y0107840D01*
X0102401Y0107808D01*
X0102386Y0107778D01*
X0102368Y0107750D01*
X0102346Y0107724D01*
X0102322Y0107700D01*
X0102296Y0107678D01*
X0102268Y0107660D01*
X0102238Y0107645D01*
X0102206Y0107633D01*
X0102174Y0107624D01*
X0102141Y0107619D01*
X0102107Y0107617D01*
X0102107Y0107616D02*
X0102070Y0107618D01*
X0102033Y0107623D01*
X0101996Y0107631D01*
X0101961Y0107643D01*
X0101927Y0107659D01*
X0101894Y0107677D01*
X0101863Y0107698D01*
X0101835Y0107722D01*
X0101808Y0107748D01*
X0101785Y0107777D01*
X0101462Y0107939D02*
X0101428Y0107937D01*
X0101395Y0107932D01*
X0101362Y0107923D01*
X0101331Y0107911D01*
X0101301Y0107896D01*
X0101273Y0107878D01*
X0101247Y0107856D01*
X0101223Y0107832D01*
X0101201Y0107806D01*
X0101183Y0107778D01*
X0101168Y0107748D01*
X0101156Y0107717D01*
X0101147Y0107684D01*
X0101142Y0107651D01*
X0101140Y0107617D01*
X0101462Y0107939D02*
X0101499Y0107937D01*
X0101536Y0107932D01*
X0101573Y0107924D01*
X0101608Y0107912D01*
X0101642Y0107896D01*
X0101675Y0107878D01*
X0101706Y0107857D01*
X0101734Y0107833D01*
X0101761Y0107807D01*
X0101784Y0107778D01*
X0101785Y0097777D02*
X0101808Y0097748D01*
X0101835Y0097722D01*
X0101863Y0097698D01*
X0101894Y0097677D01*
X0101927Y0097659D01*
X0101961Y0097643D01*
X0101996Y0097631D01*
X0102033Y0097623D01*
X0102070Y0097618D01*
X0102107Y0097616D01*
X0102107Y0097617D02*
X0102141Y0097619D01*
X0102174Y0097624D01*
X0102206Y0097633D01*
X0102238Y0097645D01*
X0102268Y0097660D01*
X0102296Y0097678D01*
X0102322Y0097700D01*
X0102346Y0097724D01*
X0102368Y0097750D01*
X0102386Y0097778D01*
X0102401Y0097808D01*
X0102413Y0097840D01*
X0102422Y0097872D01*
X0102427Y0097905D01*
X0102429Y0097939D01*
X0101462Y0097939D02*
X0101428Y0097937D01*
X0101395Y0097932D01*
X0101362Y0097923D01*
X0101331Y0097911D01*
X0101301Y0097896D01*
X0101273Y0097878D01*
X0101247Y0097856D01*
X0101223Y0097832D01*
X0101201Y0097806D01*
X0101183Y0097778D01*
X0101168Y0097748D01*
X0101156Y0097717D01*
X0101147Y0097684D01*
X0101142Y0097651D01*
X0101140Y0097617D01*
X0101462Y0097939D02*
X0101499Y0097937D01*
X0101536Y0097932D01*
X0101573Y0097924D01*
X0101608Y0097912D01*
X0101642Y0097896D01*
X0101675Y0097878D01*
X0101706Y0097857D01*
X0101734Y0097833D01*
X0101761Y0097807D01*
X0101784Y0097778D01*
X0104523Y0089550D02*
X0104578Y0089548D01*
X0104633Y0089542D01*
X0104687Y0089533D01*
X0104740Y0089520D01*
X0104793Y0089503D01*
X0104844Y0089483D01*
X0104894Y0089460D01*
X0104942Y0089433D01*
X0104988Y0089402D01*
X0105032Y0089369D01*
X0105073Y0089333D01*
X0105112Y0089294D01*
X0105148Y0089253D01*
X0105181Y0089209D01*
X0105212Y0089163D01*
X0105239Y0089115D01*
X0105262Y0089065D01*
X0105282Y0089014D01*
X0105299Y0088961D01*
X0105312Y0088908D01*
X0105321Y0088854D01*
X0105327Y0088799D01*
X0105329Y0088744D01*
X0105327Y0088689D01*
X0105321Y0088634D01*
X0105312Y0088580D01*
X0105299Y0088527D01*
X0105282Y0088474D01*
X0105262Y0088423D01*
X0105239Y0088373D01*
X0105212Y0088325D01*
X0105181Y0088279D01*
X0105148Y0088235D01*
X0105112Y0088194D01*
X0105073Y0088155D01*
X0105032Y0088119D01*
X0104988Y0088086D01*
X0104942Y0088055D01*
X0104894Y0088028D01*
X0104844Y0088005D01*
X0104793Y0087985D01*
X0104740Y0087968D01*
X0104687Y0087955D01*
X0104633Y0087946D01*
X0104578Y0087940D01*
X0104523Y0087938D01*
X0107544Y0106650D02*
X0108350Y0109550D01*
X0106739Y0109550D01*
X0106739Y0109228D01*
X0104568Y0116650D02*
X0103763Y0116650D01*
X0103763Y0119550D01*
X0104568Y0119550D01*
X0104623Y0119548D01*
X0104678Y0119542D01*
X0104732Y0119533D01*
X0104785Y0119520D01*
X0104838Y0119503D01*
X0104889Y0119483D01*
X0104939Y0119460D01*
X0104987Y0119433D01*
X0105033Y0119402D01*
X0105077Y0119369D01*
X0105118Y0119333D01*
X0105157Y0119294D01*
X0105193Y0119253D01*
X0105226Y0119209D01*
X0105257Y0119163D01*
X0105284Y0119115D01*
X0105307Y0119065D01*
X0105327Y0119014D01*
X0105344Y0118961D01*
X0105357Y0118908D01*
X0105366Y0118854D01*
X0105372Y0118799D01*
X0105374Y0118744D01*
X0105374Y0117456D01*
X0105372Y0117401D01*
X0105366Y0117346D01*
X0105357Y0117292D01*
X0105344Y0117239D01*
X0105327Y0117186D01*
X0105307Y0117135D01*
X0105284Y0117085D01*
X0105257Y0117037D01*
X0105226Y0116991D01*
X0105193Y0116947D01*
X0105157Y0116906D01*
X0105118Y0116867D01*
X0105077Y0116831D01*
X0105033Y0116798D01*
X0104987Y0116767D01*
X0104939Y0116740D01*
X0104889Y0116717D01*
X0104838Y0116697D01*
X0104785Y0116680D01*
X0104732Y0116667D01*
X0104678Y0116658D01*
X0104623Y0116652D01*
X0104568Y0116650D01*
X0106739Y0117456D02*
X0106739Y0118261D01*
X0107706Y0118261D01*
X0106739Y0118261D02*
X0106741Y0118331D01*
X0106747Y0118400D01*
X0106756Y0118470D01*
X0106769Y0118538D01*
X0106786Y0118606D01*
X0106806Y0118673D01*
X0106831Y0118738D01*
X0106858Y0118802D01*
X0106889Y0118865D01*
X0106924Y0118926D01*
X0106961Y0118984D01*
X0107002Y0119041D01*
X0107046Y0119095D01*
X0107092Y0119147D01*
X0107142Y0119197D01*
X0107194Y0119243D01*
X0107248Y0119287D01*
X0107305Y0119328D01*
X0107363Y0119365D01*
X0107424Y0119400D01*
X0107487Y0119431D01*
X0107551Y0119458D01*
X0107616Y0119483D01*
X0107683Y0119503D01*
X0107751Y0119520D01*
X0107819Y0119533D01*
X0107889Y0119542D01*
X0107958Y0119548D01*
X0108028Y0119550D01*
X0108350Y0117617D02*
X0108350Y0117456D01*
X0108350Y0117617D02*
X0108348Y0117665D01*
X0108343Y0117713D01*
X0108334Y0117760D01*
X0108321Y0117807D01*
X0108305Y0117852D01*
X0108286Y0117896D01*
X0108264Y0117939D01*
X0108238Y0117980D01*
X0108209Y0118019D01*
X0108178Y0118055D01*
X0108144Y0118089D01*
X0108108Y0118120D01*
X0108069Y0118149D01*
X0108028Y0118175D01*
X0107985Y0118197D01*
X0107941Y0118216D01*
X0107896Y0118232D01*
X0107849Y0118245D01*
X0107802Y0118254D01*
X0107754Y0118259D01*
X0107706Y0118261D01*
X0108350Y0117456D02*
X0108348Y0117401D01*
X0108342Y0117346D01*
X0108333Y0117292D01*
X0108320Y0117239D01*
X0108303Y0117186D01*
X0108283Y0117135D01*
X0108260Y0117085D01*
X0108233Y0117037D01*
X0108202Y0116991D01*
X0108169Y0116947D01*
X0108133Y0116906D01*
X0108094Y0116867D01*
X0108053Y0116831D01*
X0108009Y0116798D01*
X0107963Y0116767D01*
X0107915Y0116740D01*
X0107865Y0116717D01*
X0107814Y0116697D01*
X0107761Y0116680D01*
X0107708Y0116667D01*
X0107654Y0116658D01*
X0107599Y0116652D01*
X0107544Y0116650D01*
X0107489Y0116652D01*
X0107434Y0116658D01*
X0107380Y0116667D01*
X0107327Y0116680D01*
X0107274Y0116697D01*
X0107223Y0116717D01*
X0107173Y0116740D01*
X0107125Y0116767D01*
X0107079Y0116798D01*
X0107035Y0116831D01*
X0106994Y0116867D01*
X0106955Y0116906D01*
X0106919Y0116947D01*
X0106886Y0116991D01*
X0106855Y0117037D01*
X0106828Y0117085D01*
X0106805Y0117135D01*
X0106785Y0117186D01*
X0106768Y0117239D01*
X0106755Y0117292D01*
X0106746Y0117346D01*
X0106740Y0117401D01*
X0106738Y0117456D01*
X0106739Y0126650D02*
X0107706Y0126650D01*
X0107754Y0126652D01*
X0107802Y0126657D01*
X0107849Y0126666D01*
X0107896Y0126679D01*
X0107941Y0126695D01*
X0107985Y0126714D01*
X0108028Y0126736D01*
X0108069Y0126762D01*
X0108108Y0126791D01*
X0108144Y0126822D01*
X0108178Y0126856D01*
X0108209Y0126892D01*
X0108238Y0126931D01*
X0108264Y0126972D01*
X0108286Y0127015D01*
X0108305Y0127059D01*
X0108321Y0127104D01*
X0108334Y0127151D01*
X0108343Y0127198D01*
X0108348Y0127246D01*
X0108350Y0127294D01*
X0108350Y0127617D01*
X0108348Y0127665D01*
X0108343Y0127713D01*
X0108334Y0127760D01*
X0108321Y0127807D01*
X0108305Y0127852D01*
X0108286Y0127896D01*
X0108264Y0127939D01*
X0108238Y0127980D01*
X0108209Y0128019D01*
X0108178Y0128055D01*
X0108144Y0128089D01*
X0108108Y0128120D01*
X0108069Y0128149D01*
X0108028Y0128175D01*
X0107985Y0128197D01*
X0107941Y0128216D01*
X0107896Y0128232D01*
X0107849Y0128245D01*
X0107802Y0128254D01*
X0107754Y0128259D01*
X0107706Y0128261D01*
X0106739Y0128261D01*
X0106739Y0129550D01*
X0108350Y0129550D01*
X0105374Y0128744D02*
X0105374Y0127456D01*
X0105372Y0127401D01*
X0105366Y0127346D01*
X0105357Y0127292D01*
X0105344Y0127239D01*
X0105327Y0127186D01*
X0105307Y0127135D01*
X0105284Y0127085D01*
X0105257Y0127037D01*
X0105226Y0126991D01*
X0105193Y0126947D01*
X0105157Y0126906D01*
X0105118Y0126867D01*
X0105077Y0126831D01*
X0105033Y0126798D01*
X0104987Y0126767D01*
X0104939Y0126740D01*
X0104889Y0126717D01*
X0104838Y0126697D01*
X0104785Y0126680D01*
X0104732Y0126667D01*
X0104678Y0126658D01*
X0104623Y0126652D01*
X0104568Y0126650D01*
X0103763Y0126650D01*
X0103763Y0129550D01*
X0104568Y0129550D01*
X0104623Y0129548D01*
X0104678Y0129542D01*
X0104732Y0129533D01*
X0104785Y0129520D01*
X0104838Y0129503D01*
X0104889Y0129483D01*
X0104939Y0129460D01*
X0104987Y0129433D01*
X0105033Y0129402D01*
X0105077Y0129369D01*
X0105118Y0129333D01*
X0105157Y0129294D01*
X0105193Y0129253D01*
X0105226Y0129209D01*
X0105257Y0129163D01*
X0105284Y0129115D01*
X0105307Y0129065D01*
X0105327Y0129014D01*
X0105344Y0128961D01*
X0105357Y0128908D01*
X0105366Y0128854D01*
X0105372Y0128799D01*
X0105374Y0128744D01*
X0105278Y0136650D02*
X0105278Y0139550D01*
X0103667Y0139550D02*
X0103667Y0136650D01*
X0102206Y0136650D02*
X0102206Y0138261D01*
X0101723Y0138261D01*
X0100595Y0138906D02*
X0100597Y0138957D01*
X0100603Y0139007D01*
X0100613Y0139056D01*
X0100627Y0139105D01*
X0100644Y0139152D01*
X0100665Y0139198D01*
X0100690Y0139242D01*
X0100718Y0139285D01*
X0100749Y0139324D01*
X0100784Y0139361D01*
X0100821Y0139396D01*
X0100860Y0139427D01*
X0100903Y0139455D01*
X0100947Y0139480D01*
X0100993Y0139501D01*
X0101040Y0139518D01*
X0101089Y0139532D01*
X0101138Y0139542D01*
X0101188Y0139548D01*
X0101239Y0139550D01*
X0102206Y0139550D01*
X0103667Y0139550D02*
X0105278Y0136650D01*
X0106739Y0136650D02*
X0107544Y0136650D01*
X0106739Y0136650D02*
X0106739Y0139550D01*
X0107544Y0139550D01*
X0107599Y0139548D01*
X0107654Y0139542D01*
X0107708Y0139533D01*
X0107761Y0139520D01*
X0107814Y0139503D01*
X0107865Y0139483D01*
X0107915Y0139460D01*
X0107963Y0139433D01*
X0108009Y0139402D01*
X0108053Y0139369D01*
X0108094Y0139333D01*
X0108133Y0139294D01*
X0108169Y0139253D01*
X0108202Y0139209D01*
X0108233Y0139163D01*
X0108260Y0139115D01*
X0108283Y0139065D01*
X0108303Y0139014D01*
X0108320Y0138961D01*
X0108333Y0138908D01*
X0108342Y0138854D01*
X0108348Y0138799D01*
X0108350Y0138744D01*
X0108350Y0137456D01*
X0108348Y0137401D01*
X0108342Y0137346D01*
X0108333Y0137292D01*
X0108320Y0137239D01*
X0108303Y0137186D01*
X0108283Y0137135D01*
X0108260Y0137085D01*
X0108233Y0137037D01*
X0108202Y0136991D01*
X0108169Y0136947D01*
X0108133Y0136906D01*
X0108094Y0136867D01*
X0108053Y0136831D01*
X0108009Y0136798D01*
X0107963Y0136767D01*
X0107915Y0136740D01*
X0107865Y0136717D01*
X0107814Y0136697D01*
X0107761Y0136680D01*
X0107708Y0136667D01*
X0107654Y0136658D01*
X0107599Y0136652D01*
X0107544Y0136650D01*
X0107544Y0146650D02*
X0106739Y0146650D01*
X0107544Y0146650D02*
X0107599Y0146652D01*
X0107654Y0146658D01*
X0107708Y0146667D01*
X0107761Y0146680D01*
X0107814Y0146697D01*
X0107865Y0146717D01*
X0107915Y0146740D01*
X0107963Y0146767D01*
X0108009Y0146798D01*
X0108053Y0146831D01*
X0108094Y0146867D01*
X0108133Y0146906D01*
X0108169Y0146947D01*
X0108202Y0146991D01*
X0108233Y0147037D01*
X0108260Y0147085D01*
X0108283Y0147135D01*
X0108303Y0147186D01*
X0108320Y0147239D01*
X0108333Y0147292D01*
X0108342Y0147346D01*
X0108348Y0147401D01*
X0108350Y0147456D01*
X0108348Y0147511D01*
X0108342Y0147566D01*
X0108333Y0147620D01*
X0108320Y0147673D01*
X0108303Y0147726D01*
X0108283Y0147777D01*
X0108260Y0147827D01*
X0108233Y0147875D01*
X0108202Y0147921D01*
X0108169Y0147965D01*
X0108133Y0148006D01*
X0108094Y0148045D01*
X0108053Y0148081D01*
X0108009Y0148114D01*
X0107963Y0148145D01*
X0107915Y0148172D01*
X0107865Y0148195D01*
X0107814Y0148215D01*
X0107761Y0148232D01*
X0107708Y0148245D01*
X0107654Y0148254D01*
X0107599Y0148260D01*
X0107544Y0148262D01*
X0107706Y0148261D02*
X0107061Y0148261D01*
X0107706Y0148262D02*
X0107755Y0148264D01*
X0107804Y0148270D01*
X0107853Y0148279D01*
X0107900Y0148292D01*
X0107947Y0148309D01*
X0107992Y0148329D01*
X0108035Y0148352D01*
X0108077Y0148379D01*
X0108116Y0148409D01*
X0108153Y0148442D01*
X0108187Y0148478D01*
X0108218Y0148516D01*
X0108247Y0148556D01*
X0108272Y0148598D01*
X0108294Y0148643D01*
X0108312Y0148688D01*
X0108327Y0148735D01*
X0108338Y0148783D01*
X0108346Y0148832D01*
X0108350Y0148881D01*
X0108350Y0148931D01*
X0108346Y0148980D01*
X0108338Y0149029D01*
X0108327Y0149077D01*
X0108312Y0149124D01*
X0108294Y0149169D01*
X0108272Y0149214D01*
X0108247Y0149256D01*
X0108218Y0149296D01*
X0108187Y0149334D01*
X0108153Y0149370D01*
X0108116Y0149403D01*
X0108077Y0149433D01*
X0108035Y0149460D01*
X0107992Y0149483D01*
X0107947Y0149503D01*
X0107900Y0149520D01*
X0107853Y0149533D01*
X0107804Y0149542D01*
X0107755Y0149548D01*
X0107706Y0149550D01*
X0106739Y0149550D01*
X0105631Y0149550D02*
X0104664Y0146650D01*
X0103698Y0149550D01*
X0101946Y0149550D02*
X0100979Y0149550D01*
X0101946Y0149550D02*
X0101995Y0149548D01*
X0102044Y0149542D01*
X0102093Y0149533D01*
X0102140Y0149520D01*
X0102187Y0149503D01*
X0102232Y0149483D01*
X0102275Y0149460D01*
X0102317Y0149433D01*
X0102356Y0149403D01*
X0102393Y0149370D01*
X0102427Y0149334D01*
X0102458Y0149296D01*
X0102487Y0149256D01*
X0102512Y0149214D01*
X0102534Y0149169D01*
X0102552Y0149124D01*
X0102567Y0149077D01*
X0102578Y0149029D01*
X0102586Y0148980D01*
X0102590Y0148931D01*
X0102590Y0148881D01*
X0102586Y0148832D01*
X0102578Y0148783D01*
X0102567Y0148735D01*
X0102552Y0148688D01*
X0102534Y0148643D01*
X0102512Y0148598D01*
X0102487Y0148556D01*
X0102458Y0148516D01*
X0102427Y0148478D01*
X0102393Y0148442D01*
X0102356Y0148409D01*
X0102317Y0148379D01*
X0102275Y0148352D01*
X0102232Y0148329D01*
X0102187Y0148309D01*
X0102140Y0148292D01*
X0102093Y0148279D01*
X0102044Y0148270D01*
X0101995Y0148264D01*
X0101946Y0148262D01*
X0101946Y0148261D02*
X0101301Y0148261D01*
X0101784Y0148262D02*
X0101839Y0148260D01*
X0101894Y0148254D01*
X0101948Y0148245D01*
X0102001Y0148232D01*
X0102054Y0148215D01*
X0102105Y0148195D01*
X0102155Y0148172D01*
X0102203Y0148145D01*
X0102249Y0148114D01*
X0102293Y0148081D01*
X0102334Y0148045D01*
X0102373Y0148006D01*
X0102409Y0147965D01*
X0102442Y0147921D01*
X0102473Y0147875D01*
X0102500Y0147827D01*
X0102523Y0147777D01*
X0102543Y0147726D01*
X0102560Y0147673D01*
X0102573Y0147620D01*
X0102582Y0147566D01*
X0102588Y0147511D01*
X0102590Y0147456D01*
X0102588Y0147401D01*
X0102582Y0147346D01*
X0102573Y0147292D01*
X0102560Y0147239D01*
X0102543Y0147186D01*
X0102523Y0147135D01*
X0102500Y0147085D01*
X0102473Y0147037D01*
X0102442Y0146991D01*
X0102409Y0146947D01*
X0102373Y0146906D01*
X0102334Y0146867D01*
X0102293Y0146831D01*
X0102249Y0146798D01*
X0102203Y0146767D01*
X0102155Y0146740D01*
X0102105Y0146717D01*
X0102054Y0146697D01*
X0102001Y0146680D01*
X0101948Y0146667D01*
X0101894Y0146658D01*
X0101839Y0146652D01*
X0101784Y0146650D01*
X0100979Y0146650D01*
X0100595Y0138906D02*
X0100595Y0137294D01*
X0100597Y0137246D01*
X0100602Y0137198D01*
X0100611Y0137151D01*
X0100624Y0137104D01*
X0100640Y0137059D01*
X0100659Y0137015D01*
X0100681Y0136972D01*
X0100707Y0136931D01*
X0100736Y0136892D01*
X0100767Y0136856D01*
X0100801Y0136822D01*
X0100837Y0136791D01*
X0100876Y0136762D01*
X0100917Y0136736D01*
X0100960Y0136714D01*
X0101004Y0136695D01*
X0101049Y0136679D01*
X0101096Y0136666D01*
X0101143Y0136657D01*
X0101191Y0136652D01*
X0101239Y0136650D01*
X0102206Y0136650D01*
X0101785Y0127777D02*
X0101808Y0127748D01*
X0101835Y0127722D01*
X0101863Y0127698D01*
X0101894Y0127677D01*
X0101927Y0127659D01*
X0101961Y0127643D01*
X0101996Y0127631D01*
X0102033Y0127623D01*
X0102070Y0127618D01*
X0102107Y0127616D01*
X0102107Y0127617D02*
X0102141Y0127619D01*
X0102174Y0127624D01*
X0102206Y0127633D01*
X0102238Y0127645D01*
X0102268Y0127660D01*
X0102296Y0127678D01*
X0102322Y0127700D01*
X0102346Y0127724D01*
X0102368Y0127750D01*
X0102386Y0127778D01*
X0102401Y0127808D01*
X0102413Y0127840D01*
X0102422Y0127872D01*
X0102427Y0127905D01*
X0102429Y0127939D01*
X0101462Y0127939D02*
X0101428Y0127937D01*
X0101395Y0127932D01*
X0101362Y0127923D01*
X0101331Y0127911D01*
X0101301Y0127896D01*
X0101273Y0127878D01*
X0101247Y0127856D01*
X0101223Y0127832D01*
X0101201Y0127806D01*
X0101183Y0127778D01*
X0101168Y0127748D01*
X0101156Y0127717D01*
X0101147Y0127684D01*
X0101142Y0127651D01*
X0101140Y0127617D01*
X0101462Y0127939D02*
X0101499Y0127937D01*
X0101536Y0127932D01*
X0101573Y0127924D01*
X0101608Y0127912D01*
X0101642Y0127896D01*
X0101675Y0127878D01*
X0101706Y0127857D01*
X0101734Y0127833D01*
X0101761Y0127807D01*
X0101784Y0127778D01*
X0101785Y0117777D02*
X0101808Y0117748D01*
X0101835Y0117722D01*
X0101863Y0117698D01*
X0101894Y0117677D01*
X0101927Y0117659D01*
X0101961Y0117643D01*
X0101996Y0117631D01*
X0102033Y0117623D01*
X0102070Y0117618D01*
X0102107Y0117616D01*
X0102107Y0117617D02*
X0102141Y0117619D01*
X0102174Y0117624D01*
X0102206Y0117633D01*
X0102238Y0117645D01*
X0102268Y0117660D01*
X0102296Y0117678D01*
X0102322Y0117700D01*
X0102346Y0117724D01*
X0102368Y0117750D01*
X0102386Y0117778D01*
X0102401Y0117808D01*
X0102413Y0117840D01*
X0102422Y0117872D01*
X0102427Y0117905D01*
X0102429Y0117939D01*
X0101462Y0117939D02*
X0101428Y0117937D01*
X0101395Y0117932D01*
X0101362Y0117923D01*
X0101331Y0117911D01*
X0101301Y0117896D01*
X0101273Y0117878D01*
X0101247Y0117856D01*
X0101223Y0117832D01*
X0101201Y0117806D01*
X0101183Y0117778D01*
X0101168Y0117748D01*
X0101156Y0117717D01*
X0101147Y0117684D01*
X0101142Y0117651D01*
X0101140Y0117617D01*
X0101462Y0117939D02*
X0101499Y0117937D01*
X0101536Y0117932D01*
X0101573Y0117924D01*
X0101608Y0117912D01*
X0101642Y0117896D01*
X0101675Y0117878D01*
X0101706Y0117857D01*
X0101734Y0117833D01*
X0101761Y0117807D01*
X0101784Y0117778D01*
X0103763Y0156650D02*
X0104568Y0156650D01*
X0103763Y0156650D02*
X0103763Y0159550D01*
X0104568Y0159550D01*
X0104623Y0159548D01*
X0104678Y0159542D01*
X0104732Y0159533D01*
X0104785Y0159520D01*
X0104838Y0159503D01*
X0104889Y0159483D01*
X0104939Y0159460D01*
X0104987Y0159433D01*
X0105033Y0159402D01*
X0105077Y0159369D01*
X0105118Y0159333D01*
X0105157Y0159294D01*
X0105193Y0159253D01*
X0105226Y0159209D01*
X0105257Y0159163D01*
X0105284Y0159115D01*
X0105307Y0159065D01*
X0105327Y0159014D01*
X0105344Y0158961D01*
X0105357Y0158908D01*
X0105366Y0158854D01*
X0105372Y0158799D01*
X0105374Y0158744D01*
X0105374Y0157456D01*
X0105372Y0157401D01*
X0105366Y0157346D01*
X0105357Y0157292D01*
X0105344Y0157239D01*
X0105327Y0157186D01*
X0105307Y0157135D01*
X0105284Y0157085D01*
X0105257Y0157037D01*
X0105226Y0156991D01*
X0105193Y0156947D01*
X0105157Y0156906D01*
X0105118Y0156867D01*
X0105077Y0156831D01*
X0105033Y0156798D01*
X0104987Y0156767D01*
X0104939Y0156740D01*
X0104889Y0156717D01*
X0104838Y0156697D01*
X0104785Y0156680D01*
X0104732Y0156667D01*
X0104678Y0156658D01*
X0104623Y0156652D01*
X0104568Y0156650D01*
X0106739Y0157294D02*
X0108350Y0157294D01*
X0107867Y0157939D02*
X0107867Y0156650D01*
X0106739Y0157294D02*
X0107383Y0159550D01*
X0107544Y0166650D02*
X0106739Y0166650D01*
X0107544Y0166650D02*
X0107599Y0166652D01*
X0107654Y0166658D01*
X0107708Y0166667D01*
X0107761Y0166680D01*
X0107814Y0166697D01*
X0107865Y0166717D01*
X0107915Y0166740D01*
X0107963Y0166767D01*
X0108009Y0166798D01*
X0108053Y0166831D01*
X0108094Y0166867D01*
X0108133Y0166906D01*
X0108169Y0166947D01*
X0108202Y0166991D01*
X0108233Y0167037D01*
X0108260Y0167085D01*
X0108283Y0167135D01*
X0108303Y0167186D01*
X0108320Y0167239D01*
X0108333Y0167292D01*
X0108342Y0167346D01*
X0108348Y0167401D01*
X0108350Y0167456D01*
X0108348Y0167511D01*
X0108342Y0167566D01*
X0108333Y0167620D01*
X0108320Y0167673D01*
X0108303Y0167726D01*
X0108283Y0167777D01*
X0108260Y0167827D01*
X0108233Y0167875D01*
X0108202Y0167921D01*
X0108169Y0167965D01*
X0108133Y0168006D01*
X0108094Y0168045D01*
X0108053Y0168081D01*
X0108009Y0168114D01*
X0107963Y0168145D01*
X0107915Y0168172D01*
X0107865Y0168195D01*
X0107814Y0168215D01*
X0107761Y0168232D01*
X0107708Y0168245D01*
X0107654Y0168254D01*
X0107599Y0168260D01*
X0107544Y0168262D01*
X0107706Y0168261D02*
X0107061Y0168261D01*
X0107706Y0168262D02*
X0107755Y0168264D01*
X0107804Y0168270D01*
X0107853Y0168279D01*
X0107900Y0168292D01*
X0107947Y0168309D01*
X0107992Y0168329D01*
X0108035Y0168352D01*
X0108077Y0168379D01*
X0108116Y0168409D01*
X0108153Y0168442D01*
X0108187Y0168478D01*
X0108218Y0168516D01*
X0108247Y0168556D01*
X0108272Y0168598D01*
X0108294Y0168643D01*
X0108312Y0168688D01*
X0108327Y0168735D01*
X0108338Y0168783D01*
X0108346Y0168832D01*
X0108350Y0168881D01*
X0108350Y0168931D01*
X0108346Y0168980D01*
X0108338Y0169029D01*
X0108327Y0169077D01*
X0108312Y0169124D01*
X0108294Y0169169D01*
X0108272Y0169214D01*
X0108247Y0169256D01*
X0108218Y0169296D01*
X0108187Y0169334D01*
X0108153Y0169370D01*
X0108116Y0169403D01*
X0108077Y0169433D01*
X0108035Y0169460D01*
X0107992Y0169483D01*
X0107947Y0169503D01*
X0107900Y0169520D01*
X0107853Y0169533D01*
X0107804Y0169542D01*
X0107755Y0169548D01*
X0107706Y0169550D01*
X0106739Y0169550D01*
X0105374Y0168744D02*
X0105374Y0167456D01*
X0105372Y0167401D01*
X0105366Y0167346D01*
X0105357Y0167292D01*
X0105344Y0167239D01*
X0105327Y0167186D01*
X0105307Y0167135D01*
X0105284Y0167085D01*
X0105257Y0167037D01*
X0105226Y0166991D01*
X0105193Y0166947D01*
X0105157Y0166906D01*
X0105118Y0166867D01*
X0105077Y0166831D01*
X0105033Y0166798D01*
X0104987Y0166767D01*
X0104939Y0166740D01*
X0104889Y0166717D01*
X0104838Y0166697D01*
X0104785Y0166680D01*
X0104732Y0166667D01*
X0104678Y0166658D01*
X0104623Y0166652D01*
X0104568Y0166650D01*
X0103763Y0166650D01*
X0103763Y0169550D01*
X0104568Y0169550D01*
X0104623Y0169548D01*
X0104678Y0169542D01*
X0104732Y0169533D01*
X0104785Y0169520D01*
X0104838Y0169503D01*
X0104889Y0169483D01*
X0104939Y0169460D01*
X0104987Y0169433D01*
X0105033Y0169402D01*
X0105077Y0169369D01*
X0105118Y0169333D01*
X0105157Y0169294D01*
X0105193Y0169253D01*
X0105226Y0169209D01*
X0105257Y0169163D01*
X0105284Y0169115D01*
X0105307Y0169065D01*
X0105327Y0169014D01*
X0105344Y0168961D01*
X0105357Y0168908D01*
X0105366Y0168854D01*
X0105372Y0168799D01*
X0105374Y0168744D01*
X0104568Y0176650D02*
X0103763Y0176650D01*
X0103763Y0179550D01*
X0104568Y0179550D01*
X0104623Y0179548D01*
X0104678Y0179542D01*
X0104732Y0179533D01*
X0104785Y0179520D01*
X0104838Y0179503D01*
X0104889Y0179483D01*
X0104939Y0179460D01*
X0104987Y0179433D01*
X0105033Y0179402D01*
X0105077Y0179369D01*
X0105118Y0179333D01*
X0105157Y0179294D01*
X0105193Y0179253D01*
X0105226Y0179209D01*
X0105257Y0179163D01*
X0105284Y0179115D01*
X0105307Y0179065D01*
X0105327Y0179014D01*
X0105344Y0178961D01*
X0105357Y0178908D01*
X0105366Y0178854D01*
X0105372Y0178799D01*
X0105374Y0178744D01*
X0105374Y0177456D01*
X0105372Y0177401D01*
X0105366Y0177346D01*
X0105357Y0177292D01*
X0105344Y0177239D01*
X0105327Y0177186D01*
X0105307Y0177135D01*
X0105284Y0177085D01*
X0105257Y0177037D01*
X0105226Y0176991D01*
X0105193Y0176947D01*
X0105157Y0176906D01*
X0105118Y0176867D01*
X0105077Y0176831D01*
X0105033Y0176798D01*
X0104987Y0176767D01*
X0104939Y0176740D01*
X0104889Y0176717D01*
X0104838Y0176697D01*
X0104785Y0176680D01*
X0104732Y0176667D01*
X0104678Y0176658D01*
X0104623Y0176652D01*
X0104568Y0176650D01*
X0106739Y0176650D02*
X0108350Y0176650D01*
X0106739Y0176650D02*
X0108108Y0178261D01*
X0107625Y0179550D02*
X0107566Y0179548D01*
X0107508Y0179543D01*
X0107450Y0179533D01*
X0107393Y0179521D01*
X0107337Y0179504D01*
X0107282Y0179485D01*
X0107228Y0179461D01*
X0107176Y0179435D01*
X0107126Y0179405D01*
X0107077Y0179372D01*
X0107031Y0179336D01*
X0106987Y0179297D01*
X0106946Y0179256D01*
X0106907Y0179212D01*
X0106871Y0179166D01*
X0106839Y0179117D01*
X0106809Y0179067D01*
X0106782Y0179015D01*
X0106759Y0178961D01*
X0106739Y0178906D01*
X0108108Y0178261D02*
X0108145Y0178298D01*
X0108179Y0178338D01*
X0108211Y0178380D01*
X0108239Y0178425D01*
X0108265Y0178471D01*
X0108287Y0178518D01*
X0108306Y0178567D01*
X0108322Y0178617D01*
X0108334Y0178668D01*
X0108343Y0178720D01*
X0108348Y0178772D01*
X0108350Y0178825D01*
X0108348Y0178877D01*
X0108343Y0178928D01*
X0108333Y0178979D01*
X0108321Y0179029D01*
X0108304Y0179078D01*
X0108284Y0179126D01*
X0108261Y0179172D01*
X0108235Y0179217D01*
X0108205Y0179259D01*
X0108173Y0179300D01*
X0108138Y0179338D01*
X0108100Y0179373D01*
X0108059Y0179405D01*
X0108017Y0179435D01*
X0107972Y0179461D01*
X0107926Y0179484D01*
X0107878Y0179504D01*
X0107829Y0179521D01*
X0107779Y0179533D01*
X0107728Y0179543D01*
X0107677Y0179548D01*
X0107625Y0179550D01*
X0107544Y0186650D02*
X0107544Y0189550D01*
X0106739Y0188906D01*
X0105374Y0188744D02*
X0105374Y0187456D01*
X0105372Y0187401D01*
X0105366Y0187346D01*
X0105357Y0187292D01*
X0105344Y0187239D01*
X0105327Y0187186D01*
X0105307Y0187135D01*
X0105284Y0187085D01*
X0105257Y0187037D01*
X0105226Y0186991D01*
X0105193Y0186947D01*
X0105157Y0186906D01*
X0105118Y0186867D01*
X0105077Y0186831D01*
X0105033Y0186798D01*
X0104987Y0186767D01*
X0104939Y0186740D01*
X0104889Y0186717D01*
X0104838Y0186697D01*
X0104785Y0186680D01*
X0104732Y0186667D01*
X0104678Y0186658D01*
X0104623Y0186652D01*
X0104568Y0186650D01*
X0103763Y0186650D01*
X0103763Y0189550D01*
X0104568Y0189550D01*
X0104623Y0189548D01*
X0104678Y0189542D01*
X0104732Y0189533D01*
X0104785Y0189520D01*
X0104838Y0189503D01*
X0104889Y0189483D01*
X0104939Y0189460D01*
X0104987Y0189433D01*
X0105033Y0189402D01*
X0105077Y0189369D01*
X0105118Y0189333D01*
X0105157Y0189294D01*
X0105193Y0189253D01*
X0105226Y0189209D01*
X0105257Y0189163D01*
X0105284Y0189115D01*
X0105307Y0189065D01*
X0105327Y0189014D01*
X0105344Y0188961D01*
X0105357Y0188908D01*
X0105366Y0188854D01*
X0105372Y0188799D01*
X0105374Y0188744D01*
X0106739Y0186650D02*
X0108350Y0186650D01*
X0107544Y0196650D02*
X0107590Y0196652D01*
X0107636Y0196657D01*
X0107681Y0196666D01*
X0107726Y0196678D01*
X0107769Y0196694D01*
X0107811Y0196713D01*
X0107852Y0196736D01*
X0107890Y0196761D01*
X0107927Y0196789D01*
X0107961Y0196820D01*
X0107993Y0196854D01*
X0108022Y0196890D01*
X0108048Y0196928D01*
X0108071Y0196968D01*
X0108091Y0197010D01*
X0108108Y0197053D01*
X0107544Y0196650D02*
X0107498Y0196652D01*
X0107452Y0196657D01*
X0107407Y0196666D01*
X0107362Y0196678D01*
X0107319Y0196694D01*
X0107277Y0196713D01*
X0107236Y0196736D01*
X0107198Y0196761D01*
X0107161Y0196789D01*
X0107127Y0196820D01*
X0107095Y0196854D01*
X0107066Y0196890D01*
X0107040Y0196928D01*
X0107017Y0196968D01*
X0106997Y0197010D01*
X0106980Y0197053D01*
X0106900Y0197294D02*
X0108189Y0198906D01*
X0108108Y0199147D02*
X0108091Y0199190D01*
X0108071Y0199232D01*
X0108048Y0199272D01*
X0108022Y0199310D01*
X0107993Y0199346D01*
X0107961Y0199380D01*
X0107927Y0199411D01*
X0107890Y0199439D01*
X0107852Y0199464D01*
X0107811Y0199487D01*
X0107769Y0199506D01*
X0107726Y0199522D01*
X0107681Y0199534D01*
X0107636Y0199543D01*
X0107590Y0199548D01*
X0107544Y0199550D01*
X0107498Y0199548D01*
X0107452Y0199543D01*
X0107407Y0199534D01*
X0107362Y0199522D01*
X0107319Y0199506D01*
X0107277Y0199487D01*
X0107236Y0199464D01*
X0107198Y0199439D01*
X0107161Y0199411D01*
X0107127Y0199380D01*
X0107095Y0199346D01*
X0107066Y0199310D01*
X0107040Y0199272D01*
X0107017Y0199232D01*
X0106997Y0199190D01*
X0106980Y0199147D01*
X0108108Y0199147D02*
X0108146Y0199065D01*
X0108181Y0198982D01*
X0108213Y0198897D01*
X0108242Y0198812D01*
X0108267Y0198725D01*
X0108289Y0198637D01*
X0108307Y0198549D01*
X0108323Y0198460D01*
X0108335Y0198370D01*
X0108343Y0198281D01*
X0108348Y0198190D01*
X0108350Y0198100D01*
X0106739Y0198100D02*
X0106741Y0198190D01*
X0106746Y0198281D01*
X0106754Y0198370D01*
X0106766Y0198460D01*
X0106782Y0198549D01*
X0106800Y0198637D01*
X0106822Y0198725D01*
X0106847Y0198812D01*
X0106876Y0198897D01*
X0106908Y0198982D01*
X0106943Y0199065D01*
X0106981Y0199147D01*
X0108350Y0198100D02*
X0108348Y0198010D01*
X0108343Y0197919D01*
X0108335Y0197830D01*
X0108323Y0197740D01*
X0108307Y0197651D01*
X0108289Y0197563D01*
X0108267Y0197475D01*
X0108242Y0197388D01*
X0108213Y0197303D01*
X0108181Y0197218D01*
X0108146Y0197135D01*
X0108108Y0197053D01*
X0106981Y0197053D02*
X0106943Y0197135D01*
X0106908Y0197218D01*
X0106876Y0197303D01*
X0106847Y0197388D01*
X0106822Y0197475D01*
X0106800Y0197563D01*
X0106782Y0197651D01*
X0106766Y0197740D01*
X0106754Y0197830D01*
X0106746Y0197919D01*
X0106741Y0198010D01*
X0106739Y0198100D01*
X0105374Y0198744D02*
X0105374Y0197456D01*
X0105372Y0197401D01*
X0105366Y0197346D01*
X0105357Y0197292D01*
X0105344Y0197239D01*
X0105327Y0197186D01*
X0105307Y0197135D01*
X0105284Y0197085D01*
X0105257Y0197037D01*
X0105226Y0196991D01*
X0105193Y0196947D01*
X0105157Y0196906D01*
X0105118Y0196867D01*
X0105077Y0196831D01*
X0105033Y0196798D01*
X0104987Y0196767D01*
X0104939Y0196740D01*
X0104889Y0196717D01*
X0104838Y0196697D01*
X0104785Y0196680D01*
X0104732Y0196667D01*
X0104678Y0196658D01*
X0104623Y0196652D01*
X0104568Y0196650D01*
X0103763Y0196650D01*
X0103763Y0199550D01*
X0104568Y0199550D01*
X0104623Y0199548D01*
X0104678Y0199542D01*
X0104732Y0199533D01*
X0104785Y0199520D01*
X0104838Y0199503D01*
X0104889Y0199483D01*
X0104939Y0199460D01*
X0104987Y0199433D01*
X0105033Y0199402D01*
X0105077Y0199369D01*
X0105118Y0199333D01*
X0105157Y0199294D01*
X0105193Y0199253D01*
X0105226Y0199209D01*
X0105257Y0199163D01*
X0105284Y0199115D01*
X0105307Y0199065D01*
X0105327Y0199014D01*
X0105344Y0198961D01*
X0105357Y0198908D01*
X0105366Y0198854D01*
X0105372Y0198799D01*
X0105374Y0198744D01*
X0101785Y0187777D02*
X0101808Y0187748D01*
X0101835Y0187722D01*
X0101863Y0187698D01*
X0101894Y0187677D01*
X0101927Y0187659D01*
X0101961Y0187643D01*
X0101996Y0187631D01*
X0102033Y0187623D01*
X0102070Y0187618D01*
X0102107Y0187616D01*
X0102107Y0187617D02*
X0102141Y0187619D01*
X0102174Y0187624D01*
X0102206Y0187633D01*
X0102238Y0187645D01*
X0102268Y0187660D01*
X0102296Y0187678D01*
X0102322Y0187700D01*
X0102346Y0187724D01*
X0102368Y0187750D01*
X0102386Y0187778D01*
X0102401Y0187808D01*
X0102413Y0187840D01*
X0102422Y0187872D01*
X0102427Y0187905D01*
X0102429Y0187939D01*
X0101462Y0187939D02*
X0101428Y0187937D01*
X0101395Y0187932D01*
X0101362Y0187923D01*
X0101331Y0187911D01*
X0101301Y0187896D01*
X0101273Y0187878D01*
X0101247Y0187856D01*
X0101223Y0187832D01*
X0101201Y0187806D01*
X0101183Y0187778D01*
X0101168Y0187748D01*
X0101156Y0187717D01*
X0101147Y0187684D01*
X0101142Y0187651D01*
X0101140Y0187617D01*
X0101462Y0187939D02*
X0101499Y0187937D01*
X0101536Y0187932D01*
X0101573Y0187924D01*
X0101608Y0187912D01*
X0101642Y0187896D01*
X0101675Y0187878D01*
X0101706Y0187857D01*
X0101734Y0187833D01*
X0101761Y0187807D01*
X0101784Y0187778D01*
X0101785Y0177777D02*
X0101808Y0177748D01*
X0101835Y0177722D01*
X0101863Y0177698D01*
X0101894Y0177677D01*
X0101927Y0177659D01*
X0101961Y0177643D01*
X0101996Y0177631D01*
X0102033Y0177623D01*
X0102070Y0177618D01*
X0102107Y0177616D01*
X0102107Y0177617D02*
X0102141Y0177619D01*
X0102174Y0177624D01*
X0102206Y0177633D01*
X0102238Y0177645D01*
X0102268Y0177660D01*
X0102296Y0177678D01*
X0102322Y0177700D01*
X0102346Y0177724D01*
X0102368Y0177750D01*
X0102386Y0177778D01*
X0102401Y0177808D01*
X0102413Y0177840D01*
X0102422Y0177872D01*
X0102427Y0177905D01*
X0102429Y0177939D01*
X0101462Y0177939D02*
X0101428Y0177937D01*
X0101395Y0177932D01*
X0101362Y0177923D01*
X0101331Y0177911D01*
X0101301Y0177896D01*
X0101273Y0177878D01*
X0101247Y0177856D01*
X0101223Y0177832D01*
X0101201Y0177806D01*
X0101183Y0177778D01*
X0101168Y0177748D01*
X0101156Y0177717D01*
X0101147Y0177684D01*
X0101142Y0177651D01*
X0101140Y0177617D01*
X0101462Y0177939D02*
X0101499Y0177937D01*
X0101536Y0177932D01*
X0101573Y0177924D01*
X0101608Y0177912D01*
X0101642Y0177896D01*
X0101675Y0177878D01*
X0101706Y0177857D01*
X0101734Y0177833D01*
X0101761Y0177807D01*
X0101784Y0177778D01*
X0101785Y0167777D02*
X0101808Y0167748D01*
X0101835Y0167722D01*
X0101863Y0167698D01*
X0101894Y0167677D01*
X0101927Y0167659D01*
X0101961Y0167643D01*
X0101996Y0167631D01*
X0102033Y0167623D01*
X0102070Y0167618D01*
X0102107Y0167616D01*
X0102107Y0167617D02*
X0102141Y0167619D01*
X0102174Y0167624D01*
X0102206Y0167633D01*
X0102238Y0167645D01*
X0102268Y0167660D01*
X0102296Y0167678D01*
X0102322Y0167700D01*
X0102346Y0167724D01*
X0102368Y0167750D01*
X0102386Y0167778D01*
X0102401Y0167808D01*
X0102413Y0167840D01*
X0102422Y0167872D01*
X0102427Y0167905D01*
X0102429Y0167939D01*
X0101462Y0167939D02*
X0101428Y0167937D01*
X0101395Y0167932D01*
X0101362Y0167923D01*
X0101331Y0167911D01*
X0101301Y0167896D01*
X0101273Y0167878D01*
X0101247Y0167856D01*
X0101223Y0167832D01*
X0101201Y0167806D01*
X0101183Y0167778D01*
X0101168Y0167748D01*
X0101156Y0167717D01*
X0101147Y0167684D01*
X0101142Y0167651D01*
X0101140Y0167617D01*
X0101462Y0167939D02*
X0101499Y0167937D01*
X0101536Y0167932D01*
X0101573Y0167924D01*
X0101608Y0167912D01*
X0101642Y0167896D01*
X0101675Y0167878D01*
X0101706Y0167857D01*
X0101734Y0167833D01*
X0101761Y0167807D01*
X0101784Y0167778D01*
X0101785Y0157777D02*
X0101808Y0157748D01*
X0101835Y0157722D01*
X0101863Y0157698D01*
X0101894Y0157677D01*
X0101927Y0157659D01*
X0101961Y0157643D01*
X0101996Y0157631D01*
X0102033Y0157623D01*
X0102070Y0157618D01*
X0102107Y0157616D01*
X0102107Y0157617D02*
X0102141Y0157619D01*
X0102174Y0157624D01*
X0102206Y0157633D01*
X0102238Y0157645D01*
X0102268Y0157660D01*
X0102296Y0157678D01*
X0102322Y0157700D01*
X0102346Y0157724D01*
X0102368Y0157750D01*
X0102386Y0157778D01*
X0102401Y0157808D01*
X0102413Y0157840D01*
X0102422Y0157872D01*
X0102427Y0157905D01*
X0102429Y0157939D01*
X0101462Y0157939D02*
X0101428Y0157937D01*
X0101395Y0157932D01*
X0101362Y0157923D01*
X0101331Y0157911D01*
X0101301Y0157896D01*
X0101273Y0157878D01*
X0101247Y0157856D01*
X0101223Y0157832D01*
X0101201Y0157806D01*
X0101183Y0157778D01*
X0101168Y0157748D01*
X0101156Y0157717D01*
X0101147Y0157684D01*
X0101142Y0157651D01*
X0101140Y0157617D01*
X0101462Y0157939D02*
X0101499Y0157937D01*
X0101536Y0157932D01*
X0101573Y0157924D01*
X0101608Y0157912D01*
X0101642Y0157896D01*
X0101675Y0157878D01*
X0101706Y0157857D01*
X0101734Y0157833D01*
X0101761Y0157807D01*
X0101784Y0157778D01*
X0034506Y0128100D02*
X0034508Y0128010D01*
X0034513Y0127919D01*
X0034521Y0127830D01*
X0034533Y0127740D01*
X0034549Y0127651D01*
X0034567Y0127563D01*
X0034589Y0127475D01*
X0034614Y0127388D01*
X0034643Y0127303D01*
X0034675Y0127218D01*
X0034710Y0127135D01*
X0034748Y0127053D01*
X0034667Y0127294D02*
X0035956Y0128906D01*
X0035876Y0129147D02*
X0035859Y0129190D01*
X0035839Y0129232D01*
X0035816Y0129272D01*
X0035790Y0129310D01*
X0035761Y0129346D01*
X0035729Y0129380D01*
X0035695Y0129411D01*
X0035658Y0129439D01*
X0035620Y0129464D01*
X0035579Y0129487D01*
X0035537Y0129506D01*
X0035494Y0129522D01*
X0035449Y0129534D01*
X0035404Y0129543D01*
X0035358Y0129548D01*
X0035312Y0129550D01*
X0035266Y0129548D01*
X0035220Y0129543D01*
X0035175Y0129534D01*
X0035130Y0129522D01*
X0035087Y0129506D01*
X0035045Y0129487D01*
X0035004Y0129464D01*
X0034966Y0129439D01*
X0034929Y0129411D01*
X0034895Y0129380D01*
X0034863Y0129346D01*
X0034834Y0129310D01*
X0034808Y0129272D01*
X0034785Y0129232D01*
X0034765Y0129190D01*
X0034748Y0129147D01*
X0035875Y0129147D02*
X0035913Y0129065D01*
X0035948Y0128982D01*
X0035980Y0128897D01*
X0036009Y0128812D01*
X0036034Y0128725D01*
X0036056Y0128637D01*
X0036074Y0128549D01*
X0036090Y0128460D01*
X0036102Y0128370D01*
X0036110Y0128281D01*
X0036115Y0128190D01*
X0036117Y0128100D01*
X0034506Y0128100D02*
X0034508Y0128190D01*
X0034513Y0128281D01*
X0034521Y0128370D01*
X0034533Y0128460D01*
X0034549Y0128549D01*
X0034567Y0128637D01*
X0034589Y0128725D01*
X0034614Y0128812D01*
X0034643Y0128897D01*
X0034675Y0128982D01*
X0034710Y0129065D01*
X0034748Y0129147D01*
X0036117Y0128100D02*
X0036115Y0128010D01*
X0036110Y0127919D01*
X0036102Y0127830D01*
X0036090Y0127740D01*
X0036074Y0127651D01*
X0036056Y0127563D01*
X0036034Y0127475D01*
X0036009Y0127388D01*
X0035980Y0127303D01*
X0035948Y0127218D01*
X0035913Y0127135D01*
X0035875Y0127053D01*
X0035876Y0127053D02*
X0035859Y0127010D01*
X0035839Y0126968D01*
X0035816Y0126928D01*
X0035790Y0126890D01*
X0035761Y0126854D01*
X0035729Y0126820D01*
X0035695Y0126789D01*
X0035658Y0126761D01*
X0035620Y0126736D01*
X0035579Y0126713D01*
X0035537Y0126694D01*
X0035494Y0126678D01*
X0035449Y0126666D01*
X0035404Y0126657D01*
X0035358Y0126652D01*
X0035312Y0126650D01*
X0035266Y0126652D01*
X0035220Y0126657D01*
X0035175Y0126666D01*
X0035130Y0126678D01*
X0035087Y0126694D01*
X0035045Y0126713D01*
X0035004Y0126736D01*
X0034966Y0126761D01*
X0034929Y0126789D01*
X0034895Y0126820D01*
X0034863Y0126854D01*
X0034834Y0126890D01*
X0034808Y0126928D01*
X0034785Y0126968D01*
X0034765Y0127010D01*
X0034748Y0127053D01*
X0033141Y0127456D02*
X0033141Y0128744D01*
X0033142Y0128744D02*
X0033140Y0128799D01*
X0033134Y0128854D01*
X0033125Y0128908D01*
X0033112Y0128961D01*
X0033095Y0129014D01*
X0033075Y0129065D01*
X0033052Y0129115D01*
X0033025Y0129163D01*
X0032994Y0129209D01*
X0032961Y0129253D01*
X0032925Y0129294D01*
X0032886Y0129333D01*
X0032845Y0129369D01*
X0032801Y0129402D01*
X0032755Y0129433D01*
X0032707Y0129460D01*
X0032657Y0129483D01*
X0032606Y0129503D01*
X0032553Y0129520D01*
X0032500Y0129533D01*
X0032446Y0129542D01*
X0032391Y0129548D01*
X0032336Y0129550D01*
X0031530Y0129550D01*
X0031530Y0126650D01*
X0032336Y0126650D01*
X0032391Y0126652D01*
X0032446Y0126658D01*
X0032500Y0126667D01*
X0032553Y0126680D01*
X0032606Y0126697D01*
X0032657Y0126717D01*
X0032707Y0126740D01*
X0032755Y0126767D01*
X0032801Y0126798D01*
X0032845Y0126831D01*
X0032886Y0126867D01*
X0032925Y0126906D01*
X0032961Y0126947D01*
X0032994Y0126991D01*
X0033025Y0127037D01*
X0033052Y0127085D01*
X0033075Y0127135D01*
X0033095Y0127186D01*
X0033112Y0127239D01*
X0033125Y0127292D01*
X0033134Y0127346D01*
X0033140Y0127401D01*
X0033142Y0127456D01*
X0029939Y0127858D02*
X0029053Y0128342D01*
X0029375Y0129550D02*
X0029440Y0129548D01*
X0029504Y0129543D01*
X0029569Y0129534D01*
X0029632Y0129522D01*
X0029695Y0129507D01*
X0029757Y0129488D01*
X0029818Y0129466D01*
X0029877Y0129441D01*
X0029936Y0129412D01*
X0029992Y0129380D01*
X0030047Y0129346D01*
X0030100Y0129308D01*
X0029052Y0128342D02*
X0029012Y0128368D01*
X0028973Y0128397D01*
X0028936Y0128429D01*
X0028902Y0128464D01*
X0028871Y0128501D01*
X0028842Y0128540D01*
X0028816Y0128581D01*
X0028794Y0128624D01*
X0028775Y0128669D01*
X0028759Y0128715D01*
X0028746Y0128761D01*
X0028737Y0128809D01*
X0028732Y0128857D01*
X0028730Y0128906D01*
X0028731Y0128906D02*
X0028733Y0128954D01*
X0028738Y0129002D01*
X0028747Y0129049D01*
X0028760Y0129096D01*
X0028776Y0129141D01*
X0028795Y0129185D01*
X0028817Y0129228D01*
X0028843Y0129269D01*
X0028872Y0129308D01*
X0028903Y0129344D01*
X0028937Y0129378D01*
X0028973Y0129410D01*
X0029012Y0129438D01*
X0029053Y0129464D01*
X0029096Y0129486D01*
X0029140Y0129505D01*
X0029185Y0129521D01*
X0029232Y0129534D01*
X0029279Y0129543D01*
X0029327Y0129548D01*
X0029375Y0129550D01*
X0028651Y0127053D02*
X0028702Y0127003D01*
X0028757Y0126956D01*
X0028813Y0126913D01*
X0028872Y0126872D01*
X0028933Y0126834D01*
X0028996Y0126800D01*
X0029061Y0126769D01*
X0029127Y0126741D01*
X0029194Y0126717D01*
X0029263Y0126697D01*
X0029333Y0126680D01*
X0029403Y0126667D01*
X0029474Y0126658D01*
X0029545Y0126652D01*
X0029617Y0126650D01*
X0029665Y0126652D01*
X0029713Y0126657D01*
X0029760Y0126666D01*
X0029807Y0126679D01*
X0029852Y0126695D01*
X0029896Y0126714D01*
X0029939Y0126736D01*
X0029980Y0126762D01*
X0030019Y0126791D01*
X0030055Y0126822D01*
X0030089Y0126856D01*
X0030120Y0126892D01*
X0030149Y0126931D01*
X0030175Y0126972D01*
X0030197Y0127015D01*
X0030216Y0127059D01*
X0030232Y0127104D01*
X0030245Y0127151D01*
X0030254Y0127198D01*
X0030259Y0127246D01*
X0030261Y0127294D01*
X0030262Y0127294D02*
X0030260Y0127343D01*
X0030255Y0127391D01*
X0030246Y0127439D01*
X0030233Y0127485D01*
X0030217Y0127531D01*
X0030198Y0127576D01*
X0030176Y0127619D01*
X0030150Y0127660D01*
X0030121Y0127699D01*
X0030090Y0127736D01*
X0030056Y0127771D01*
X0030019Y0127803D01*
X0029980Y0127832D01*
X0029940Y0127858D01*
X0029939Y0136650D02*
X0029294Y0136650D01*
X0029246Y0136652D01*
X0029198Y0136657D01*
X0029151Y0136666D01*
X0029104Y0136679D01*
X0029059Y0136695D01*
X0029015Y0136714D01*
X0028972Y0136736D01*
X0028931Y0136762D01*
X0028892Y0136791D01*
X0028856Y0136822D01*
X0028822Y0136856D01*
X0028791Y0136892D01*
X0028762Y0136931D01*
X0028736Y0136972D01*
X0028714Y0137015D01*
X0028695Y0137059D01*
X0028679Y0137104D01*
X0028666Y0137151D01*
X0028657Y0137198D01*
X0028652Y0137246D01*
X0028650Y0137294D01*
X0028650Y0138906D01*
X0028652Y0138957D01*
X0028658Y0139007D01*
X0028668Y0139056D01*
X0028682Y0139105D01*
X0028699Y0139152D01*
X0028720Y0139198D01*
X0028745Y0139242D01*
X0028773Y0139285D01*
X0028804Y0139324D01*
X0028839Y0139361D01*
X0028876Y0139396D01*
X0028915Y0139427D01*
X0028958Y0139455D01*
X0029002Y0139480D01*
X0029048Y0139501D01*
X0029095Y0139518D01*
X0029144Y0139532D01*
X0029193Y0139542D01*
X0029243Y0139548D01*
X0029294Y0139550D01*
X0029939Y0139550D01*
X0031186Y0139550D02*
X0032153Y0137939D01*
X0033119Y0139550D01*
X0033119Y0136650D01*
X0034611Y0136650D02*
X0034611Y0139550D01*
X0035417Y0139550D01*
X0035472Y0139548D01*
X0035527Y0139542D01*
X0035581Y0139533D01*
X0035634Y0139520D01*
X0035687Y0139503D01*
X0035738Y0139483D01*
X0035788Y0139460D01*
X0035836Y0139433D01*
X0035882Y0139402D01*
X0035926Y0139369D01*
X0035967Y0139333D01*
X0036006Y0139294D01*
X0036042Y0139253D01*
X0036075Y0139209D01*
X0036106Y0139163D01*
X0036133Y0139115D01*
X0036156Y0139065D01*
X0036176Y0139014D01*
X0036193Y0138961D01*
X0036206Y0138908D01*
X0036215Y0138854D01*
X0036221Y0138799D01*
X0036223Y0138744D01*
X0036222Y0138744D02*
X0036222Y0137456D01*
X0036223Y0137456D02*
X0036221Y0137401D01*
X0036215Y0137346D01*
X0036206Y0137292D01*
X0036193Y0137239D01*
X0036176Y0137186D01*
X0036156Y0137135D01*
X0036133Y0137085D01*
X0036106Y0137037D01*
X0036075Y0136991D01*
X0036042Y0136947D01*
X0036006Y0136906D01*
X0035967Y0136867D01*
X0035926Y0136831D01*
X0035882Y0136798D01*
X0035836Y0136767D01*
X0035788Y0136740D01*
X0035738Y0136717D01*
X0035687Y0136697D01*
X0035634Y0136680D01*
X0035581Y0136667D01*
X0035527Y0136658D01*
X0035472Y0136652D01*
X0035417Y0136650D01*
X0034611Y0136650D01*
X0031186Y0136650D02*
X0031186Y0139550D01*
X0031530Y0146650D02*
X0032336Y0146650D01*
X0032391Y0146652D01*
X0032446Y0146658D01*
X0032500Y0146667D01*
X0032553Y0146680D01*
X0032606Y0146697D01*
X0032657Y0146717D01*
X0032707Y0146740D01*
X0032755Y0146767D01*
X0032801Y0146798D01*
X0032845Y0146831D01*
X0032886Y0146867D01*
X0032925Y0146906D01*
X0032961Y0146947D01*
X0032994Y0146991D01*
X0033025Y0147037D01*
X0033052Y0147085D01*
X0033075Y0147135D01*
X0033095Y0147186D01*
X0033112Y0147239D01*
X0033125Y0147292D01*
X0033134Y0147346D01*
X0033140Y0147401D01*
X0033142Y0147456D01*
X0033141Y0147456D02*
X0033141Y0148744D01*
X0033142Y0148744D02*
X0033140Y0148799D01*
X0033134Y0148854D01*
X0033125Y0148908D01*
X0033112Y0148961D01*
X0033095Y0149014D01*
X0033075Y0149065D01*
X0033052Y0149115D01*
X0033025Y0149163D01*
X0032994Y0149209D01*
X0032961Y0149253D01*
X0032925Y0149294D01*
X0032886Y0149333D01*
X0032845Y0149369D01*
X0032801Y0149402D01*
X0032755Y0149433D01*
X0032707Y0149460D01*
X0032657Y0149483D01*
X0032606Y0149503D01*
X0032553Y0149520D01*
X0032500Y0149533D01*
X0032446Y0149542D01*
X0032391Y0149548D01*
X0032336Y0149550D01*
X0031530Y0149550D01*
X0031530Y0146650D01*
X0029939Y0147858D02*
X0029053Y0148342D01*
X0029375Y0149550D02*
X0029440Y0149548D01*
X0029504Y0149543D01*
X0029569Y0149534D01*
X0029632Y0149522D01*
X0029695Y0149507D01*
X0029757Y0149488D01*
X0029818Y0149466D01*
X0029877Y0149441D01*
X0029936Y0149412D01*
X0029992Y0149380D01*
X0030047Y0149346D01*
X0030100Y0149308D01*
X0029052Y0148342D02*
X0029012Y0148368D01*
X0028973Y0148397D01*
X0028936Y0148429D01*
X0028902Y0148464D01*
X0028871Y0148501D01*
X0028842Y0148540D01*
X0028816Y0148581D01*
X0028794Y0148624D01*
X0028775Y0148669D01*
X0028759Y0148715D01*
X0028746Y0148761D01*
X0028737Y0148809D01*
X0028732Y0148857D01*
X0028730Y0148906D01*
X0028731Y0148906D02*
X0028733Y0148954D01*
X0028738Y0149002D01*
X0028747Y0149049D01*
X0028760Y0149096D01*
X0028776Y0149141D01*
X0028795Y0149185D01*
X0028817Y0149228D01*
X0028843Y0149269D01*
X0028872Y0149308D01*
X0028903Y0149344D01*
X0028937Y0149378D01*
X0028973Y0149410D01*
X0029012Y0149438D01*
X0029053Y0149464D01*
X0029096Y0149486D01*
X0029140Y0149505D01*
X0029185Y0149521D01*
X0029232Y0149534D01*
X0029279Y0149543D01*
X0029327Y0149548D01*
X0029375Y0149550D01*
X0028651Y0147053D02*
X0028702Y0147003D01*
X0028757Y0146956D01*
X0028813Y0146913D01*
X0028872Y0146872D01*
X0028933Y0146834D01*
X0028996Y0146800D01*
X0029061Y0146769D01*
X0029127Y0146741D01*
X0029194Y0146717D01*
X0029263Y0146697D01*
X0029333Y0146680D01*
X0029403Y0146667D01*
X0029474Y0146658D01*
X0029545Y0146652D01*
X0029617Y0146650D01*
X0029665Y0146652D01*
X0029713Y0146657D01*
X0029760Y0146666D01*
X0029807Y0146679D01*
X0029852Y0146695D01*
X0029896Y0146714D01*
X0029939Y0146736D01*
X0029980Y0146762D01*
X0030019Y0146791D01*
X0030055Y0146822D01*
X0030089Y0146856D01*
X0030120Y0146892D01*
X0030149Y0146931D01*
X0030175Y0146972D01*
X0030197Y0147015D01*
X0030216Y0147059D01*
X0030232Y0147104D01*
X0030245Y0147151D01*
X0030254Y0147198D01*
X0030259Y0147246D01*
X0030261Y0147294D01*
X0030262Y0147294D02*
X0030260Y0147343D01*
X0030255Y0147391D01*
X0030246Y0147439D01*
X0030233Y0147485D01*
X0030217Y0147531D01*
X0030198Y0147576D01*
X0030176Y0147619D01*
X0030150Y0147660D01*
X0030121Y0147699D01*
X0030090Y0147736D01*
X0030056Y0147771D01*
X0030019Y0147803D01*
X0029980Y0147832D01*
X0029940Y0147858D01*
X0034506Y0148906D02*
X0035312Y0149550D01*
X0035312Y0146650D01*
X0036117Y0146650D02*
X0034506Y0146650D01*
X0034506Y0156650D02*
X0036117Y0156650D01*
X0034506Y0156650D02*
X0035875Y0158261D01*
X0035392Y0159550D02*
X0035333Y0159548D01*
X0035275Y0159543D01*
X0035217Y0159533D01*
X0035160Y0159521D01*
X0035104Y0159504D01*
X0035049Y0159485D01*
X0034995Y0159461D01*
X0034943Y0159435D01*
X0034893Y0159405D01*
X0034844Y0159372D01*
X0034798Y0159336D01*
X0034754Y0159297D01*
X0034713Y0159256D01*
X0034674Y0159212D01*
X0034638Y0159166D01*
X0034606Y0159117D01*
X0034576Y0159067D01*
X0034549Y0159015D01*
X0034526Y0158961D01*
X0034506Y0158906D01*
X0035875Y0158261D02*
X0035912Y0158298D01*
X0035946Y0158338D01*
X0035978Y0158380D01*
X0036006Y0158425D01*
X0036032Y0158471D01*
X0036054Y0158518D01*
X0036073Y0158567D01*
X0036089Y0158617D01*
X0036101Y0158668D01*
X0036110Y0158720D01*
X0036115Y0158772D01*
X0036117Y0158825D01*
X0036115Y0158877D01*
X0036110Y0158928D01*
X0036100Y0158979D01*
X0036088Y0159029D01*
X0036071Y0159078D01*
X0036051Y0159126D01*
X0036028Y0159172D01*
X0036002Y0159217D01*
X0035972Y0159259D01*
X0035940Y0159300D01*
X0035905Y0159338D01*
X0035867Y0159373D01*
X0035826Y0159405D01*
X0035784Y0159435D01*
X0035739Y0159461D01*
X0035693Y0159484D01*
X0035645Y0159504D01*
X0035596Y0159521D01*
X0035546Y0159533D01*
X0035495Y0159543D01*
X0035444Y0159548D01*
X0035392Y0159550D01*
X0033141Y0158744D02*
X0033141Y0157456D01*
X0033142Y0157456D02*
X0033140Y0157401D01*
X0033134Y0157346D01*
X0033125Y0157292D01*
X0033112Y0157239D01*
X0033095Y0157186D01*
X0033075Y0157135D01*
X0033052Y0157085D01*
X0033025Y0157037D01*
X0032994Y0156991D01*
X0032961Y0156947D01*
X0032925Y0156906D01*
X0032886Y0156867D01*
X0032845Y0156831D01*
X0032801Y0156798D01*
X0032755Y0156767D01*
X0032707Y0156740D01*
X0032657Y0156717D01*
X0032606Y0156697D01*
X0032553Y0156680D01*
X0032500Y0156667D01*
X0032446Y0156658D01*
X0032391Y0156652D01*
X0032336Y0156650D01*
X0031530Y0156650D01*
X0031530Y0159550D01*
X0032336Y0159550D01*
X0032391Y0159548D01*
X0032446Y0159542D01*
X0032500Y0159533D01*
X0032553Y0159520D01*
X0032606Y0159503D01*
X0032657Y0159483D01*
X0032707Y0159460D01*
X0032755Y0159433D01*
X0032801Y0159402D01*
X0032845Y0159369D01*
X0032886Y0159333D01*
X0032925Y0159294D01*
X0032961Y0159253D01*
X0032994Y0159209D01*
X0033025Y0159163D01*
X0033052Y0159115D01*
X0033075Y0159065D01*
X0033095Y0159014D01*
X0033112Y0158961D01*
X0033125Y0158908D01*
X0033134Y0158854D01*
X0033140Y0158799D01*
X0033142Y0158744D01*
X0029939Y0157858D02*
X0029053Y0158342D01*
X0029375Y0159550D02*
X0029440Y0159548D01*
X0029504Y0159543D01*
X0029569Y0159534D01*
X0029632Y0159522D01*
X0029695Y0159507D01*
X0029757Y0159488D01*
X0029818Y0159466D01*
X0029877Y0159441D01*
X0029936Y0159412D01*
X0029992Y0159380D01*
X0030047Y0159346D01*
X0030100Y0159308D01*
X0029052Y0158342D02*
X0029012Y0158368D01*
X0028973Y0158397D01*
X0028936Y0158429D01*
X0028902Y0158464D01*
X0028871Y0158501D01*
X0028842Y0158540D01*
X0028816Y0158581D01*
X0028794Y0158624D01*
X0028775Y0158669D01*
X0028759Y0158715D01*
X0028746Y0158761D01*
X0028737Y0158809D01*
X0028732Y0158857D01*
X0028730Y0158906D01*
X0028731Y0158906D02*
X0028733Y0158954D01*
X0028738Y0159002D01*
X0028747Y0159049D01*
X0028760Y0159096D01*
X0028776Y0159141D01*
X0028795Y0159185D01*
X0028817Y0159228D01*
X0028843Y0159269D01*
X0028872Y0159308D01*
X0028903Y0159344D01*
X0028937Y0159378D01*
X0028973Y0159410D01*
X0029012Y0159438D01*
X0029053Y0159464D01*
X0029096Y0159486D01*
X0029140Y0159505D01*
X0029185Y0159521D01*
X0029232Y0159534D01*
X0029279Y0159543D01*
X0029327Y0159548D01*
X0029375Y0159550D01*
X0028651Y0157053D02*
X0028702Y0157003D01*
X0028757Y0156956D01*
X0028813Y0156913D01*
X0028872Y0156872D01*
X0028933Y0156834D01*
X0028996Y0156800D01*
X0029061Y0156769D01*
X0029127Y0156741D01*
X0029194Y0156717D01*
X0029263Y0156697D01*
X0029333Y0156680D01*
X0029403Y0156667D01*
X0029474Y0156658D01*
X0029545Y0156652D01*
X0029617Y0156650D01*
X0029665Y0156652D01*
X0029713Y0156657D01*
X0029760Y0156666D01*
X0029807Y0156679D01*
X0029852Y0156695D01*
X0029896Y0156714D01*
X0029939Y0156736D01*
X0029980Y0156762D01*
X0030019Y0156791D01*
X0030055Y0156822D01*
X0030089Y0156856D01*
X0030120Y0156892D01*
X0030149Y0156931D01*
X0030175Y0156972D01*
X0030197Y0157015D01*
X0030216Y0157059D01*
X0030232Y0157104D01*
X0030245Y0157151D01*
X0030254Y0157198D01*
X0030259Y0157246D01*
X0030261Y0157294D01*
X0030262Y0157294D02*
X0030260Y0157343D01*
X0030255Y0157391D01*
X0030246Y0157439D01*
X0030233Y0157485D01*
X0030217Y0157531D01*
X0030198Y0157576D01*
X0030176Y0157619D01*
X0030150Y0157660D01*
X0030121Y0157699D01*
X0030090Y0157736D01*
X0030056Y0157771D01*
X0030019Y0157803D01*
X0029980Y0157832D01*
X0029940Y0157858D01*
X0031530Y0166650D02*
X0032336Y0166650D01*
X0032391Y0166652D01*
X0032446Y0166658D01*
X0032500Y0166667D01*
X0032553Y0166680D01*
X0032606Y0166697D01*
X0032657Y0166717D01*
X0032707Y0166740D01*
X0032755Y0166767D01*
X0032801Y0166798D01*
X0032845Y0166831D01*
X0032886Y0166867D01*
X0032925Y0166906D01*
X0032961Y0166947D01*
X0032994Y0166991D01*
X0033025Y0167037D01*
X0033052Y0167085D01*
X0033075Y0167135D01*
X0033095Y0167186D01*
X0033112Y0167239D01*
X0033125Y0167292D01*
X0033134Y0167346D01*
X0033140Y0167401D01*
X0033142Y0167456D01*
X0033141Y0167456D02*
X0033141Y0168744D01*
X0033142Y0168744D02*
X0033140Y0168799D01*
X0033134Y0168854D01*
X0033125Y0168908D01*
X0033112Y0168961D01*
X0033095Y0169014D01*
X0033075Y0169065D01*
X0033052Y0169115D01*
X0033025Y0169163D01*
X0032994Y0169209D01*
X0032961Y0169253D01*
X0032925Y0169294D01*
X0032886Y0169333D01*
X0032845Y0169369D01*
X0032801Y0169402D01*
X0032755Y0169433D01*
X0032707Y0169460D01*
X0032657Y0169483D01*
X0032606Y0169503D01*
X0032553Y0169520D01*
X0032500Y0169533D01*
X0032446Y0169542D01*
X0032391Y0169548D01*
X0032336Y0169550D01*
X0031530Y0169550D01*
X0031530Y0166650D01*
X0029939Y0167858D02*
X0029053Y0168342D01*
X0029375Y0169550D02*
X0029440Y0169548D01*
X0029504Y0169543D01*
X0029569Y0169534D01*
X0029632Y0169522D01*
X0029695Y0169507D01*
X0029757Y0169488D01*
X0029818Y0169466D01*
X0029877Y0169441D01*
X0029936Y0169412D01*
X0029992Y0169380D01*
X0030047Y0169346D01*
X0030100Y0169308D01*
X0029052Y0168342D02*
X0029012Y0168368D01*
X0028973Y0168397D01*
X0028936Y0168429D01*
X0028902Y0168464D01*
X0028871Y0168501D01*
X0028842Y0168540D01*
X0028816Y0168581D01*
X0028794Y0168624D01*
X0028775Y0168669D01*
X0028759Y0168715D01*
X0028746Y0168761D01*
X0028737Y0168809D01*
X0028732Y0168857D01*
X0028730Y0168906D01*
X0028731Y0168906D02*
X0028733Y0168954D01*
X0028738Y0169002D01*
X0028747Y0169049D01*
X0028760Y0169096D01*
X0028776Y0169141D01*
X0028795Y0169185D01*
X0028817Y0169228D01*
X0028843Y0169269D01*
X0028872Y0169308D01*
X0028903Y0169344D01*
X0028937Y0169378D01*
X0028973Y0169410D01*
X0029012Y0169438D01*
X0029053Y0169464D01*
X0029096Y0169486D01*
X0029140Y0169505D01*
X0029185Y0169521D01*
X0029232Y0169534D01*
X0029279Y0169543D01*
X0029327Y0169548D01*
X0029375Y0169550D01*
X0028651Y0167053D02*
X0028702Y0167003D01*
X0028757Y0166956D01*
X0028813Y0166913D01*
X0028872Y0166872D01*
X0028933Y0166834D01*
X0028996Y0166800D01*
X0029061Y0166769D01*
X0029127Y0166741D01*
X0029194Y0166717D01*
X0029263Y0166697D01*
X0029333Y0166680D01*
X0029403Y0166667D01*
X0029474Y0166658D01*
X0029545Y0166652D01*
X0029617Y0166650D01*
X0029665Y0166652D01*
X0029713Y0166657D01*
X0029760Y0166666D01*
X0029807Y0166679D01*
X0029852Y0166695D01*
X0029896Y0166714D01*
X0029939Y0166736D01*
X0029980Y0166762D01*
X0030019Y0166791D01*
X0030055Y0166822D01*
X0030089Y0166856D01*
X0030120Y0166892D01*
X0030149Y0166931D01*
X0030175Y0166972D01*
X0030197Y0167015D01*
X0030216Y0167059D01*
X0030232Y0167104D01*
X0030245Y0167151D01*
X0030254Y0167198D01*
X0030259Y0167246D01*
X0030261Y0167294D01*
X0030262Y0167294D02*
X0030260Y0167343D01*
X0030255Y0167391D01*
X0030246Y0167439D01*
X0030233Y0167485D01*
X0030217Y0167531D01*
X0030198Y0167576D01*
X0030176Y0167619D01*
X0030150Y0167660D01*
X0030121Y0167699D01*
X0030090Y0167736D01*
X0030056Y0167771D01*
X0030019Y0167803D01*
X0029980Y0167832D01*
X0029940Y0167858D01*
X0030261Y0176650D02*
X0029617Y0177939D01*
X0029456Y0177939D02*
X0028650Y0177939D01*
X0029456Y0177938D02*
X0029511Y0177940D01*
X0029566Y0177946D01*
X0029620Y0177955D01*
X0029673Y0177968D01*
X0029726Y0177985D01*
X0029777Y0178005D01*
X0029827Y0178028D01*
X0029875Y0178055D01*
X0029921Y0178086D01*
X0029965Y0178119D01*
X0030006Y0178155D01*
X0030045Y0178194D01*
X0030081Y0178235D01*
X0030114Y0178279D01*
X0030145Y0178325D01*
X0030172Y0178373D01*
X0030195Y0178423D01*
X0030215Y0178474D01*
X0030232Y0178527D01*
X0030245Y0178580D01*
X0030254Y0178634D01*
X0030260Y0178689D01*
X0030262Y0178744D01*
X0030260Y0178799D01*
X0030254Y0178854D01*
X0030245Y0178908D01*
X0030232Y0178961D01*
X0030215Y0179014D01*
X0030195Y0179065D01*
X0030172Y0179115D01*
X0030145Y0179163D01*
X0030114Y0179209D01*
X0030081Y0179253D01*
X0030045Y0179294D01*
X0030006Y0179333D01*
X0029965Y0179369D01*
X0029921Y0179402D01*
X0029875Y0179433D01*
X0029827Y0179460D01*
X0029777Y0179483D01*
X0029726Y0179503D01*
X0029673Y0179520D01*
X0029620Y0179533D01*
X0029566Y0179542D01*
X0029511Y0179548D01*
X0029456Y0179550D01*
X0028650Y0179550D01*
X0028650Y0176650D01*
X0031817Y0178342D02*
X0032703Y0177858D01*
X0032381Y0176650D02*
X0032309Y0176652D01*
X0032238Y0176658D01*
X0032167Y0176667D01*
X0032097Y0176680D01*
X0032027Y0176697D01*
X0031958Y0176717D01*
X0031891Y0176741D01*
X0031825Y0176769D01*
X0031760Y0176800D01*
X0031697Y0176834D01*
X0031636Y0176872D01*
X0031577Y0176913D01*
X0031521Y0176956D01*
X0031466Y0177003D01*
X0031415Y0177053D01*
X0032703Y0177858D02*
X0032743Y0177832D01*
X0032782Y0177803D01*
X0032819Y0177771D01*
X0032853Y0177736D01*
X0032884Y0177699D01*
X0032913Y0177660D01*
X0032939Y0177619D01*
X0032961Y0177576D01*
X0032980Y0177531D01*
X0032996Y0177485D01*
X0033009Y0177439D01*
X0033018Y0177391D01*
X0033023Y0177343D01*
X0033025Y0177294D01*
X0033023Y0177246D01*
X0033018Y0177198D01*
X0033009Y0177151D01*
X0032996Y0177104D01*
X0032980Y0177059D01*
X0032961Y0177015D01*
X0032939Y0176972D01*
X0032913Y0176931D01*
X0032884Y0176892D01*
X0032853Y0176856D01*
X0032819Y0176822D01*
X0032783Y0176791D01*
X0032744Y0176762D01*
X0032703Y0176736D01*
X0032660Y0176714D01*
X0032616Y0176695D01*
X0032571Y0176679D01*
X0032524Y0176666D01*
X0032477Y0176657D01*
X0032429Y0176652D01*
X0032381Y0176650D01*
X0032864Y0179308D02*
X0032811Y0179346D01*
X0032756Y0179380D01*
X0032700Y0179412D01*
X0032641Y0179441D01*
X0032582Y0179466D01*
X0032521Y0179488D01*
X0032459Y0179507D01*
X0032396Y0179522D01*
X0032333Y0179534D01*
X0032268Y0179543D01*
X0032204Y0179548D01*
X0032139Y0179550D01*
X0032091Y0179548D01*
X0032043Y0179543D01*
X0031996Y0179534D01*
X0031949Y0179521D01*
X0031904Y0179505D01*
X0031860Y0179486D01*
X0031817Y0179464D01*
X0031776Y0179438D01*
X0031737Y0179410D01*
X0031701Y0179378D01*
X0031667Y0179344D01*
X0031636Y0179308D01*
X0031607Y0179269D01*
X0031581Y0179228D01*
X0031559Y0179185D01*
X0031540Y0179141D01*
X0031524Y0179096D01*
X0031511Y0179049D01*
X0031502Y0179002D01*
X0031497Y0178954D01*
X0031495Y0178906D01*
X0031494Y0178906D02*
X0031496Y0178857D01*
X0031501Y0178809D01*
X0031510Y0178761D01*
X0031523Y0178715D01*
X0031539Y0178669D01*
X0031558Y0178624D01*
X0031580Y0178581D01*
X0031606Y0178540D01*
X0031635Y0178501D01*
X0031666Y0178464D01*
X0031700Y0178429D01*
X0031737Y0178397D01*
X0031776Y0178368D01*
X0031816Y0178342D01*
X0034037Y0179550D02*
X0035003Y0176650D01*
X0035970Y0179550D01*
X0035003Y0186650D02*
X0035970Y0189550D01*
X0034037Y0189550D02*
X0035003Y0186650D01*
X0032703Y0187858D02*
X0031817Y0188342D01*
X0032139Y0189550D02*
X0032204Y0189548D01*
X0032268Y0189543D01*
X0032333Y0189534D01*
X0032396Y0189522D01*
X0032459Y0189507D01*
X0032521Y0189488D01*
X0032582Y0189466D01*
X0032641Y0189441D01*
X0032700Y0189412D01*
X0032756Y0189380D01*
X0032811Y0189346D01*
X0032864Y0189308D01*
X0031816Y0188342D02*
X0031776Y0188368D01*
X0031737Y0188397D01*
X0031700Y0188429D01*
X0031666Y0188464D01*
X0031635Y0188501D01*
X0031606Y0188540D01*
X0031580Y0188581D01*
X0031558Y0188624D01*
X0031539Y0188669D01*
X0031523Y0188715D01*
X0031510Y0188761D01*
X0031501Y0188809D01*
X0031496Y0188857D01*
X0031494Y0188906D01*
X0031495Y0188906D02*
X0031497Y0188954D01*
X0031502Y0189002D01*
X0031511Y0189049D01*
X0031524Y0189096D01*
X0031540Y0189141D01*
X0031559Y0189185D01*
X0031581Y0189228D01*
X0031607Y0189269D01*
X0031636Y0189308D01*
X0031667Y0189344D01*
X0031701Y0189378D01*
X0031737Y0189410D01*
X0031776Y0189438D01*
X0031817Y0189464D01*
X0031860Y0189486D01*
X0031904Y0189505D01*
X0031949Y0189521D01*
X0031996Y0189534D01*
X0032043Y0189543D01*
X0032091Y0189548D01*
X0032139Y0189550D01*
X0031415Y0187053D02*
X0031466Y0187003D01*
X0031521Y0186956D01*
X0031577Y0186913D01*
X0031636Y0186872D01*
X0031697Y0186834D01*
X0031760Y0186800D01*
X0031825Y0186769D01*
X0031891Y0186741D01*
X0031958Y0186717D01*
X0032027Y0186697D01*
X0032097Y0186680D01*
X0032167Y0186667D01*
X0032238Y0186658D01*
X0032309Y0186652D01*
X0032381Y0186650D01*
X0032429Y0186652D01*
X0032477Y0186657D01*
X0032524Y0186666D01*
X0032571Y0186679D01*
X0032616Y0186695D01*
X0032660Y0186714D01*
X0032703Y0186736D01*
X0032744Y0186762D01*
X0032783Y0186791D01*
X0032819Y0186822D01*
X0032853Y0186856D01*
X0032884Y0186892D01*
X0032913Y0186931D01*
X0032939Y0186972D01*
X0032961Y0187015D01*
X0032980Y0187059D01*
X0032996Y0187104D01*
X0033009Y0187151D01*
X0033018Y0187198D01*
X0033023Y0187246D01*
X0033025Y0187294D01*
X0033023Y0187343D01*
X0033018Y0187391D01*
X0033009Y0187439D01*
X0032996Y0187485D01*
X0032980Y0187531D01*
X0032961Y0187576D01*
X0032939Y0187619D01*
X0032913Y0187660D01*
X0032884Y0187699D01*
X0032853Y0187736D01*
X0032819Y0187771D01*
X0032782Y0187803D01*
X0032743Y0187832D01*
X0032703Y0187858D01*
X0030261Y0186650D02*
X0029617Y0187939D01*
X0029456Y0187939D02*
X0028650Y0187939D01*
X0029456Y0187938D02*
X0029511Y0187940D01*
X0029566Y0187946D01*
X0029620Y0187955D01*
X0029673Y0187968D01*
X0029726Y0187985D01*
X0029777Y0188005D01*
X0029827Y0188028D01*
X0029875Y0188055D01*
X0029921Y0188086D01*
X0029965Y0188119D01*
X0030006Y0188155D01*
X0030045Y0188194D01*
X0030081Y0188235D01*
X0030114Y0188279D01*
X0030145Y0188325D01*
X0030172Y0188373D01*
X0030195Y0188423D01*
X0030215Y0188474D01*
X0030232Y0188527D01*
X0030245Y0188580D01*
X0030254Y0188634D01*
X0030260Y0188689D01*
X0030262Y0188744D01*
X0030260Y0188799D01*
X0030254Y0188854D01*
X0030245Y0188908D01*
X0030232Y0188961D01*
X0030215Y0189014D01*
X0030195Y0189065D01*
X0030172Y0189115D01*
X0030145Y0189163D01*
X0030114Y0189209D01*
X0030081Y0189253D01*
X0030045Y0189294D01*
X0030006Y0189333D01*
X0029965Y0189369D01*
X0029921Y0189402D01*
X0029875Y0189433D01*
X0029827Y0189460D01*
X0029777Y0189483D01*
X0029726Y0189503D01*
X0029673Y0189520D01*
X0029620Y0189533D01*
X0029566Y0189542D01*
X0029511Y0189548D01*
X0029456Y0189550D01*
X0028650Y0189550D01*
X0028650Y0186650D01*
X0028650Y0196650D02*
X0029617Y0199550D01*
X0030583Y0196650D01*
X0030342Y0197375D02*
X0028892Y0197375D01*
X0031787Y0196650D02*
X0032593Y0196650D01*
X0032648Y0196652D01*
X0032703Y0196658D01*
X0032757Y0196667D01*
X0032810Y0196680D01*
X0032863Y0196697D01*
X0032914Y0196717D01*
X0032964Y0196740D01*
X0033012Y0196767D01*
X0033058Y0196798D01*
X0033102Y0196831D01*
X0033143Y0196867D01*
X0033182Y0196906D01*
X0033218Y0196947D01*
X0033251Y0196991D01*
X0033282Y0197037D01*
X0033309Y0197085D01*
X0033332Y0197135D01*
X0033352Y0197186D01*
X0033369Y0197239D01*
X0033382Y0197292D01*
X0033391Y0197346D01*
X0033397Y0197401D01*
X0033399Y0197456D01*
X0033398Y0197456D02*
X0033398Y0198744D01*
X0033399Y0198744D02*
X0033397Y0198799D01*
X0033391Y0198854D01*
X0033382Y0198908D01*
X0033369Y0198961D01*
X0033352Y0199014D01*
X0033332Y0199065D01*
X0033309Y0199115D01*
X0033282Y0199163D01*
X0033251Y0199209D01*
X0033218Y0199253D01*
X0033182Y0199294D01*
X0033143Y0199333D01*
X0033102Y0199369D01*
X0033058Y0199402D01*
X0033012Y0199433D01*
X0032964Y0199460D01*
X0032914Y0199483D01*
X0032863Y0199503D01*
X0032810Y0199520D01*
X0032757Y0199533D01*
X0032703Y0199542D01*
X0032648Y0199548D01*
X0032593Y0199550D01*
X0031787Y0199550D01*
X0031787Y0196650D01*
X0036132Y0197053D02*
X0036170Y0197135D01*
X0036205Y0197218D01*
X0036237Y0197303D01*
X0036266Y0197388D01*
X0036291Y0197475D01*
X0036313Y0197563D01*
X0036331Y0197651D01*
X0036347Y0197740D01*
X0036359Y0197830D01*
X0036367Y0197919D01*
X0036372Y0198010D01*
X0036374Y0198100D01*
X0034763Y0198100D02*
X0034765Y0198190D01*
X0034770Y0198281D01*
X0034778Y0198370D01*
X0034790Y0198460D01*
X0034806Y0198549D01*
X0034824Y0198637D01*
X0034846Y0198725D01*
X0034871Y0198812D01*
X0034900Y0198897D01*
X0034932Y0198982D01*
X0034967Y0199065D01*
X0035005Y0199147D01*
X0035569Y0199550D02*
X0035615Y0199548D01*
X0035661Y0199543D01*
X0035706Y0199534D01*
X0035751Y0199522D01*
X0035794Y0199506D01*
X0035836Y0199487D01*
X0035877Y0199464D01*
X0035915Y0199439D01*
X0035952Y0199411D01*
X0035986Y0199380D01*
X0036018Y0199346D01*
X0036047Y0199310D01*
X0036073Y0199272D01*
X0036096Y0199232D01*
X0036116Y0199190D01*
X0036133Y0199147D01*
X0036213Y0198906D02*
X0034924Y0197294D01*
X0035569Y0196650D02*
X0035615Y0196652D01*
X0035661Y0196657D01*
X0035706Y0196666D01*
X0035751Y0196678D01*
X0035794Y0196694D01*
X0035836Y0196713D01*
X0035877Y0196736D01*
X0035915Y0196761D01*
X0035952Y0196789D01*
X0035986Y0196820D01*
X0036018Y0196854D01*
X0036047Y0196890D01*
X0036073Y0196928D01*
X0036096Y0196968D01*
X0036116Y0197010D01*
X0036133Y0197053D01*
X0035569Y0196650D02*
X0035523Y0196652D01*
X0035477Y0196657D01*
X0035432Y0196666D01*
X0035387Y0196678D01*
X0035344Y0196694D01*
X0035302Y0196713D01*
X0035261Y0196736D01*
X0035223Y0196761D01*
X0035186Y0196789D01*
X0035152Y0196820D01*
X0035120Y0196854D01*
X0035091Y0196890D01*
X0035065Y0196928D01*
X0035042Y0196968D01*
X0035022Y0197010D01*
X0035005Y0197053D01*
X0036374Y0198100D02*
X0036372Y0198190D01*
X0036367Y0198281D01*
X0036359Y0198370D01*
X0036347Y0198460D01*
X0036331Y0198549D01*
X0036313Y0198637D01*
X0036291Y0198725D01*
X0036266Y0198812D01*
X0036237Y0198897D01*
X0036205Y0198982D01*
X0036170Y0199065D01*
X0036132Y0199147D01*
X0035569Y0199550D02*
X0035523Y0199548D01*
X0035477Y0199543D01*
X0035432Y0199534D01*
X0035387Y0199522D01*
X0035344Y0199506D01*
X0035302Y0199487D01*
X0035261Y0199464D01*
X0035223Y0199439D01*
X0035186Y0199411D01*
X0035152Y0199380D01*
X0035120Y0199346D01*
X0035091Y0199310D01*
X0035065Y0199272D01*
X0035042Y0199232D01*
X0035022Y0199190D01*
X0035005Y0199147D01*
X0034763Y0198100D02*
X0034765Y0198010D01*
X0034770Y0197919D01*
X0034778Y0197830D01*
X0034790Y0197740D01*
X0034806Y0197651D01*
X0034824Y0197563D01*
X0034846Y0197475D01*
X0034871Y0197388D01*
X0034900Y0197303D01*
X0034932Y0197218D01*
X0034967Y0197135D01*
X0035005Y0197053D01*
X0035473Y0169550D02*
X0034506Y0169550D01*
X0035473Y0169550D02*
X0035522Y0169548D01*
X0035571Y0169542D01*
X0035620Y0169533D01*
X0035667Y0169520D01*
X0035714Y0169503D01*
X0035759Y0169483D01*
X0035802Y0169460D01*
X0035844Y0169433D01*
X0035883Y0169403D01*
X0035920Y0169370D01*
X0035954Y0169334D01*
X0035985Y0169296D01*
X0036014Y0169256D01*
X0036039Y0169214D01*
X0036061Y0169169D01*
X0036079Y0169124D01*
X0036094Y0169077D01*
X0036105Y0169029D01*
X0036113Y0168980D01*
X0036117Y0168931D01*
X0036117Y0168881D01*
X0036113Y0168832D01*
X0036105Y0168783D01*
X0036094Y0168735D01*
X0036079Y0168688D01*
X0036061Y0168643D01*
X0036039Y0168598D01*
X0036014Y0168556D01*
X0035985Y0168516D01*
X0035954Y0168478D01*
X0035920Y0168442D01*
X0035883Y0168409D01*
X0035844Y0168379D01*
X0035802Y0168352D01*
X0035759Y0168329D01*
X0035714Y0168309D01*
X0035667Y0168292D01*
X0035620Y0168279D01*
X0035571Y0168270D01*
X0035522Y0168264D01*
X0035473Y0168262D01*
X0035473Y0168261D02*
X0034828Y0168261D01*
X0035312Y0168262D02*
X0035367Y0168260D01*
X0035422Y0168254D01*
X0035476Y0168245D01*
X0035529Y0168232D01*
X0035582Y0168215D01*
X0035633Y0168195D01*
X0035683Y0168172D01*
X0035731Y0168145D01*
X0035777Y0168114D01*
X0035821Y0168081D01*
X0035862Y0168045D01*
X0035901Y0168006D01*
X0035937Y0167965D01*
X0035970Y0167921D01*
X0036001Y0167875D01*
X0036028Y0167827D01*
X0036051Y0167777D01*
X0036071Y0167726D01*
X0036088Y0167673D01*
X0036101Y0167620D01*
X0036110Y0167566D01*
X0036116Y0167511D01*
X0036118Y0167456D01*
X0036116Y0167401D01*
X0036110Y0167346D01*
X0036101Y0167292D01*
X0036088Y0167239D01*
X0036071Y0167186D01*
X0036051Y0167135D01*
X0036028Y0167085D01*
X0036001Y0167037D01*
X0035970Y0166991D01*
X0035937Y0166947D01*
X0035901Y0166906D01*
X0035862Y0166867D01*
X0035821Y0166831D01*
X0035777Y0166798D01*
X0035731Y0166767D01*
X0035683Y0166740D01*
X0035633Y0166717D01*
X0035582Y0166697D01*
X0035529Y0166680D01*
X0035476Y0166667D01*
X0035422Y0166658D01*
X0035367Y0166652D01*
X0035312Y0166650D01*
X0034506Y0166650D01*
X0035309Y0119550D02*
X0033697Y0117778D01*
X0034342Y0118422D02*
X0035309Y0116650D01*
X0033697Y0116650D02*
X0033697Y0119550D01*
X0031161Y0119550D02*
X0031161Y0116650D01*
X0032450Y0116650D01*
X0029939Y0116650D02*
X0029294Y0116650D01*
X0029246Y0116652D01*
X0029198Y0116657D01*
X0029151Y0116666D01*
X0029104Y0116679D01*
X0029059Y0116695D01*
X0029015Y0116714D01*
X0028972Y0116736D01*
X0028931Y0116762D01*
X0028892Y0116791D01*
X0028856Y0116822D01*
X0028822Y0116856D01*
X0028791Y0116892D01*
X0028762Y0116931D01*
X0028736Y0116972D01*
X0028714Y0117015D01*
X0028695Y0117059D01*
X0028679Y0117104D01*
X0028666Y0117151D01*
X0028657Y0117198D01*
X0028652Y0117246D01*
X0028650Y0117294D01*
X0028650Y0118906D01*
X0028652Y0118957D01*
X0028658Y0119007D01*
X0028668Y0119056D01*
X0028682Y0119105D01*
X0028699Y0119152D01*
X0028720Y0119198D01*
X0028745Y0119242D01*
X0028773Y0119285D01*
X0028804Y0119324D01*
X0028839Y0119361D01*
X0028876Y0119396D01*
X0028915Y0119427D01*
X0028958Y0119455D01*
X0029002Y0119480D01*
X0029048Y0119501D01*
X0029095Y0119518D01*
X0029144Y0119532D01*
X0029193Y0119542D01*
X0029243Y0119548D01*
X0029294Y0119550D01*
X0029939Y0119550D01*
X0030261Y0109550D02*
X0029294Y0109550D01*
X0029243Y0109548D01*
X0029193Y0109542D01*
X0029144Y0109532D01*
X0029095Y0109518D01*
X0029048Y0109501D01*
X0029002Y0109480D01*
X0028958Y0109455D01*
X0028915Y0109427D01*
X0028876Y0109396D01*
X0028839Y0109361D01*
X0028804Y0109324D01*
X0028773Y0109285D01*
X0028745Y0109242D01*
X0028720Y0109198D01*
X0028699Y0109152D01*
X0028682Y0109105D01*
X0028668Y0109056D01*
X0028658Y0109007D01*
X0028652Y0108957D01*
X0028650Y0108906D01*
X0028650Y0107294D01*
X0028652Y0107246D01*
X0028657Y0107198D01*
X0028666Y0107151D01*
X0028679Y0107104D01*
X0028695Y0107059D01*
X0028714Y0107015D01*
X0028736Y0106972D01*
X0028762Y0106931D01*
X0028791Y0106892D01*
X0028822Y0106856D01*
X0028856Y0106822D01*
X0028892Y0106791D01*
X0028931Y0106762D01*
X0028972Y0106736D01*
X0029015Y0106714D01*
X0029059Y0106695D01*
X0029104Y0106679D01*
X0029151Y0106666D01*
X0029198Y0106657D01*
X0029246Y0106652D01*
X0029294Y0106650D01*
X0030261Y0106650D01*
X0030261Y0108261D01*
X0029778Y0108261D01*
X0031722Y0109550D02*
X0033333Y0106650D01*
X0033333Y0109550D01*
X0034794Y0109550D02*
X0034794Y0106650D01*
X0035600Y0106650D01*
X0035655Y0106652D01*
X0035710Y0106658D01*
X0035764Y0106667D01*
X0035817Y0106680D01*
X0035870Y0106697D01*
X0035921Y0106717D01*
X0035971Y0106740D01*
X0036019Y0106767D01*
X0036065Y0106798D01*
X0036109Y0106831D01*
X0036150Y0106867D01*
X0036189Y0106906D01*
X0036225Y0106947D01*
X0036258Y0106991D01*
X0036289Y0107037D01*
X0036316Y0107085D01*
X0036339Y0107135D01*
X0036359Y0107186D01*
X0036376Y0107239D01*
X0036389Y0107292D01*
X0036398Y0107346D01*
X0036404Y0107401D01*
X0036406Y0107456D01*
X0036405Y0107456D02*
X0036405Y0108744D01*
X0036406Y0108744D02*
X0036404Y0108799D01*
X0036398Y0108854D01*
X0036389Y0108908D01*
X0036376Y0108961D01*
X0036359Y0109014D01*
X0036339Y0109065D01*
X0036316Y0109115D01*
X0036289Y0109163D01*
X0036258Y0109209D01*
X0036225Y0109253D01*
X0036189Y0109294D01*
X0036150Y0109333D01*
X0036109Y0109369D01*
X0036065Y0109402D01*
X0036019Y0109433D01*
X0035971Y0109460D01*
X0035921Y0109483D01*
X0035870Y0109503D01*
X0035817Y0109520D01*
X0035764Y0109533D01*
X0035710Y0109542D01*
X0035655Y0109548D01*
X0035600Y0109550D01*
X0034794Y0109550D01*
X0031722Y0109550D02*
X0031722Y0106650D01*
X0031369Y0099550D02*
X0032336Y0096650D01*
X0033302Y0099550D01*
X0034410Y0099550D02*
X0035377Y0099550D01*
X0035426Y0099548D01*
X0035475Y0099542D01*
X0035524Y0099533D01*
X0035571Y0099520D01*
X0035618Y0099503D01*
X0035663Y0099483D01*
X0035706Y0099460D01*
X0035748Y0099433D01*
X0035787Y0099403D01*
X0035824Y0099370D01*
X0035858Y0099334D01*
X0035889Y0099296D01*
X0035918Y0099256D01*
X0035943Y0099214D01*
X0035965Y0099169D01*
X0035983Y0099124D01*
X0035998Y0099077D01*
X0036009Y0099029D01*
X0036017Y0098980D01*
X0036021Y0098931D01*
X0036021Y0098881D01*
X0036017Y0098832D01*
X0036009Y0098783D01*
X0035998Y0098735D01*
X0035983Y0098688D01*
X0035965Y0098643D01*
X0035943Y0098598D01*
X0035918Y0098556D01*
X0035889Y0098516D01*
X0035858Y0098478D01*
X0035824Y0098442D01*
X0035787Y0098409D01*
X0035748Y0098379D01*
X0035706Y0098352D01*
X0035663Y0098329D01*
X0035618Y0098309D01*
X0035571Y0098292D01*
X0035524Y0098279D01*
X0035475Y0098270D01*
X0035426Y0098264D01*
X0035377Y0098262D01*
X0035377Y0098261D02*
X0034732Y0098261D01*
X0035216Y0098262D02*
X0035271Y0098260D01*
X0035326Y0098254D01*
X0035380Y0098245D01*
X0035433Y0098232D01*
X0035486Y0098215D01*
X0035537Y0098195D01*
X0035587Y0098172D01*
X0035635Y0098145D01*
X0035681Y0098114D01*
X0035725Y0098081D01*
X0035766Y0098045D01*
X0035805Y0098006D01*
X0035841Y0097965D01*
X0035874Y0097921D01*
X0035905Y0097875D01*
X0035932Y0097827D01*
X0035955Y0097777D01*
X0035975Y0097726D01*
X0035992Y0097673D01*
X0036005Y0097620D01*
X0036014Y0097566D01*
X0036020Y0097511D01*
X0036022Y0097456D01*
X0036020Y0097401D01*
X0036014Y0097346D01*
X0036005Y0097292D01*
X0035992Y0097239D01*
X0035975Y0097186D01*
X0035955Y0097135D01*
X0035932Y0097085D01*
X0035905Y0097037D01*
X0035874Y0096991D01*
X0035841Y0096947D01*
X0035805Y0096906D01*
X0035766Y0096867D01*
X0035725Y0096831D01*
X0035681Y0096798D01*
X0035635Y0096767D01*
X0035587Y0096740D01*
X0035537Y0096717D01*
X0035486Y0096697D01*
X0035433Y0096680D01*
X0035380Y0096667D01*
X0035326Y0096658D01*
X0035271Y0096652D01*
X0035216Y0096650D01*
X0034410Y0096650D01*
X0032751Y0089550D02*
X0032751Y0086650D01*
X0031140Y0089550D01*
X0031140Y0086650D01*
X0029939Y0086650D02*
X0028650Y0086650D01*
X0028650Y0089550D01*
X0029939Y0089550D01*
X0029617Y0088261D02*
X0028650Y0088261D01*
X0028650Y0096650D02*
X0029456Y0096650D01*
X0029511Y0096652D01*
X0029566Y0096658D01*
X0029620Y0096667D01*
X0029673Y0096680D01*
X0029726Y0096697D01*
X0029777Y0096717D01*
X0029827Y0096740D01*
X0029875Y0096767D01*
X0029921Y0096798D01*
X0029965Y0096831D01*
X0030006Y0096867D01*
X0030045Y0096906D01*
X0030081Y0096947D01*
X0030114Y0096991D01*
X0030145Y0097037D01*
X0030172Y0097085D01*
X0030195Y0097135D01*
X0030215Y0097186D01*
X0030232Y0097239D01*
X0030245Y0097292D01*
X0030254Y0097346D01*
X0030260Y0097401D01*
X0030262Y0097456D01*
X0030260Y0097511D01*
X0030254Y0097566D01*
X0030245Y0097620D01*
X0030232Y0097673D01*
X0030215Y0097726D01*
X0030195Y0097777D01*
X0030172Y0097827D01*
X0030145Y0097875D01*
X0030114Y0097921D01*
X0030081Y0097965D01*
X0030045Y0098006D01*
X0030006Y0098045D01*
X0029965Y0098081D01*
X0029921Y0098114D01*
X0029875Y0098145D01*
X0029827Y0098172D01*
X0029777Y0098195D01*
X0029726Y0098215D01*
X0029673Y0098232D01*
X0029620Y0098245D01*
X0029566Y0098254D01*
X0029511Y0098260D01*
X0029456Y0098262D01*
X0029617Y0098261D02*
X0028972Y0098261D01*
X0029617Y0098262D02*
X0029666Y0098264D01*
X0029715Y0098270D01*
X0029764Y0098279D01*
X0029811Y0098292D01*
X0029858Y0098309D01*
X0029903Y0098329D01*
X0029946Y0098352D01*
X0029988Y0098379D01*
X0030027Y0098409D01*
X0030064Y0098442D01*
X0030098Y0098478D01*
X0030129Y0098516D01*
X0030158Y0098556D01*
X0030183Y0098598D01*
X0030205Y0098643D01*
X0030223Y0098688D01*
X0030238Y0098735D01*
X0030249Y0098783D01*
X0030257Y0098832D01*
X0030261Y0098881D01*
X0030261Y0098931D01*
X0030257Y0098980D01*
X0030249Y0099029D01*
X0030238Y0099077D01*
X0030223Y0099124D01*
X0030205Y0099169D01*
X0030183Y0099214D01*
X0030158Y0099256D01*
X0030129Y0099296D01*
X0030098Y0099334D01*
X0030064Y0099370D01*
X0030027Y0099403D01*
X0029988Y0099433D01*
X0029946Y0099460D01*
X0029903Y0099483D01*
X0029858Y0099503D01*
X0029811Y0099520D01*
X0029764Y0099533D01*
X0029715Y0099542D01*
X0029666Y0099548D01*
X0029617Y0099550D01*
X0028650Y0099550D01*
X0028650Y0079550D02*
X0029456Y0079550D01*
X0029511Y0079548D01*
X0029566Y0079542D01*
X0029620Y0079533D01*
X0029673Y0079520D01*
X0029726Y0079503D01*
X0029777Y0079483D01*
X0029827Y0079460D01*
X0029875Y0079433D01*
X0029921Y0079402D01*
X0029965Y0079369D01*
X0030006Y0079333D01*
X0030045Y0079294D01*
X0030081Y0079253D01*
X0030114Y0079209D01*
X0030145Y0079163D01*
X0030172Y0079115D01*
X0030195Y0079065D01*
X0030215Y0079014D01*
X0030232Y0078961D01*
X0030245Y0078908D01*
X0030254Y0078854D01*
X0030260Y0078799D01*
X0030262Y0078744D01*
X0030260Y0078689D01*
X0030254Y0078634D01*
X0030245Y0078580D01*
X0030232Y0078527D01*
X0030215Y0078474D01*
X0030195Y0078423D01*
X0030172Y0078373D01*
X0030145Y0078325D01*
X0030114Y0078279D01*
X0030081Y0078235D01*
X0030045Y0078194D01*
X0030006Y0078155D01*
X0029965Y0078119D01*
X0029921Y0078086D01*
X0029875Y0078055D01*
X0029827Y0078028D01*
X0029777Y0078005D01*
X0029726Y0077985D01*
X0029673Y0077968D01*
X0029620Y0077955D01*
X0029566Y0077946D01*
X0029511Y0077940D01*
X0029456Y0077938D01*
X0029456Y0077939D02*
X0028650Y0077939D01*
X0029617Y0077939D02*
X0030261Y0076650D01*
X0028650Y0076650D02*
X0028650Y0079550D01*
X0031817Y0078342D02*
X0032703Y0077858D01*
X0032381Y0076650D02*
X0032309Y0076652D01*
X0032238Y0076658D01*
X0032167Y0076667D01*
X0032097Y0076680D01*
X0032027Y0076697D01*
X0031958Y0076717D01*
X0031891Y0076741D01*
X0031825Y0076769D01*
X0031760Y0076800D01*
X0031697Y0076834D01*
X0031636Y0076872D01*
X0031577Y0076913D01*
X0031521Y0076956D01*
X0031466Y0077003D01*
X0031415Y0077053D01*
X0032703Y0077858D02*
X0032743Y0077832D01*
X0032782Y0077803D01*
X0032819Y0077771D01*
X0032853Y0077736D01*
X0032884Y0077699D01*
X0032913Y0077660D01*
X0032939Y0077619D01*
X0032961Y0077576D01*
X0032980Y0077531D01*
X0032996Y0077485D01*
X0033009Y0077439D01*
X0033018Y0077391D01*
X0033023Y0077343D01*
X0033025Y0077294D01*
X0033023Y0077246D01*
X0033018Y0077198D01*
X0033009Y0077151D01*
X0032996Y0077104D01*
X0032980Y0077059D01*
X0032961Y0077015D01*
X0032939Y0076972D01*
X0032913Y0076931D01*
X0032884Y0076892D01*
X0032853Y0076856D01*
X0032819Y0076822D01*
X0032783Y0076791D01*
X0032744Y0076762D01*
X0032703Y0076736D01*
X0032660Y0076714D01*
X0032616Y0076695D01*
X0032571Y0076679D01*
X0032524Y0076666D01*
X0032477Y0076657D01*
X0032429Y0076652D01*
X0032381Y0076650D01*
X0032864Y0079308D02*
X0032811Y0079346D01*
X0032756Y0079380D01*
X0032700Y0079412D01*
X0032641Y0079441D01*
X0032582Y0079466D01*
X0032521Y0079488D01*
X0032459Y0079507D01*
X0032396Y0079522D01*
X0032333Y0079534D01*
X0032268Y0079543D01*
X0032204Y0079548D01*
X0032139Y0079550D01*
X0032091Y0079548D01*
X0032043Y0079543D01*
X0031996Y0079534D01*
X0031949Y0079521D01*
X0031904Y0079505D01*
X0031860Y0079486D01*
X0031817Y0079464D01*
X0031776Y0079438D01*
X0031737Y0079410D01*
X0031701Y0079378D01*
X0031667Y0079344D01*
X0031636Y0079308D01*
X0031607Y0079269D01*
X0031581Y0079228D01*
X0031559Y0079185D01*
X0031540Y0079141D01*
X0031524Y0079096D01*
X0031511Y0079049D01*
X0031502Y0079002D01*
X0031497Y0078954D01*
X0031495Y0078906D01*
X0031494Y0078906D02*
X0031496Y0078857D01*
X0031501Y0078809D01*
X0031510Y0078761D01*
X0031523Y0078715D01*
X0031539Y0078669D01*
X0031558Y0078624D01*
X0031580Y0078581D01*
X0031606Y0078540D01*
X0031635Y0078501D01*
X0031666Y0078464D01*
X0031700Y0078429D01*
X0031737Y0078397D01*
X0031776Y0078368D01*
X0031816Y0078342D01*
X0034006Y0079550D02*
X0035617Y0079550D01*
X0034811Y0079550D02*
X0034811Y0076650D01*
X0034794Y0069550D02*
X0035600Y0069550D01*
X0035655Y0069548D01*
X0035710Y0069542D01*
X0035764Y0069533D01*
X0035817Y0069520D01*
X0035870Y0069503D01*
X0035921Y0069483D01*
X0035971Y0069460D01*
X0036019Y0069433D01*
X0036065Y0069402D01*
X0036109Y0069369D01*
X0036150Y0069333D01*
X0036189Y0069294D01*
X0036225Y0069253D01*
X0036258Y0069209D01*
X0036289Y0069163D01*
X0036316Y0069115D01*
X0036339Y0069065D01*
X0036359Y0069014D01*
X0036376Y0068961D01*
X0036389Y0068908D01*
X0036398Y0068854D01*
X0036404Y0068799D01*
X0036406Y0068744D01*
X0036405Y0068744D02*
X0036405Y0067456D01*
X0036406Y0067456D02*
X0036404Y0067401D01*
X0036398Y0067346D01*
X0036389Y0067292D01*
X0036376Y0067239D01*
X0036359Y0067186D01*
X0036339Y0067135D01*
X0036316Y0067085D01*
X0036289Y0067037D01*
X0036258Y0066991D01*
X0036225Y0066947D01*
X0036189Y0066906D01*
X0036150Y0066867D01*
X0036109Y0066831D01*
X0036065Y0066798D01*
X0036019Y0066767D01*
X0035971Y0066740D01*
X0035921Y0066717D01*
X0035870Y0066697D01*
X0035817Y0066680D01*
X0035764Y0066667D01*
X0035710Y0066658D01*
X0035655Y0066652D01*
X0035600Y0066650D01*
X0034794Y0066650D01*
X0034794Y0069550D01*
X0033333Y0069550D02*
X0033333Y0066650D01*
X0031722Y0069550D01*
X0031722Y0066650D01*
X0030261Y0066650D02*
X0029294Y0066650D01*
X0029246Y0066652D01*
X0029198Y0066657D01*
X0029151Y0066666D01*
X0029104Y0066679D01*
X0029059Y0066695D01*
X0029015Y0066714D01*
X0028972Y0066736D01*
X0028931Y0066762D01*
X0028892Y0066791D01*
X0028856Y0066822D01*
X0028822Y0066856D01*
X0028791Y0066892D01*
X0028762Y0066931D01*
X0028736Y0066972D01*
X0028714Y0067015D01*
X0028695Y0067059D01*
X0028679Y0067104D01*
X0028666Y0067151D01*
X0028657Y0067198D01*
X0028652Y0067246D01*
X0028650Y0067294D01*
X0028650Y0068906D01*
X0028652Y0068957D01*
X0028658Y0069007D01*
X0028668Y0069056D01*
X0028682Y0069105D01*
X0028699Y0069152D01*
X0028720Y0069198D01*
X0028745Y0069242D01*
X0028773Y0069285D01*
X0028804Y0069324D01*
X0028839Y0069361D01*
X0028876Y0069396D01*
X0028915Y0069427D01*
X0028958Y0069455D01*
X0029002Y0069480D01*
X0029048Y0069501D01*
X0029095Y0069518D01*
X0029144Y0069532D01*
X0029193Y0069542D01*
X0029243Y0069548D01*
X0029294Y0069550D01*
X0030261Y0069550D01*
X0030261Y0068261D02*
X0030261Y0066650D01*
X0030261Y0068261D02*
X0029778Y0068261D01*
X0030583Y0059550D02*
X0029617Y0056650D01*
X0028650Y0059550D01*
X0031598Y0059550D02*
X0032243Y0059550D01*
X0031921Y0059550D02*
X0031921Y0056650D01*
X0032243Y0056650D02*
X0031598Y0056650D01*
X0033515Y0056650D02*
X0033515Y0059550D01*
X0035126Y0056650D01*
X0035126Y0059550D01*
D14*
X0064500Y0126500D02*
X0072500Y0126500D01*
X0068500Y0122500D02*
X0068500Y0130500D01*
X0068500Y0232500D02*
X0068500Y0240500D01*
X0064500Y0236500D02*
X0072500Y0236500D01*
D15*
X0087201Y0237484D02*
X0087201Y0241421D01*
X0087201Y0237484D02*
X0088677Y0237484D01*
X0088677Y0235024D02*
X0087201Y0235024D01*
X0087201Y0232071D01*
X0088185Y0231087D01*
X0087201Y0232071D02*
X0049799Y0232071D01*
X0048815Y0231087D01*
X0049799Y0232071D02*
X0049799Y0235024D01*
X0048323Y0235024D01*
X0048323Y0237484D02*
X0049799Y0237484D01*
X0049799Y0241421D01*
D16*
X0068500Y0241667D03*
M02*
