G75*
%MOIN*%
%OFA0B0*%
%FSLAX25Y25*%
%IPPOS*%
%LPD*%
%AMOC8*
5,1,8,0,0,1.08239X$1,22.5*
%
%ADD10C,0.00700*%
%ADD11C,0.00000*%
D10*
X0044550Y0083120D02*
X0052450Y0083120D01*
X0048061Y0085754D01*
X0052450Y0088387D01*
X0044550Y0088387D01*
X0044550Y0091831D02*
X0052450Y0091831D01*
X0052450Y0096220D02*
X0044550Y0096220D01*
X0047622Y0099420D02*
X0047622Y0104687D01*
X0044550Y0107401D02*
X0044550Y0111790D01*
X0044550Y0114456D02*
X0044550Y0118845D01*
X0044550Y0116651D02*
X0052450Y0116651D01*
X0050694Y0114456D01*
X0052450Y0111790D02*
X0044550Y0107401D01*
X0048939Y0096220D02*
X0048939Y0091831D01*
X0052450Y0107401D02*
X0052450Y0111790D01*
X0050256Y0121755D02*
X0049817Y0121755D01*
X0049736Y0121757D01*
X0049655Y0121762D01*
X0049574Y0121772D01*
X0049494Y0121785D01*
X0049415Y0121802D01*
X0049336Y0121822D01*
X0049259Y0121846D01*
X0049183Y0121874D01*
X0049108Y0121905D01*
X0049034Y0121939D01*
X0048963Y0121977D01*
X0048893Y0122018D01*
X0048825Y0122062D01*
X0048759Y0122110D01*
X0048695Y0122160D01*
X0048634Y0122213D01*
X0048575Y0122269D01*
X0048519Y0122328D01*
X0048466Y0122389D01*
X0048416Y0122453D01*
X0048368Y0122519D01*
X0048324Y0122587D01*
X0048283Y0122657D01*
X0048245Y0122728D01*
X0048211Y0122802D01*
X0048180Y0122877D01*
X0048152Y0122953D01*
X0048128Y0123030D01*
X0048108Y0123109D01*
X0048091Y0123188D01*
X0048078Y0123268D01*
X0048068Y0123349D01*
X0048063Y0123430D01*
X0048061Y0123511D01*
X0048061Y0126144D01*
X0050256Y0126144D01*
X0050256Y0126143D02*
X0050348Y0126141D01*
X0050440Y0126135D01*
X0050531Y0126126D01*
X0050622Y0126112D01*
X0050712Y0126095D01*
X0050802Y0126074D01*
X0050890Y0126049D01*
X0050978Y0126021D01*
X0051064Y0125989D01*
X0051148Y0125953D01*
X0051232Y0125914D01*
X0051313Y0125872D01*
X0051393Y0125826D01*
X0051470Y0125776D01*
X0051546Y0125724D01*
X0051619Y0125668D01*
X0051690Y0125610D01*
X0051758Y0125548D01*
X0051824Y0125484D01*
X0051886Y0125417D01*
X0051947Y0125348D01*
X0052004Y0125275D01*
X0052058Y0125201D01*
X0052108Y0125125D01*
X0052156Y0125046D01*
X0052200Y0124965D01*
X0052241Y0124883D01*
X0052279Y0124799D01*
X0052312Y0124714D01*
X0052343Y0124627D01*
X0052369Y0124539D01*
X0052392Y0124450D01*
X0052411Y0124360D01*
X0052426Y0124270D01*
X0052438Y0124178D01*
X0052446Y0124087D01*
X0052450Y0123995D01*
X0052450Y0123903D01*
X0052446Y0123811D01*
X0052438Y0123720D01*
X0052426Y0123628D01*
X0052411Y0123538D01*
X0052392Y0123448D01*
X0052369Y0123359D01*
X0052343Y0123271D01*
X0052312Y0123184D01*
X0052279Y0123099D01*
X0052241Y0123015D01*
X0052200Y0122933D01*
X0052156Y0122852D01*
X0052108Y0122773D01*
X0052058Y0122697D01*
X0052004Y0122623D01*
X0051947Y0122550D01*
X0051886Y0122481D01*
X0051824Y0122414D01*
X0051758Y0122350D01*
X0051690Y0122288D01*
X0051619Y0122230D01*
X0051546Y0122174D01*
X0051470Y0122122D01*
X0051393Y0122072D01*
X0051313Y0122026D01*
X0051232Y0121984D01*
X0051148Y0121945D01*
X0051064Y0121909D01*
X0050978Y0121877D01*
X0050890Y0121849D01*
X0050802Y0121824D01*
X0050712Y0121803D01*
X0050622Y0121786D01*
X0050531Y0121772D01*
X0050440Y0121763D01*
X0050348Y0121757D01*
X0050256Y0121755D01*
X0048061Y0126144D02*
X0047944Y0126142D01*
X0047826Y0126136D01*
X0047710Y0126126D01*
X0047593Y0126113D01*
X0047477Y0126095D01*
X0047362Y0126074D01*
X0047247Y0126048D01*
X0047133Y0126019D01*
X0047021Y0125986D01*
X0046909Y0125950D01*
X0046799Y0125909D01*
X0046690Y0125865D01*
X0046583Y0125818D01*
X0046478Y0125767D01*
X0046374Y0125712D01*
X0046272Y0125654D01*
X0046172Y0125592D01*
X0046074Y0125528D01*
X0045978Y0125460D01*
X0045885Y0125388D01*
X0045794Y0125314D01*
X0045706Y0125237D01*
X0045620Y0125157D01*
X0045537Y0125074D01*
X0045457Y0124988D01*
X0045380Y0124900D01*
X0045306Y0124809D01*
X0045234Y0124716D01*
X0045166Y0124620D01*
X0045102Y0124522D01*
X0045040Y0124422D01*
X0044982Y0124320D01*
X0044927Y0124217D01*
X0044876Y0124111D01*
X0044829Y0124004D01*
X0044785Y0123895D01*
X0044744Y0123785D01*
X0044708Y0123673D01*
X0044675Y0123561D01*
X0044646Y0123447D01*
X0044620Y0123332D01*
X0044599Y0123217D01*
X0044581Y0123101D01*
X0044568Y0122984D01*
X0044558Y0122868D01*
X0044552Y0122750D01*
X0044550Y0122633D01*
X0044550Y0129275D02*
X0044550Y0131469D01*
X0044552Y0131540D01*
X0044558Y0131611D01*
X0044567Y0131682D01*
X0044581Y0131752D01*
X0044598Y0131821D01*
X0044619Y0131890D01*
X0044644Y0131956D01*
X0044672Y0132022D01*
X0044703Y0132086D01*
X0044739Y0132148D01*
X0044777Y0132208D01*
X0044819Y0132266D01*
X0044863Y0132322D01*
X0044911Y0132375D01*
X0044961Y0132425D01*
X0045014Y0132473D01*
X0045070Y0132517D01*
X0045128Y0132559D01*
X0045188Y0132597D01*
X0045250Y0132633D01*
X0045314Y0132664D01*
X0045380Y0132692D01*
X0045446Y0132717D01*
X0045515Y0132738D01*
X0045584Y0132755D01*
X0045654Y0132769D01*
X0045725Y0132778D01*
X0045796Y0132784D01*
X0045867Y0132786D01*
X0048500Y0132786D01*
X0048571Y0132784D01*
X0048642Y0132778D01*
X0048713Y0132769D01*
X0048783Y0132755D01*
X0048852Y0132738D01*
X0048921Y0132717D01*
X0048987Y0132692D01*
X0049053Y0132664D01*
X0049117Y0132633D01*
X0049179Y0132597D01*
X0049239Y0132559D01*
X0049297Y0132517D01*
X0049353Y0132473D01*
X0049406Y0132425D01*
X0049456Y0132375D01*
X0049504Y0132322D01*
X0049548Y0132266D01*
X0049590Y0132208D01*
X0049628Y0132148D01*
X0049664Y0132086D01*
X0049695Y0132022D01*
X0049723Y0131956D01*
X0049748Y0131890D01*
X0049769Y0131821D01*
X0049786Y0131752D01*
X0049800Y0131682D01*
X0049809Y0131611D01*
X0049815Y0131540D01*
X0049817Y0131469D01*
X0049817Y0129275D01*
X0052450Y0129275D02*
X0044550Y0129275D01*
X0057450Y0122138D02*
X0057450Y0120383D01*
X0057452Y0120302D01*
X0057457Y0120221D01*
X0057467Y0120140D01*
X0057480Y0120060D01*
X0057497Y0119981D01*
X0057517Y0119902D01*
X0057541Y0119825D01*
X0057569Y0119749D01*
X0057600Y0119674D01*
X0057634Y0119600D01*
X0057672Y0119529D01*
X0057713Y0119459D01*
X0057757Y0119391D01*
X0057805Y0119325D01*
X0057855Y0119261D01*
X0057908Y0119200D01*
X0057964Y0119141D01*
X0058023Y0119085D01*
X0058084Y0119032D01*
X0058148Y0118982D01*
X0058214Y0118934D01*
X0058282Y0118890D01*
X0058352Y0118849D01*
X0058423Y0118811D01*
X0058497Y0118777D01*
X0058572Y0118746D01*
X0058648Y0118718D01*
X0058725Y0118694D01*
X0058804Y0118674D01*
X0058883Y0118657D01*
X0058963Y0118644D01*
X0059044Y0118634D01*
X0059125Y0118629D01*
X0059206Y0118627D01*
X0063594Y0118627D01*
X0063678Y0118629D01*
X0063761Y0118635D01*
X0063844Y0118645D01*
X0063926Y0118659D01*
X0064008Y0118676D01*
X0064089Y0118698D01*
X0064168Y0118724D01*
X0064247Y0118753D01*
X0064323Y0118786D01*
X0064399Y0118822D01*
X0064472Y0118862D01*
X0064543Y0118906D01*
X0064613Y0118953D01*
X0064679Y0119003D01*
X0064744Y0119056D01*
X0064806Y0119112D01*
X0064865Y0119171D01*
X0064921Y0119233D01*
X0064974Y0119298D01*
X0065024Y0119364D01*
X0065071Y0119434D01*
X0065115Y0119505D01*
X0065155Y0119578D01*
X0065191Y0119654D01*
X0065224Y0119730D01*
X0065253Y0119809D01*
X0065279Y0119888D01*
X0065300Y0119969D01*
X0065318Y0120051D01*
X0065332Y0120133D01*
X0065342Y0120216D01*
X0065348Y0120299D01*
X0065350Y0120383D01*
X0065350Y0122138D01*
X0065350Y0124965D02*
X0059644Y0124965D01*
X0059644Y0124966D02*
X0059552Y0124968D01*
X0059460Y0124974D01*
X0059369Y0124983D01*
X0059278Y0124997D01*
X0059188Y0125014D01*
X0059098Y0125035D01*
X0059010Y0125060D01*
X0058922Y0125088D01*
X0058836Y0125120D01*
X0058752Y0125156D01*
X0058668Y0125195D01*
X0058587Y0125237D01*
X0058507Y0125283D01*
X0058430Y0125333D01*
X0058354Y0125385D01*
X0058281Y0125441D01*
X0058210Y0125499D01*
X0058142Y0125561D01*
X0058076Y0125625D01*
X0058014Y0125692D01*
X0057953Y0125761D01*
X0057896Y0125834D01*
X0057842Y0125908D01*
X0057792Y0125984D01*
X0057744Y0126063D01*
X0057700Y0126144D01*
X0057659Y0126226D01*
X0057621Y0126310D01*
X0057588Y0126395D01*
X0057557Y0126482D01*
X0057531Y0126570D01*
X0057508Y0126659D01*
X0057489Y0126749D01*
X0057474Y0126839D01*
X0057462Y0126931D01*
X0057454Y0127022D01*
X0057450Y0127114D01*
X0057450Y0127206D01*
X0057454Y0127298D01*
X0057462Y0127389D01*
X0057474Y0127481D01*
X0057489Y0127571D01*
X0057508Y0127661D01*
X0057531Y0127750D01*
X0057557Y0127838D01*
X0057588Y0127925D01*
X0057621Y0128010D01*
X0057659Y0128094D01*
X0057700Y0128176D01*
X0057744Y0128257D01*
X0057792Y0128336D01*
X0057842Y0128412D01*
X0057896Y0128486D01*
X0057953Y0128559D01*
X0058014Y0128628D01*
X0058076Y0128695D01*
X0058142Y0128759D01*
X0058210Y0128821D01*
X0058281Y0128879D01*
X0058354Y0128935D01*
X0058430Y0128987D01*
X0058507Y0129037D01*
X0058587Y0129083D01*
X0058668Y0129125D01*
X0058752Y0129164D01*
X0058836Y0129200D01*
X0058922Y0129232D01*
X0059010Y0129260D01*
X0059098Y0129285D01*
X0059188Y0129306D01*
X0059278Y0129323D01*
X0059369Y0129337D01*
X0059460Y0129346D01*
X0059552Y0129352D01*
X0059644Y0129354D01*
X0065350Y0129354D01*
X0062717Y0136109D02*
X0057450Y0137864D01*
X0062717Y0139620D01*
X0061839Y0143116D02*
X0061839Y0144872D01*
X0061838Y0144433D02*
X0061836Y0144525D01*
X0061830Y0144617D01*
X0061821Y0144708D01*
X0061807Y0144799D01*
X0061790Y0144889D01*
X0061769Y0144979D01*
X0061744Y0145067D01*
X0061716Y0145155D01*
X0061684Y0145241D01*
X0061648Y0145325D01*
X0061609Y0145409D01*
X0061567Y0145490D01*
X0061521Y0145570D01*
X0061471Y0145647D01*
X0061419Y0145723D01*
X0061363Y0145796D01*
X0061305Y0145867D01*
X0061243Y0145935D01*
X0061179Y0146001D01*
X0061112Y0146063D01*
X0061043Y0146124D01*
X0060970Y0146181D01*
X0060896Y0146235D01*
X0060820Y0146285D01*
X0060741Y0146333D01*
X0060660Y0146377D01*
X0060578Y0146418D01*
X0060494Y0146456D01*
X0060409Y0146489D01*
X0060322Y0146520D01*
X0060234Y0146546D01*
X0060145Y0146569D01*
X0060055Y0146588D01*
X0059965Y0146603D01*
X0059873Y0146615D01*
X0059782Y0146623D01*
X0059690Y0146627D01*
X0059598Y0146627D01*
X0059506Y0146623D01*
X0059415Y0146615D01*
X0059323Y0146603D01*
X0059233Y0146588D01*
X0059143Y0146569D01*
X0059054Y0146546D01*
X0058966Y0146520D01*
X0058879Y0146489D01*
X0058794Y0146456D01*
X0058710Y0146418D01*
X0058628Y0146377D01*
X0058547Y0146333D01*
X0058468Y0146285D01*
X0058392Y0146235D01*
X0058318Y0146181D01*
X0058245Y0146124D01*
X0058176Y0146063D01*
X0058109Y0146001D01*
X0058045Y0145935D01*
X0057983Y0145867D01*
X0057925Y0145796D01*
X0057869Y0145723D01*
X0057817Y0145647D01*
X0057767Y0145570D01*
X0057721Y0145490D01*
X0057679Y0145409D01*
X0057640Y0145325D01*
X0057604Y0145241D01*
X0057572Y0145155D01*
X0057544Y0145067D01*
X0057519Y0144979D01*
X0057498Y0144889D01*
X0057481Y0144799D01*
X0057467Y0144708D01*
X0057458Y0144617D01*
X0057452Y0144525D01*
X0057450Y0144433D01*
X0057450Y0142239D01*
X0061838Y0144872D02*
X0061840Y0144954D01*
X0061846Y0145036D01*
X0061855Y0145118D01*
X0061869Y0145199D01*
X0061886Y0145280D01*
X0061907Y0145360D01*
X0061932Y0145438D01*
X0061960Y0145515D01*
X0061992Y0145591D01*
X0062028Y0145666D01*
X0062066Y0145738D01*
X0062109Y0145809D01*
X0062154Y0145877D01*
X0062203Y0145944D01*
X0062255Y0146008D01*
X0062309Y0146069D01*
X0062367Y0146128D01*
X0062427Y0146184D01*
X0062490Y0146238D01*
X0062555Y0146288D01*
X0062623Y0146335D01*
X0062692Y0146379D01*
X0062764Y0146419D01*
X0062837Y0146457D01*
X0062913Y0146490D01*
X0062989Y0146521D01*
X0063067Y0146547D01*
X0063146Y0146570D01*
X0063226Y0146589D01*
X0063307Y0146604D01*
X0063389Y0146616D01*
X0063471Y0146624D01*
X0063553Y0146628D01*
X0063635Y0146628D01*
X0063717Y0146624D01*
X0063799Y0146616D01*
X0063881Y0146604D01*
X0063962Y0146589D01*
X0064042Y0146570D01*
X0064121Y0146547D01*
X0064199Y0146521D01*
X0064275Y0146490D01*
X0064351Y0146457D01*
X0064424Y0146419D01*
X0064496Y0146379D01*
X0064565Y0146335D01*
X0064633Y0146288D01*
X0064698Y0146238D01*
X0064761Y0146184D01*
X0064821Y0146128D01*
X0064879Y0146069D01*
X0064933Y0146008D01*
X0064985Y0145944D01*
X0065034Y0145877D01*
X0065079Y0145809D01*
X0065122Y0145738D01*
X0065160Y0145666D01*
X0065196Y0145591D01*
X0065228Y0145515D01*
X0065256Y0145438D01*
X0065281Y0145360D01*
X0065302Y0145280D01*
X0065319Y0145199D01*
X0065333Y0145118D01*
X0065342Y0145036D01*
X0065348Y0144954D01*
X0065350Y0144872D01*
X0065350Y0142239D01*
X0070350Y0131718D02*
X0070350Y0127329D01*
X0074739Y0131059D01*
X0074300Y0139016D02*
X0074145Y0139014D01*
X0073989Y0139009D01*
X0073834Y0138999D01*
X0073679Y0138986D01*
X0073525Y0138970D01*
X0073371Y0138949D01*
X0073217Y0138925D01*
X0073064Y0138898D01*
X0072912Y0138866D01*
X0072761Y0138831D01*
X0072610Y0138793D01*
X0072460Y0138751D01*
X0072312Y0138705D01*
X0072164Y0138656D01*
X0072018Y0138603D01*
X0071873Y0138547D01*
X0071730Y0138487D01*
X0071588Y0138424D01*
X0071447Y0138358D01*
X0071375Y0138331D01*
X0071303Y0138301D01*
X0071234Y0138267D01*
X0071165Y0138230D01*
X0071099Y0138190D01*
X0071035Y0138147D01*
X0070973Y0138101D01*
X0070913Y0138051D01*
X0070856Y0137999D01*
X0070801Y0137945D01*
X0070748Y0137888D01*
X0070699Y0137828D01*
X0070652Y0137766D01*
X0070609Y0137702D01*
X0070569Y0137636D01*
X0070531Y0137568D01*
X0070497Y0137498D01*
X0070467Y0137427D01*
X0070440Y0137354D01*
X0070416Y0137281D01*
X0070396Y0137206D01*
X0070379Y0137130D01*
X0070367Y0137054D01*
X0070357Y0136977D01*
X0070352Y0136899D01*
X0070350Y0136822D01*
X0070352Y0136745D01*
X0070357Y0136667D01*
X0070367Y0136590D01*
X0070379Y0136514D01*
X0070396Y0136438D01*
X0070416Y0136363D01*
X0070440Y0136290D01*
X0070467Y0136217D01*
X0070497Y0136146D01*
X0070531Y0136076D01*
X0070569Y0136008D01*
X0070609Y0135942D01*
X0070652Y0135878D01*
X0070699Y0135816D01*
X0070748Y0135756D01*
X0070801Y0135699D01*
X0070856Y0135645D01*
X0070913Y0135593D01*
X0070973Y0135543D01*
X0071035Y0135497D01*
X0071099Y0135454D01*
X0071165Y0135414D01*
X0071234Y0135377D01*
X0071303Y0135343D01*
X0071375Y0135313D01*
X0071447Y0135286D01*
X0072106Y0135066D02*
X0076494Y0138577D01*
X0077153Y0138358D02*
X0077225Y0138331D01*
X0077297Y0138301D01*
X0077366Y0138267D01*
X0077435Y0138230D01*
X0077501Y0138190D01*
X0077565Y0138147D01*
X0077627Y0138101D01*
X0077687Y0138051D01*
X0077744Y0137999D01*
X0077799Y0137945D01*
X0077852Y0137888D01*
X0077901Y0137828D01*
X0077947Y0137766D01*
X0077991Y0137702D01*
X0078031Y0137636D01*
X0078069Y0137568D01*
X0078103Y0137498D01*
X0078133Y0137427D01*
X0078160Y0137354D01*
X0078184Y0137281D01*
X0078204Y0137206D01*
X0078221Y0137130D01*
X0078233Y0137054D01*
X0078243Y0136977D01*
X0078248Y0136899D01*
X0078250Y0136822D01*
X0078248Y0136745D01*
X0078243Y0136667D01*
X0078233Y0136590D01*
X0078221Y0136514D01*
X0078204Y0136438D01*
X0078184Y0136363D01*
X0078160Y0136290D01*
X0078133Y0136217D01*
X0078103Y0136146D01*
X0078069Y0136076D01*
X0078031Y0136008D01*
X0077991Y0135942D01*
X0077948Y0135878D01*
X0077901Y0135816D01*
X0077852Y0135756D01*
X0077799Y0135699D01*
X0077744Y0135645D01*
X0077687Y0135593D01*
X0077627Y0135543D01*
X0077565Y0135497D01*
X0077501Y0135454D01*
X0077435Y0135414D01*
X0077366Y0135377D01*
X0077297Y0135343D01*
X0077225Y0135313D01*
X0077153Y0135286D01*
X0077153Y0138358D02*
X0077012Y0138424D01*
X0076870Y0138487D01*
X0076727Y0138547D01*
X0076582Y0138603D01*
X0076436Y0138656D01*
X0076288Y0138705D01*
X0076140Y0138751D01*
X0075990Y0138793D01*
X0075839Y0138831D01*
X0075688Y0138866D01*
X0075536Y0138898D01*
X0075383Y0138925D01*
X0075229Y0138949D01*
X0075075Y0138970D01*
X0074921Y0138986D01*
X0074766Y0138999D01*
X0074611Y0139009D01*
X0074455Y0139014D01*
X0074300Y0139016D01*
X0074300Y0134628D02*
X0074455Y0134630D01*
X0074611Y0134635D01*
X0074766Y0134645D01*
X0074921Y0134658D01*
X0075075Y0134674D01*
X0075229Y0134695D01*
X0075383Y0134719D01*
X0075536Y0134746D01*
X0075688Y0134778D01*
X0075839Y0134813D01*
X0075990Y0134851D01*
X0076140Y0134893D01*
X0076288Y0134939D01*
X0076436Y0134988D01*
X0076582Y0135041D01*
X0076727Y0135097D01*
X0076870Y0135157D01*
X0077012Y0135220D01*
X0077153Y0135286D01*
X0076275Y0131718D02*
X0076361Y0131716D01*
X0076447Y0131710D01*
X0076533Y0131701D01*
X0076618Y0131688D01*
X0076702Y0131671D01*
X0076786Y0131651D01*
X0076869Y0131627D01*
X0076950Y0131599D01*
X0077031Y0131568D01*
X0077110Y0131533D01*
X0077187Y0131495D01*
X0077263Y0131453D01*
X0077336Y0131409D01*
X0077408Y0131361D01*
X0077477Y0131310D01*
X0077545Y0131256D01*
X0077609Y0131199D01*
X0077672Y0131140D01*
X0077731Y0131077D01*
X0077788Y0131013D01*
X0077842Y0130945D01*
X0077893Y0130876D01*
X0077941Y0130804D01*
X0077985Y0130731D01*
X0078027Y0130655D01*
X0078065Y0130578D01*
X0078100Y0130499D01*
X0078131Y0130418D01*
X0078159Y0130337D01*
X0078183Y0130254D01*
X0078203Y0130170D01*
X0078220Y0130086D01*
X0078233Y0130001D01*
X0078242Y0129915D01*
X0078248Y0129829D01*
X0078250Y0129743D01*
X0076275Y0131717D02*
X0076185Y0131715D01*
X0076094Y0131709D01*
X0076005Y0131700D01*
X0075915Y0131686D01*
X0075826Y0131669D01*
X0075739Y0131648D01*
X0075652Y0131623D01*
X0075566Y0131595D01*
X0075481Y0131563D01*
X0075398Y0131527D01*
X0075317Y0131488D01*
X0075237Y0131446D01*
X0075159Y0131400D01*
X0075083Y0131351D01*
X0075010Y0131298D01*
X0074938Y0131243D01*
X0074869Y0131184D01*
X0074803Y0131123D01*
X0074739Y0131059D01*
X0078250Y0129743D02*
X0078248Y0129643D01*
X0078242Y0129544D01*
X0078232Y0129445D01*
X0078219Y0129346D01*
X0078201Y0129248D01*
X0078180Y0129150D01*
X0078155Y0129054D01*
X0078126Y0128958D01*
X0078093Y0128864D01*
X0078057Y0128771D01*
X0078017Y0128680D01*
X0077973Y0128590D01*
X0077926Y0128503D01*
X0077876Y0128417D01*
X0077822Y0128333D01*
X0077765Y0128251D01*
X0077705Y0128171D01*
X0077641Y0128094D01*
X0077575Y0128020D01*
X0077506Y0127948D01*
X0077434Y0127879D01*
X0077359Y0127813D01*
X0077282Y0127750D01*
X0077203Y0127689D01*
X0077121Y0127632D01*
X0077037Y0127579D01*
X0076951Y0127528D01*
X0076863Y0127482D01*
X0076773Y0127438D01*
X0076682Y0127398D01*
X0076589Y0127362D01*
X0076495Y0127329D01*
X0074300Y0120030D02*
X0074145Y0120032D01*
X0073989Y0120037D01*
X0073834Y0120047D01*
X0073679Y0120060D01*
X0073525Y0120076D01*
X0073371Y0120097D01*
X0073217Y0120121D01*
X0073064Y0120148D01*
X0072912Y0120180D01*
X0072761Y0120215D01*
X0072610Y0120253D01*
X0072460Y0120295D01*
X0072312Y0120341D01*
X0072164Y0120390D01*
X0072018Y0120443D01*
X0071873Y0120499D01*
X0071730Y0120559D01*
X0071588Y0120622D01*
X0071447Y0120688D01*
X0072106Y0120469D02*
X0076494Y0123980D01*
X0077153Y0123761D02*
X0077225Y0123734D01*
X0077297Y0123704D01*
X0077366Y0123670D01*
X0077435Y0123633D01*
X0077501Y0123593D01*
X0077565Y0123550D01*
X0077627Y0123504D01*
X0077687Y0123454D01*
X0077744Y0123402D01*
X0077799Y0123348D01*
X0077852Y0123291D01*
X0077901Y0123231D01*
X0077947Y0123169D01*
X0077991Y0123105D01*
X0078031Y0123039D01*
X0078069Y0122971D01*
X0078103Y0122901D01*
X0078133Y0122830D01*
X0078160Y0122757D01*
X0078184Y0122684D01*
X0078204Y0122609D01*
X0078221Y0122533D01*
X0078233Y0122457D01*
X0078243Y0122380D01*
X0078248Y0122302D01*
X0078250Y0122225D01*
X0078248Y0122148D01*
X0078243Y0122070D01*
X0078233Y0121993D01*
X0078221Y0121917D01*
X0078204Y0121841D01*
X0078184Y0121766D01*
X0078160Y0121693D01*
X0078133Y0121620D01*
X0078103Y0121549D01*
X0078069Y0121479D01*
X0078031Y0121411D01*
X0077991Y0121345D01*
X0077948Y0121281D01*
X0077901Y0121219D01*
X0077852Y0121159D01*
X0077799Y0121102D01*
X0077744Y0121048D01*
X0077687Y0120996D01*
X0077627Y0120946D01*
X0077565Y0120900D01*
X0077501Y0120857D01*
X0077435Y0120817D01*
X0077366Y0120780D01*
X0077297Y0120746D01*
X0077225Y0120716D01*
X0077153Y0120689D01*
X0077153Y0123761D02*
X0077012Y0123827D01*
X0076870Y0123890D01*
X0076727Y0123950D01*
X0076582Y0124006D01*
X0076436Y0124059D01*
X0076288Y0124108D01*
X0076140Y0124154D01*
X0075990Y0124196D01*
X0075839Y0124234D01*
X0075688Y0124269D01*
X0075536Y0124301D01*
X0075383Y0124328D01*
X0075229Y0124352D01*
X0075075Y0124373D01*
X0074921Y0124389D01*
X0074766Y0124402D01*
X0074611Y0124412D01*
X0074455Y0124417D01*
X0074300Y0124419D01*
X0074300Y0120030D02*
X0074455Y0120032D01*
X0074611Y0120037D01*
X0074766Y0120047D01*
X0074921Y0120060D01*
X0075075Y0120076D01*
X0075229Y0120097D01*
X0075383Y0120121D01*
X0075536Y0120148D01*
X0075688Y0120180D01*
X0075839Y0120215D01*
X0075990Y0120253D01*
X0076140Y0120295D01*
X0076288Y0120341D01*
X0076436Y0120390D01*
X0076582Y0120443D01*
X0076727Y0120499D01*
X0076870Y0120559D01*
X0077012Y0120622D01*
X0077153Y0120688D01*
X0074300Y0124419D02*
X0074145Y0124417D01*
X0073989Y0124412D01*
X0073834Y0124402D01*
X0073679Y0124389D01*
X0073525Y0124373D01*
X0073371Y0124352D01*
X0073217Y0124328D01*
X0073064Y0124301D01*
X0072912Y0124269D01*
X0072761Y0124234D01*
X0072610Y0124196D01*
X0072460Y0124154D01*
X0072312Y0124108D01*
X0072164Y0124059D01*
X0072018Y0124006D01*
X0071873Y0123950D01*
X0071730Y0123890D01*
X0071588Y0123827D01*
X0071447Y0123761D01*
X0071375Y0123734D01*
X0071303Y0123704D01*
X0071234Y0123670D01*
X0071165Y0123633D01*
X0071099Y0123593D01*
X0071035Y0123550D01*
X0070973Y0123504D01*
X0070913Y0123454D01*
X0070856Y0123402D01*
X0070801Y0123348D01*
X0070748Y0123291D01*
X0070699Y0123231D01*
X0070652Y0123169D01*
X0070609Y0123105D01*
X0070569Y0123039D01*
X0070531Y0122971D01*
X0070497Y0122901D01*
X0070467Y0122830D01*
X0070440Y0122757D01*
X0070416Y0122684D01*
X0070396Y0122609D01*
X0070379Y0122533D01*
X0070367Y0122457D01*
X0070357Y0122380D01*
X0070352Y0122302D01*
X0070350Y0122225D01*
X0070352Y0122148D01*
X0070357Y0122070D01*
X0070367Y0121993D01*
X0070379Y0121917D01*
X0070396Y0121841D01*
X0070416Y0121766D01*
X0070440Y0121693D01*
X0070467Y0121620D01*
X0070497Y0121549D01*
X0070531Y0121479D01*
X0070569Y0121411D01*
X0070609Y0121345D01*
X0070652Y0121281D01*
X0070699Y0121219D01*
X0070748Y0121159D01*
X0070801Y0121102D01*
X0070856Y0121048D01*
X0070913Y0120996D01*
X0070973Y0120946D01*
X0071035Y0120900D01*
X0071099Y0120857D01*
X0071165Y0120817D01*
X0071234Y0120780D01*
X0071303Y0120746D01*
X0071375Y0120716D01*
X0071447Y0120689D01*
X0070350Y0117121D02*
X0070350Y0112732D01*
X0074739Y0116462D01*
X0078250Y0115146D02*
X0078248Y0115046D01*
X0078242Y0114947D01*
X0078232Y0114848D01*
X0078219Y0114749D01*
X0078201Y0114651D01*
X0078180Y0114553D01*
X0078155Y0114457D01*
X0078126Y0114361D01*
X0078093Y0114267D01*
X0078057Y0114174D01*
X0078017Y0114083D01*
X0077973Y0113993D01*
X0077926Y0113906D01*
X0077876Y0113820D01*
X0077822Y0113736D01*
X0077765Y0113654D01*
X0077705Y0113574D01*
X0077641Y0113497D01*
X0077575Y0113423D01*
X0077506Y0113351D01*
X0077434Y0113282D01*
X0077359Y0113216D01*
X0077282Y0113153D01*
X0077203Y0113092D01*
X0077121Y0113035D01*
X0077037Y0112982D01*
X0076951Y0112931D01*
X0076863Y0112885D01*
X0076773Y0112841D01*
X0076682Y0112801D01*
X0076589Y0112765D01*
X0076495Y0112732D01*
X0074739Y0116462D02*
X0074803Y0116526D01*
X0074869Y0116587D01*
X0074938Y0116646D01*
X0075010Y0116701D01*
X0075083Y0116754D01*
X0075159Y0116803D01*
X0075237Y0116849D01*
X0075317Y0116891D01*
X0075398Y0116930D01*
X0075481Y0116966D01*
X0075566Y0116998D01*
X0075652Y0117026D01*
X0075739Y0117051D01*
X0075826Y0117072D01*
X0075915Y0117089D01*
X0076005Y0117103D01*
X0076094Y0117112D01*
X0076185Y0117118D01*
X0076275Y0117120D01*
X0076275Y0117121D02*
X0076361Y0117119D01*
X0076447Y0117113D01*
X0076533Y0117104D01*
X0076618Y0117091D01*
X0076702Y0117074D01*
X0076786Y0117054D01*
X0076869Y0117030D01*
X0076950Y0117002D01*
X0077031Y0116971D01*
X0077110Y0116936D01*
X0077187Y0116898D01*
X0077263Y0116856D01*
X0077336Y0116812D01*
X0077408Y0116764D01*
X0077477Y0116713D01*
X0077545Y0116659D01*
X0077609Y0116602D01*
X0077672Y0116543D01*
X0077731Y0116480D01*
X0077788Y0116416D01*
X0077842Y0116348D01*
X0077893Y0116279D01*
X0077941Y0116207D01*
X0077985Y0116134D01*
X0078027Y0116058D01*
X0078065Y0115981D01*
X0078100Y0115902D01*
X0078131Y0115821D01*
X0078159Y0115740D01*
X0078183Y0115657D01*
X0078203Y0115573D01*
X0078220Y0115489D01*
X0078233Y0115404D01*
X0078242Y0115318D01*
X0078248Y0115232D01*
X0078250Y0115146D01*
X0073861Y0105977D02*
X0072983Y0105977D01*
X0072983Y0102466D01*
X0073861Y0102466D02*
X0071667Y0102466D01*
X0071596Y0102468D01*
X0071525Y0102474D01*
X0071454Y0102483D01*
X0071384Y0102497D01*
X0071315Y0102514D01*
X0071246Y0102535D01*
X0071180Y0102560D01*
X0071114Y0102588D01*
X0071050Y0102619D01*
X0070988Y0102655D01*
X0070928Y0102693D01*
X0070870Y0102735D01*
X0070814Y0102779D01*
X0070761Y0102827D01*
X0070711Y0102877D01*
X0070663Y0102930D01*
X0070619Y0102986D01*
X0070577Y0103044D01*
X0070539Y0103104D01*
X0070503Y0103166D01*
X0070472Y0103230D01*
X0070444Y0103296D01*
X0070419Y0103362D01*
X0070398Y0103431D01*
X0070381Y0103500D01*
X0070367Y0103570D01*
X0070358Y0103641D01*
X0070352Y0103712D01*
X0070350Y0103783D01*
X0070350Y0105977D01*
X0073861Y0105978D02*
X0073943Y0105976D01*
X0074025Y0105970D01*
X0074107Y0105961D01*
X0074188Y0105947D01*
X0074269Y0105930D01*
X0074349Y0105909D01*
X0074427Y0105884D01*
X0074504Y0105856D01*
X0074580Y0105824D01*
X0074655Y0105788D01*
X0074727Y0105750D01*
X0074798Y0105707D01*
X0074866Y0105662D01*
X0074933Y0105613D01*
X0074997Y0105561D01*
X0075058Y0105507D01*
X0075117Y0105449D01*
X0075173Y0105389D01*
X0075227Y0105326D01*
X0075277Y0105261D01*
X0075324Y0105193D01*
X0075368Y0105124D01*
X0075408Y0105052D01*
X0075446Y0104979D01*
X0075479Y0104903D01*
X0075510Y0104827D01*
X0075536Y0104749D01*
X0075559Y0104670D01*
X0075578Y0104590D01*
X0075593Y0104509D01*
X0075605Y0104427D01*
X0075613Y0104345D01*
X0075617Y0104263D01*
X0075617Y0104181D01*
X0075613Y0104099D01*
X0075605Y0104017D01*
X0075593Y0103935D01*
X0075578Y0103854D01*
X0075559Y0103774D01*
X0075536Y0103695D01*
X0075510Y0103617D01*
X0075479Y0103541D01*
X0075446Y0103465D01*
X0075408Y0103392D01*
X0075368Y0103320D01*
X0075324Y0103251D01*
X0075277Y0103183D01*
X0075227Y0103118D01*
X0075173Y0103055D01*
X0075117Y0102995D01*
X0075058Y0102937D01*
X0074997Y0102883D01*
X0074933Y0102831D01*
X0074866Y0102782D01*
X0074798Y0102737D01*
X0074727Y0102694D01*
X0074655Y0102656D01*
X0074580Y0102620D01*
X0074504Y0102588D01*
X0074427Y0102560D01*
X0074349Y0102535D01*
X0074269Y0102514D01*
X0074188Y0102497D01*
X0074107Y0102483D01*
X0074025Y0102474D01*
X0073943Y0102468D01*
X0073861Y0102466D01*
X0074300Y0099408D02*
X0070350Y0099408D01*
X0070350Y0095897D02*
X0075617Y0095897D01*
X0075617Y0098092D01*
X0075615Y0098163D01*
X0075609Y0098234D01*
X0075600Y0098305D01*
X0075586Y0098375D01*
X0075569Y0098444D01*
X0075548Y0098513D01*
X0075523Y0098579D01*
X0075495Y0098645D01*
X0075464Y0098709D01*
X0075428Y0098771D01*
X0075390Y0098831D01*
X0075348Y0098889D01*
X0075304Y0098945D01*
X0075256Y0098998D01*
X0075206Y0099048D01*
X0075153Y0099096D01*
X0075097Y0099140D01*
X0075039Y0099182D01*
X0074979Y0099220D01*
X0074917Y0099256D01*
X0074853Y0099287D01*
X0074787Y0099315D01*
X0074721Y0099340D01*
X0074652Y0099361D01*
X0074583Y0099378D01*
X0074513Y0099392D01*
X0074442Y0099401D01*
X0074371Y0099407D01*
X0074300Y0099409D01*
X0075617Y0092596D02*
X0070350Y0092596D01*
X0070350Y0090402D01*
X0070352Y0090331D01*
X0070358Y0090260D01*
X0070367Y0090189D01*
X0070381Y0090119D01*
X0070398Y0090050D01*
X0070419Y0089981D01*
X0070444Y0089915D01*
X0070472Y0089849D01*
X0070503Y0089785D01*
X0070539Y0089723D01*
X0070577Y0089663D01*
X0070619Y0089605D01*
X0070663Y0089549D01*
X0070711Y0089496D01*
X0070761Y0089446D01*
X0070814Y0089398D01*
X0070870Y0089354D01*
X0070928Y0089312D01*
X0070988Y0089274D01*
X0071050Y0089238D01*
X0071114Y0089207D01*
X0071180Y0089179D01*
X0071246Y0089154D01*
X0071315Y0089133D01*
X0071384Y0089116D01*
X0071454Y0089102D01*
X0071525Y0089093D01*
X0071596Y0089087D01*
X0071667Y0089085D01*
X0075617Y0089085D01*
X0078250Y0085754D02*
X0072106Y0085754D01*
X0072025Y0085752D01*
X0071944Y0085747D01*
X0071863Y0085737D01*
X0071783Y0085724D01*
X0071704Y0085707D01*
X0071625Y0085687D01*
X0071548Y0085663D01*
X0071472Y0085635D01*
X0071397Y0085604D01*
X0071323Y0085570D01*
X0071252Y0085532D01*
X0071182Y0085491D01*
X0071114Y0085447D01*
X0071048Y0085399D01*
X0070984Y0085349D01*
X0070923Y0085296D01*
X0070864Y0085240D01*
X0070808Y0085181D01*
X0070755Y0085120D01*
X0070705Y0085056D01*
X0070657Y0084990D01*
X0070613Y0084922D01*
X0070572Y0084852D01*
X0070534Y0084781D01*
X0070500Y0084707D01*
X0070469Y0084632D01*
X0070441Y0084556D01*
X0070417Y0084479D01*
X0070397Y0084400D01*
X0070380Y0084321D01*
X0070367Y0084241D01*
X0070357Y0084160D01*
X0070352Y0084079D01*
X0070350Y0083998D01*
X0070350Y0083120D01*
X0065350Y0083120D02*
X0057450Y0087509D01*
X0065350Y0087509D01*
X0065350Y0083120D02*
X0057450Y0083120D01*
X0059206Y0090614D02*
X0060961Y0090614D01*
X0061043Y0090616D01*
X0061125Y0090622D01*
X0061207Y0090631D01*
X0061288Y0090645D01*
X0061369Y0090662D01*
X0061449Y0090683D01*
X0061527Y0090708D01*
X0061604Y0090736D01*
X0061680Y0090768D01*
X0061755Y0090804D01*
X0061827Y0090842D01*
X0061898Y0090885D01*
X0061966Y0090930D01*
X0062033Y0090979D01*
X0062097Y0091031D01*
X0062158Y0091085D01*
X0062217Y0091143D01*
X0062273Y0091203D01*
X0062327Y0091266D01*
X0062377Y0091331D01*
X0062424Y0091399D01*
X0062468Y0091468D01*
X0062508Y0091540D01*
X0062546Y0091613D01*
X0062579Y0091689D01*
X0062610Y0091765D01*
X0062636Y0091843D01*
X0062659Y0091922D01*
X0062678Y0092002D01*
X0062693Y0092083D01*
X0062705Y0092165D01*
X0062713Y0092247D01*
X0062717Y0092329D01*
X0062717Y0092411D01*
X0062713Y0092493D01*
X0062705Y0092575D01*
X0062693Y0092657D01*
X0062678Y0092738D01*
X0062659Y0092818D01*
X0062636Y0092897D01*
X0062610Y0092975D01*
X0062579Y0093051D01*
X0062546Y0093127D01*
X0062508Y0093200D01*
X0062468Y0093272D01*
X0062424Y0093341D01*
X0062377Y0093409D01*
X0062327Y0093474D01*
X0062273Y0093537D01*
X0062217Y0093597D01*
X0062158Y0093655D01*
X0062097Y0093709D01*
X0062033Y0093761D01*
X0061966Y0093810D01*
X0061898Y0093855D01*
X0061827Y0093898D01*
X0061755Y0093936D01*
X0061680Y0093972D01*
X0061604Y0094004D01*
X0061527Y0094032D01*
X0061449Y0094057D01*
X0061369Y0094078D01*
X0061288Y0094095D01*
X0061207Y0094109D01*
X0061125Y0094118D01*
X0061043Y0094124D01*
X0060961Y0094126D01*
X0059206Y0094126D01*
X0059124Y0094124D01*
X0059042Y0094118D01*
X0058960Y0094109D01*
X0058879Y0094095D01*
X0058798Y0094078D01*
X0058718Y0094057D01*
X0058640Y0094032D01*
X0058563Y0094004D01*
X0058487Y0093972D01*
X0058412Y0093936D01*
X0058340Y0093898D01*
X0058269Y0093855D01*
X0058201Y0093810D01*
X0058134Y0093761D01*
X0058070Y0093709D01*
X0058009Y0093655D01*
X0057950Y0093597D01*
X0057894Y0093537D01*
X0057840Y0093474D01*
X0057790Y0093409D01*
X0057743Y0093341D01*
X0057699Y0093272D01*
X0057659Y0093200D01*
X0057621Y0093127D01*
X0057588Y0093051D01*
X0057557Y0092975D01*
X0057531Y0092897D01*
X0057508Y0092818D01*
X0057489Y0092738D01*
X0057474Y0092657D01*
X0057462Y0092575D01*
X0057454Y0092493D01*
X0057450Y0092411D01*
X0057450Y0092329D01*
X0057454Y0092247D01*
X0057462Y0092165D01*
X0057474Y0092083D01*
X0057489Y0092002D01*
X0057508Y0091922D01*
X0057531Y0091843D01*
X0057557Y0091765D01*
X0057588Y0091689D01*
X0057621Y0091613D01*
X0057659Y0091540D01*
X0057699Y0091468D01*
X0057743Y0091399D01*
X0057790Y0091331D01*
X0057840Y0091266D01*
X0057894Y0091203D01*
X0057950Y0091143D01*
X0058009Y0091085D01*
X0058070Y0091031D01*
X0058134Y0090979D01*
X0058201Y0090930D01*
X0058269Y0090885D01*
X0058340Y0090842D01*
X0058412Y0090804D01*
X0058487Y0090768D01*
X0058563Y0090736D01*
X0058640Y0090708D01*
X0058718Y0090683D01*
X0058798Y0090662D01*
X0058879Y0090645D01*
X0058960Y0090631D01*
X0059042Y0090622D01*
X0059124Y0090616D01*
X0059206Y0090614D01*
X0058767Y0096914D02*
X0061400Y0096914D01*
X0061471Y0096916D01*
X0061542Y0096922D01*
X0061613Y0096931D01*
X0061683Y0096945D01*
X0061752Y0096962D01*
X0061821Y0096983D01*
X0061887Y0097008D01*
X0061953Y0097036D01*
X0062017Y0097067D01*
X0062079Y0097103D01*
X0062139Y0097141D01*
X0062197Y0097183D01*
X0062253Y0097227D01*
X0062306Y0097275D01*
X0062356Y0097325D01*
X0062404Y0097378D01*
X0062448Y0097434D01*
X0062490Y0097492D01*
X0062528Y0097552D01*
X0062564Y0097614D01*
X0062595Y0097678D01*
X0062623Y0097744D01*
X0062648Y0097810D01*
X0062669Y0097879D01*
X0062686Y0097948D01*
X0062700Y0098018D01*
X0062709Y0098089D01*
X0062715Y0098160D01*
X0062717Y0098231D01*
X0062717Y0100425D01*
X0060961Y0103509D02*
X0058767Y0103509D01*
X0058767Y0103508D02*
X0058696Y0103510D01*
X0058625Y0103516D01*
X0058554Y0103525D01*
X0058484Y0103539D01*
X0058415Y0103556D01*
X0058346Y0103577D01*
X0058280Y0103602D01*
X0058214Y0103630D01*
X0058150Y0103661D01*
X0058088Y0103697D01*
X0058028Y0103735D01*
X0057970Y0103777D01*
X0057914Y0103821D01*
X0057861Y0103869D01*
X0057811Y0103919D01*
X0057763Y0103972D01*
X0057719Y0104028D01*
X0057677Y0104086D01*
X0057639Y0104146D01*
X0057603Y0104208D01*
X0057572Y0104272D01*
X0057544Y0104338D01*
X0057519Y0104404D01*
X0057498Y0104473D01*
X0057481Y0104542D01*
X0057467Y0104612D01*
X0057458Y0104683D01*
X0057452Y0104754D01*
X0057450Y0104825D01*
X0057450Y0107020D01*
X0057450Y0110173D02*
X0065350Y0110173D01*
X0060961Y0112806D01*
X0065350Y0115439D01*
X0057450Y0115439D01*
X0060083Y0107020D02*
X0060083Y0103509D01*
X0060961Y0103508D02*
X0061043Y0103510D01*
X0061125Y0103516D01*
X0061207Y0103525D01*
X0061288Y0103539D01*
X0061369Y0103556D01*
X0061449Y0103577D01*
X0061527Y0103602D01*
X0061604Y0103630D01*
X0061680Y0103662D01*
X0061755Y0103698D01*
X0061827Y0103736D01*
X0061898Y0103779D01*
X0061966Y0103824D01*
X0062033Y0103873D01*
X0062097Y0103925D01*
X0062158Y0103979D01*
X0062217Y0104037D01*
X0062273Y0104097D01*
X0062327Y0104160D01*
X0062377Y0104225D01*
X0062424Y0104293D01*
X0062468Y0104362D01*
X0062508Y0104434D01*
X0062546Y0104507D01*
X0062579Y0104583D01*
X0062610Y0104659D01*
X0062636Y0104737D01*
X0062659Y0104816D01*
X0062678Y0104896D01*
X0062693Y0104977D01*
X0062705Y0105059D01*
X0062713Y0105141D01*
X0062717Y0105223D01*
X0062717Y0105305D01*
X0062713Y0105387D01*
X0062705Y0105469D01*
X0062693Y0105551D01*
X0062678Y0105632D01*
X0062659Y0105712D01*
X0062636Y0105791D01*
X0062610Y0105869D01*
X0062579Y0105945D01*
X0062546Y0106021D01*
X0062508Y0106094D01*
X0062468Y0106166D01*
X0062424Y0106235D01*
X0062377Y0106303D01*
X0062327Y0106368D01*
X0062273Y0106431D01*
X0062217Y0106491D01*
X0062158Y0106549D01*
X0062097Y0106603D01*
X0062033Y0106655D01*
X0061966Y0106704D01*
X0061898Y0106749D01*
X0061827Y0106792D01*
X0061755Y0106830D01*
X0061680Y0106866D01*
X0061604Y0106898D01*
X0061527Y0106926D01*
X0061449Y0106951D01*
X0061369Y0106972D01*
X0061288Y0106989D01*
X0061207Y0107003D01*
X0061125Y0107012D01*
X0061043Y0107018D01*
X0060961Y0107020D01*
X0060083Y0107020D01*
X0057450Y0100425D02*
X0057450Y0098231D01*
X0057452Y0098160D01*
X0057458Y0098089D01*
X0057467Y0098018D01*
X0057481Y0097948D01*
X0057498Y0097879D01*
X0057519Y0097810D01*
X0057544Y0097744D01*
X0057572Y0097678D01*
X0057603Y0097614D01*
X0057639Y0097552D01*
X0057677Y0097492D01*
X0057719Y0097434D01*
X0057763Y0097378D01*
X0057811Y0097325D01*
X0057861Y0097275D01*
X0057914Y0097227D01*
X0057970Y0097183D01*
X0058028Y0097141D01*
X0058088Y0097103D01*
X0058150Y0097067D01*
X0058214Y0097036D01*
X0058280Y0097008D01*
X0058346Y0096983D01*
X0058415Y0096962D01*
X0058484Y0096945D01*
X0058554Y0096931D01*
X0058625Y0096922D01*
X0058696Y0096916D01*
X0058767Y0096914D01*
X0057450Y0100425D02*
X0065350Y0100425D01*
X0074300Y0134628D02*
X0074145Y0134630D01*
X0073989Y0134635D01*
X0073834Y0134645D01*
X0073679Y0134658D01*
X0073525Y0134674D01*
X0073371Y0134695D01*
X0073217Y0134719D01*
X0073064Y0134746D01*
X0072912Y0134778D01*
X0072761Y0134813D01*
X0072610Y0134851D01*
X0072460Y0134893D01*
X0072312Y0134939D01*
X0072164Y0134988D01*
X0072018Y0135041D01*
X0071873Y0135097D01*
X0071730Y0135157D01*
X0071588Y0135220D01*
X0071447Y0135286D01*
X0083250Y0134681D02*
X0083250Y0132706D01*
X0083252Y0132629D01*
X0083258Y0132553D01*
X0083267Y0132477D01*
X0083280Y0132402D01*
X0083297Y0132327D01*
X0083318Y0132253D01*
X0083343Y0132181D01*
X0083371Y0132109D01*
X0083402Y0132040D01*
X0083437Y0131971D01*
X0083475Y0131905D01*
X0083517Y0131841D01*
X0083562Y0131779D01*
X0083609Y0131719D01*
X0083660Y0131661D01*
X0083714Y0131606D01*
X0083770Y0131554D01*
X0083828Y0131505D01*
X0083889Y0131459D01*
X0083953Y0131416D01*
X0084018Y0131376D01*
X0084085Y0131339D01*
X0084154Y0131306D01*
X0084225Y0131276D01*
X0084297Y0131250D01*
X0084370Y0131227D01*
X0084444Y0131209D01*
X0084519Y0131193D01*
X0084595Y0131182D01*
X0084671Y0131174D01*
X0084748Y0131170D01*
X0084824Y0131170D01*
X0084901Y0131174D01*
X0084977Y0131182D01*
X0085053Y0131193D01*
X0085128Y0131209D01*
X0085202Y0131227D01*
X0085275Y0131250D01*
X0085347Y0131276D01*
X0085418Y0131306D01*
X0085487Y0131339D01*
X0085554Y0131376D01*
X0085619Y0131416D01*
X0085683Y0131459D01*
X0085744Y0131505D01*
X0085802Y0131554D01*
X0085858Y0131606D01*
X0085912Y0131661D01*
X0085963Y0131719D01*
X0086010Y0131779D01*
X0086055Y0131841D01*
X0086097Y0131905D01*
X0086135Y0131971D01*
X0086170Y0132040D01*
X0086201Y0132109D01*
X0086229Y0132181D01*
X0086254Y0132253D01*
X0086275Y0132327D01*
X0086292Y0132402D01*
X0086305Y0132477D01*
X0086314Y0132553D01*
X0086320Y0132629D01*
X0086322Y0132706D01*
X0086322Y0134681D01*
X0087200Y0134681D02*
X0083250Y0134681D01*
X0085444Y0127723D02*
X0086322Y0125528D01*
X0086349Y0125467D01*
X0086380Y0125407D01*
X0086413Y0125349D01*
X0086451Y0125293D01*
X0086491Y0125239D01*
X0086535Y0125188D01*
X0086581Y0125140D01*
X0086630Y0125094D01*
X0086682Y0125051D01*
X0086737Y0125012D01*
X0086793Y0124975D01*
X0086852Y0124942D01*
X0086912Y0124913D01*
X0086974Y0124887D01*
X0087038Y0124865D01*
X0087102Y0124847D01*
X0087168Y0124833D01*
X0087234Y0124822D01*
X0087301Y0124816D01*
X0087368Y0124813D01*
X0087436Y0124814D01*
X0087503Y0124820D01*
X0087569Y0124829D01*
X0087635Y0124842D01*
X0087700Y0124859D01*
X0087764Y0124880D01*
X0087826Y0124905D01*
X0087887Y0124933D01*
X0087947Y0124965D01*
X0088004Y0125000D01*
X0088059Y0125038D01*
X0088112Y0125080D01*
X0088162Y0125125D01*
X0088209Y0125172D01*
X0088254Y0125223D01*
X0088295Y0125276D01*
X0088333Y0125331D01*
X0088368Y0125388D01*
X0088400Y0125448D01*
X0088428Y0125509D01*
X0088452Y0125571D01*
X0088472Y0125635D01*
X0088489Y0125701D01*
X0088502Y0125766D01*
X0088511Y0125833D01*
X0088516Y0125900D01*
X0088517Y0125967D01*
X0083690Y0124870D02*
X0083632Y0125036D01*
X0083578Y0125204D01*
X0083529Y0125373D01*
X0083483Y0125543D01*
X0083441Y0125714D01*
X0083404Y0125886D01*
X0083370Y0126059D01*
X0083341Y0126232D01*
X0083315Y0126406D01*
X0083294Y0126581D01*
X0083277Y0126756D01*
X0083264Y0126932D01*
X0083255Y0127108D01*
X0083251Y0127284D01*
X0083250Y0127284D02*
X0083251Y0127351D01*
X0083256Y0127418D01*
X0083265Y0127485D01*
X0083278Y0127550D01*
X0083295Y0127616D01*
X0083315Y0127680D01*
X0083339Y0127742D01*
X0083367Y0127803D01*
X0083399Y0127863D01*
X0083434Y0127920D01*
X0083472Y0127975D01*
X0083513Y0128028D01*
X0083558Y0128079D01*
X0083605Y0128126D01*
X0083655Y0128171D01*
X0083708Y0128213D01*
X0083763Y0128251D01*
X0083820Y0128286D01*
X0083880Y0128318D01*
X0083941Y0128346D01*
X0084003Y0128371D01*
X0084067Y0128392D01*
X0084132Y0128409D01*
X0084198Y0128422D01*
X0084264Y0128431D01*
X0084331Y0128437D01*
X0084399Y0128438D01*
X0084466Y0128435D01*
X0084533Y0128429D01*
X0084599Y0128418D01*
X0084665Y0128404D01*
X0084729Y0128386D01*
X0084793Y0128364D01*
X0084855Y0128338D01*
X0084915Y0128309D01*
X0084974Y0128276D01*
X0085030Y0128239D01*
X0085085Y0128200D01*
X0085137Y0128157D01*
X0085186Y0128111D01*
X0085232Y0128063D01*
X0085276Y0128012D01*
X0085316Y0127958D01*
X0085354Y0127902D01*
X0085387Y0127844D01*
X0085418Y0127784D01*
X0085445Y0127723D01*
X0088517Y0133364D02*
X0088515Y0133435D01*
X0088509Y0133506D01*
X0088500Y0133577D01*
X0088486Y0133647D01*
X0088469Y0133716D01*
X0088448Y0133785D01*
X0088423Y0133851D01*
X0088395Y0133917D01*
X0088364Y0133981D01*
X0088328Y0134043D01*
X0088290Y0134103D01*
X0088248Y0134161D01*
X0088204Y0134217D01*
X0088156Y0134270D01*
X0088106Y0134320D01*
X0088053Y0134368D01*
X0087997Y0134412D01*
X0087939Y0134454D01*
X0087879Y0134492D01*
X0087817Y0134528D01*
X0087753Y0134559D01*
X0087687Y0134587D01*
X0087621Y0134612D01*
X0087552Y0134633D01*
X0087483Y0134650D01*
X0087413Y0134664D01*
X0087342Y0134673D01*
X0087271Y0134679D01*
X0087200Y0134681D01*
X0088517Y0133364D02*
X0088517Y0131609D01*
X0088517Y0141413D02*
X0083250Y0143169D01*
X0088517Y0144924D01*
X0087639Y0151274D02*
X0087703Y0151338D01*
X0087769Y0151399D01*
X0087838Y0151458D01*
X0087910Y0151513D01*
X0087983Y0151566D01*
X0088059Y0151615D01*
X0088137Y0151661D01*
X0088217Y0151703D01*
X0088298Y0151742D01*
X0088381Y0151778D01*
X0088466Y0151810D01*
X0088552Y0151838D01*
X0088639Y0151863D01*
X0088726Y0151884D01*
X0088815Y0151901D01*
X0088905Y0151915D01*
X0088994Y0151924D01*
X0089085Y0151930D01*
X0089175Y0151932D01*
X0089261Y0151930D01*
X0089347Y0151924D01*
X0089433Y0151915D01*
X0089518Y0151902D01*
X0089602Y0151885D01*
X0089686Y0151865D01*
X0089769Y0151841D01*
X0089850Y0151813D01*
X0089931Y0151782D01*
X0090010Y0151747D01*
X0090087Y0151709D01*
X0090163Y0151667D01*
X0090236Y0151623D01*
X0090308Y0151575D01*
X0090377Y0151524D01*
X0090445Y0151470D01*
X0090509Y0151413D01*
X0090572Y0151354D01*
X0090631Y0151291D01*
X0090688Y0151227D01*
X0090742Y0151159D01*
X0090793Y0151090D01*
X0090841Y0151018D01*
X0090885Y0150945D01*
X0090927Y0150869D01*
X0090965Y0150792D01*
X0091000Y0150713D01*
X0091031Y0150632D01*
X0091059Y0150551D01*
X0091083Y0150468D01*
X0091103Y0150384D01*
X0091120Y0150300D01*
X0091133Y0150215D01*
X0091142Y0150129D01*
X0091148Y0150043D01*
X0091150Y0149957D01*
X0091148Y0149857D01*
X0091142Y0149758D01*
X0091132Y0149659D01*
X0091119Y0149560D01*
X0091101Y0149462D01*
X0091080Y0149364D01*
X0091055Y0149268D01*
X0091026Y0149172D01*
X0090993Y0149078D01*
X0090957Y0148985D01*
X0090917Y0148894D01*
X0090873Y0148804D01*
X0090826Y0148717D01*
X0090776Y0148631D01*
X0090722Y0148547D01*
X0090665Y0148465D01*
X0090605Y0148385D01*
X0090541Y0148308D01*
X0090475Y0148234D01*
X0090406Y0148162D01*
X0090334Y0148093D01*
X0090259Y0148027D01*
X0090182Y0147964D01*
X0090103Y0147903D01*
X0090021Y0147846D01*
X0089937Y0147793D01*
X0089851Y0147742D01*
X0089763Y0147696D01*
X0089673Y0147652D01*
X0089582Y0147612D01*
X0089489Y0147576D01*
X0089395Y0147543D01*
X0087639Y0151274D02*
X0083250Y0147543D01*
X0083250Y0151932D01*
X0083250Y0154627D02*
X0083250Y0155066D01*
X0083689Y0155066D01*
X0083689Y0154627D01*
X0083250Y0154627D01*
X0085006Y0158200D02*
X0089394Y0161711D01*
X0090053Y0161492D02*
X0090125Y0161465D01*
X0090197Y0161435D01*
X0090266Y0161401D01*
X0090335Y0161364D01*
X0090401Y0161324D01*
X0090465Y0161281D01*
X0090527Y0161235D01*
X0090587Y0161185D01*
X0090644Y0161133D01*
X0090699Y0161079D01*
X0090752Y0161022D01*
X0090801Y0160962D01*
X0090847Y0160900D01*
X0090891Y0160836D01*
X0090931Y0160770D01*
X0090969Y0160702D01*
X0091003Y0160632D01*
X0091033Y0160561D01*
X0091060Y0160488D01*
X0091084Y0160415D01*
X0091104Y0160340D01*
X0091121Y0160264D01*
X0091133Y0160188D01*
X0091143Y0160111D01*
X0091148Y0160033D01*
X0091150Y0159956D01*
X0091148Y0159879D01*
X0091143Y0159801D01*
X0091133Y0159724D01*
X0091121Y0159648D01*
X0091104Y0159572D01*
X0091084Y0159497D01*
X0091060Y0159424D01*
X0091033Y0159351D01*
X0091003Y0159280D01*
X0090969Y0159210D01*
X0090931Y0159142D01*
X0090891Y0159076D01*
X0090848Y0159012D01*
X0090801Y0158950D01*
X0090752Y0158890D01*
X0090699Y0158833D01*
X0090644Y0158779D01*
X0090587Y0158727D01*
X0090527Y0158677D01*
X0090465Y0158631D01*
X0090401Y0158588D01*
X0090335Y0158548D01*
X0090266Y0158511D01*
X0090197Y0158477D01*
X0090125Y0158447D01*
X0090053Y0158420D01*
X0090053Y0161492D02*
X0089912Y0161558D01*
X0089770Y0161621D01*
X0089627Y0161681D01*
X0089482Y0161737D01*
X0089336Y0161790D01*
X0089188Y0161839D01*
X0089040Y0161885D01*
X0088890Y0161927D01*
X0088739Y0161965D01*
X0088588Y0162000D01*
X0088436Y0162032D01*
X0088283Y0162059D01*
X0088129Y0162083D01*
X0087975Y0162104D01*
X0087821Y0162120D01*
X0087666Y0162133D01*
X0087511Y0162143D01*
X0087355Y0162148D01*
X0087200Y0162150D01*
X0087200Y0157761D02*
X0087355Y0157763D01*
X0087511Y0157768D01*
X0087666Y0157778D01*
X0087821Y0157791D01*
X0087975Y0157807D01*
X0088129Y0157828D01*
X0088283Y0157852D01*
X0088436Y0157879D01*
X0088588Y0157911D01*
X0088739Y0157946D01*
X0088890Y0157984D01*
X0089040Y0158026D01*
X0089188Y0158072D01*
X0089336Y0158121D01*
X0089482Y0158174D01*
X0089627Y0158230D01*
X0089770Y0158290D01*
X0089912Y0158353D01*
X0090053Y0158419D01*
X0087200Y0162150D02*
X0087045Y0162148D01*
X0086889Y0162143D01*
X0086734Y0162133D01*
X0086579Y0162120D01*
X0086425Y0162104D01*
X0086271Y0162083D01*
X0086117Y0162059D01*
X0085964Y0162032D01*
X0085812Y0162000D01*
X0085661Y0161965D01*
X0085510Y0161927D01*
X0085360Y0161885D01*
X0085212Y0161839D01*
X0085064Y0161790D01*
X0084918Y0161737D01*
X0084773Y0161681D01*
X0084630Y0161621D01*
X0084488Y0161558D01*
X0084347Y0161492D01*
X0084275Y0161465D01*
X0084203Y0161435D01*
X0084134Y0161401D01*
X0084065Y0161364D01*
X0083999Y0161324D01*
X0083935Y0161281D01*
X0083873Y0161235D01*
X0083813Y0161185D01*
X0083756Y0161133D01*
X0083701Y0161079D01*
X0083648Y0161022D01*
X0083599Y0160962D01*
X0083552Y0160900D01*
X0083509Y0160836D01*
X0083469Y0160770D01*
X0083431Y0160702D01*
X0083397Y0160632D01*
X0083367Y0160561D01*
X0083340Y0160488D01*
X0083316Y0160415D01*
X0083296Y0160340D01*
X0083279Y0160264D01*
X0083267Y0160188D01*
X0083257Y0160111D01*
X0083252Y0160033D01*
X0083250Y0159956D01*
X0083252Y0159879D01*
X0083257Y0159801D01*
X0083267Y0159724D01*
X0083279Y0159648D01*
X0083296Y0159572D01*
X0083316Y0159497D01*
X0083340Y0159424D01*
X0083367Y0159351D01*
X0083397Y0159280D01*
X0083431Y0159210D01*
X0083469Y0159142D01*
X0083509Y0159076D01*
X0083552Y0159012D01*
X0083599Y0158950D01*
X0083648Y0158890D01*
X0083701Y0158833D01*
X0083756Y0158779D01*
X0083813Y0158727D01*
X0083873Y0158677D01*
X0083935Y0158631D01*
X0083999Y0158588D01*
X0084065Y0158548D01*
X0084134Y0158511D01*
X0084203Y0158477D01*
X0084275Y0158447D01*
X0084347Y0158420D01*
X0084347Y0158419D02*
X0084488Y0158353D01*
X0084630Y0158290D01*
X0084773Y0158230D01*
X0084918Y0158174D01*
X0085064Y0158121D01*
X0085212Y0158072D01*
X0085360Y0158026D01*
X0085510Y0157984D01*
X0085661Y0157946D01*
X0085812Y0157911D01*
X0085964Y0157879D01*
X0086117Y0157852D01*
X0086271Y0157828D01*
X0086425Y0157807D01*
X0086579Y0157791D01*
X0086734Y0157778D01*
X0086889Y0157768D01*
X0087045Y0157763D01*
X0087200Y0157761D01*
X0088078Y0127942D02*
X0088132Y0127818D01*
X0088182Y0127692D01*
X0088230Y0127564D01*
X0088273Y0127436D01*
X0088313Y0127306D01*
X0088350Y0127175D01*
X0088383Y0127043D01*
X0088413Y0126911D01*
X0088438Y0126777D01*
X0088461Y0126643D01*
X0088479Y0126509D01*
X0088494Y0126374D01*
X0088505Y0126239D01*
X0088513Y0126103D01*
X0088516Y0125967D01*
X0083251Y0120959D02*
X0083255Y0120783D01*
X0083264Y0120607D01*
X0083277Y0120431D01*
X0083294Y0120256D01*
X0083315Y0120081D01*
X0083341Y0119907D01*
X0083370Y0119734D01*
X0083404Y0119561D01*
X0083441Y0119389D01*
X0083483Y0119218D01*
X0083529Y0119048D01*
X0083578Y0118879D01*
X0083632Y0118711D01*
X0083690Y0118545D01*
X0088516Y0119642D02*
X0088513Y0119778D01*
X0088505Y0119914D01*
X0088494Y0120049D01*
X0088479Y0120184D01*
X0088461Y0120318D01*
X0088438Y0120452D01*
X0088413Y0120586D01*
X0088383Y0120718D01*
X0088350Y0120850D01*
X0088313Y0120981D01*
X0088273Y0121111D01*
X0088230Y0121239D01*
X0088182Y0121367D01*
X0088132Y0121493D01*
X0088078Y0121617D01*
X0088517Y0119642D02*
X0088516Y0119575D01*
X0088511Y0119508D01*
X0088502Y0119441D01*
X0088489Y0119376D01*
X0088472Y0119310D01*
X0088452Y0119246D01*
X0088428Y0119184D01*
X0088400Y0119123D01*
X0088368Y0119063D01*
X0088333Y0119006D01*
X0088295Y0118951D01*
X0088254Y0118898D01*
X0088209Y0118847D01*
X0088162Y0118800D01*
X0088112Y0118755D01*
X0088059Y0118713D01*
X0088004Y0118675D01*
X0087947Y0118640D01*
X0087887Y0118608D01*
X0087826Y0118580D01*
X0087764Y0118555D01*
X0087700Y0118534D01*
X0087635Y0118517D01*
X0087569Y0118504D01*
X0087503Y0118495D01*
X0087436Y0118489D01*
X0087368Y0118488D01*
X0087301Y0118491D01*
X0087234Y0118497D01*
X0087168Y0118508D01*
X0087102Y0118522D01*
X0087038Y0118540D01*
X0086974Y0118562D01*
X0086912Y0118588D01*
X0086852Y0118617D01*
X0086793Y0118650D01*
X0086737Y0118687D01*
X0086682Y0118726D01*
X0086630Y0118769D01*
X0086581Y0118815D01*
X0086535Y0118863D01*
X0086491Y0118914D01*
X0086451Y0118968D01*
X0086413Y0119024D01*
X0086380Y0119082D01*
X0086349Y0119142D01*
X0086322Y0119203D01*
X0085444Y0121397D01*
X0085445Y0121398D02*
X0085418Y0121459D01*
X0085387Y0121519D01*
X0085354Y0121577D01*
X0085316Y0121633D01*
X0085276Y0121687D01*
X0085232Y0121738D01*
X0085186Y0121786D01*
X0085137Y0121832D01*
X0085085Y0121875D01*
X0085030Y0121914D01*
X0084974Y0121951D01*
X0084915Y0121984D01*
X0084855Y0122013D01*
X0084793Y0122039D01*
X0084729Y0122061D01*
X0084665Y0122079D01*
X0084599Y0122093D01*
X0084533Y0122104D01*
X0084466Y0122110D01*
X0084399Y0122113D01*
X0084331Y0122112D01*
X0084264Y0122106D01*
X0084198Y0122097D01*
X0084132Y0122084D01*
X0084067Y0122067D01*
X0084003Y0122046D01*
X0083941Y0122021D01*
X0083880Y0121993D01*
X0083820Y0121961D01*
X0083763Y0121926D01*
X0083708Y0121888D01*
X0083655Y0121846D01*
X0083605Y0121801D01*
X0083558Y0121754D01*
X0083513Y0121703D01*
X0083472Y0121650D01*
X0083434Y0121595D01*
X0083399Y0121538D01*
X0083367Y0121478D01*
X0083339Y0121417D01*
X0083315Y0121355D01*
X0083295Y0121291D01*
X0083278Y0121225D01*
X0083265Y0121160D01*
X0083256Y0121093D01*
X0083251Y0121026D01*
X0083250Y0120959D01*
X0083250Y0115678D02*
X0088517Y0115678D01*
X0087639Y0113113D02*
X0087639Y0109602D01*
X0087200Y0102324D02*
X0083250Y0102324D01*
X0083250Y0100349D01*
X0083252Y0100272D01*
X0083258Y0100196D01*
X0083267Y0100120D01*
X0083280Y0100045D01*
X0083297Y0099970D01*
X0083318Y0099896D01*
X0083343Y0099824D01*
X0083371Y0099752D01*
X0083402Y0099683D01*
X0083437Y0099614D01*
X0083475Y0099548D01*
X0083517Y0099484D01*
X0083562Y0099422D01*
X0083609Y0099362D01*
X0083660Y0099304D01*
X0083714Y0099249D01*
X0083770Y0099197D01*
X0083828Y0099148D01*
X0083889Y0099102D01*
X0083953Y0099059D01*
X0084018Y0099019D01*
X0084085Y0098982D01*
X0084154Y0098949D01*
X0084225Y0098919D01*
X0084297Y0098893D01*
X0084370Y0098870D01*
X0084444Y0098852D01*
X0084519Y0098836D01*
X0084595Y0098825D01*
X0084671Y0098817D01*
X0084748Y0098813D01*
X0084824Y0098813D01*
X0084901Y0098817D01*
X0084977Y0098825D01*
X0085053Y0098836D01*
X0085128Y0098852D01*
X0085202Y0098870D01*
X0085275Y0098893D01*
X0085347Y0098919D01*
X0085418Y0098949D01*
X0085487Y0098982D01*
X0085554Y0099019D01*
X0085619Y0099059D01*
X0085683Y0099102D01*
X0085744Y0099148D01*
X0085802Y0099197D01*
X0085858Y0099249D01*
X0085912Y0099304D01*
X0085963Y0099362D01*
X0086010Y0099422D01*
X0086055Y0099484D01*
X0086097Y0099548D01*
X0086135Y0099614D01*
X0086170Y0099683D01*
X0086201Y0099752D01*
X0086229Y0099824D01*
X0086254Y0099896D01*
X0086275Y0099970D01*
X0086292Y0100045D01*
X0086305Y0100120D01*
X0086314Y0100196D01*
X0086320Y0100272D01*
X0086322Y0100349D01*
X0086322Y0102324D01*
X0087200Y0102324D02*
X0087271Y0102322D01*
X0087342Y0102316D01*
X0087413Y0102307D01*
X0087483Y0102293D01*
X0087552Y0102276D01*
X0087621Y0102255D01*
X0087687Y0102230D01*
X0087753Y0102202D01*
X0087817Y0102171D01*
X0087879Y0102135D01*
X0087939Y0102097D01*
X0087997Y0102055D01*
X0088053Y0102011D01*
X0088106Y0101963D01*
X0088156Y0101913D01*
X0088204Y0101860D01*
X0088248Y0101804D01*
X0088290Y0101746D01*
X0088328Y0101686D01*
X0088364Y0101624D01*
X0088395Y0101560D01*
X0088423Y0101494D01*
X0088448Y0101428D01*
X0088469Y0101359D01*
X0088486Y0101290D01*
X0088500Y0101220D01*
X0088509Y0101149D01*
X0088515Y0101078D01*
X0088517Y0101007D01*
X0088517Y0099252D01*
X0088517Y0095972D02*
X0083250Y0095972D01*
X0083250Y0091084D02*
X0088517Y0091084D01*
X0088517Y0093718D01*
X0087639Y0093718D01*
X0085225Y0087729D02*
X0085225Y0083779D01*
X0083250Y0083120D02*
X0091150Y0085754D01*
X0083250Y0088387D01*
X0090711Y0095752D02*
X0090711Y0096191D01*
X0091150Y0096191D01*
X0091150Y0095752D01*
X0090711Y0095752D01*
X0091150Y0109602D02*
X0091150Y0113113D01*
X0091150Y0115458D02*
X0091150Y0115897D01*
X0090711Y0115897D01*
X0090711Y0115458D01*
X0091150Y0115458D01*
X0091150Y0109602D02*
X0083250Y0109602D01*
D11*
X0049500Y0302500D02*
X0049500Y0310500D01*
X0045500Y0306500D02*
X0053500Y0306500D01*
M02*
