G75*
%MOIN*%
%OFA0B0*%
%FSLAX25Y25*%
%IPPOS*%
%LPD*%
%AMOC8*
5,1,8,0,0,1.08239X$1,22.5*
%
%ADD10C,0.00000*%
%ADD11C,0.01000*%
%ADD12C,0.00600*%
D10*
X0020626Y0016500D02*
X0020628Y0016693D01*
X0020635Y0016886D01*
X0020647Y0017079D01*
X0020664Y0017272D01*
X0020685Y0017464D01*
X0020711Y0017655D01*
X0020742Y0017846D01*
X0020777Y0018036D01*
X0020817Y0018225D01*
X0020862Y0018413D01*
X0020911Y0018600D01*
X0020965Y0018786D01*
X0021023Y0018970D01*
X0021086Y0019153D01*
X0021154Y0019334D01*
X0021225Y0019513D01*
X0021302Y0019691D01*
X0021382Y0019867D01*
X0021467Y0020040D01*
X0021556Y0020212D01*
X0021649Y0020381D01*
X0021746Y0020548D01*
X0021848Y0020713D01*
X0021953Y0020875D01*
X0022062Y0021034D01*
X0022176Y0021191D01*
X0022293Y0021344D01*
X0022413Y0021495D01*
X0022538Y0021643D01*
X0022666Y0021788D01*
X0022797Y0021929D01*
X0022932Y0022068D01*
X0023071Y0022203D01*
X0023212Y0022334D01*
X0023357Y0022462D01*
X0023505Y0022587D01*
X0023656Y0022707D01*
X0023809Y0022824D01*
X0023966Y0022938D01*
X0024125Y0023047D01*
X0024287Y0023152D01*
X0024452Y0023254D01*
X0024619Y0023351D01*
X0024788Y0023444D01*
X0024960Y0023533D01*
X0025133Y0023618D01*
X0025309Y0023698D01*
X0025487Y0023775D01*
X0025666Y0023846D01*
X0025847Y0023914D01*
X0026030Y0023977D01*
X0026214Y0024035D01*
X0026400Y0024089D01*
X0026587Y0024138D01*
X0026775Y0024183D01*
X0026964Y0024223D01*
X0027154Y0024258D01*
X0027345Y0024289D01*
X0027536Y0024315D01*
X0027728Y0024336D01*
X0027921Y0024353D01*
X0028114Y0024365D01*
X0028307Y0024372D01*
X0028500Y0024374D01*
X0028693Y0024372D01*
X0028886Y0024365D01*
X0029079Y0024353D01*
X0029272Y0024336D01*
X0029464Y0024315D01*
X0029655Y0024289D01*
X0029846Y0024258D01*
X0030036Y0024223D01*
X0030225Y0024183D01*
X0030413Y0024138D01*
X0030600Y0024089D01*
X0030786Y0024035D01*
X0030970Y0023977D01*
X0031153Y0023914D01*
X0031334Y0023846D01*
X0031513Y0023775D01*
X0031691Y0023698D01*
X0031867Y0023618D01*
X0032040Y0023533D01*
X0032212Y0023444D01*
X0032381Y0023351D01*
X0032548Y0023254D01*
X0032713Y0023152D01*
X0032875Y0023047D01*
X0033034Y0022938D01*
X0033191Y0022824D01*
X0033344Y0022707D01*
X0033495Y0022587D01*
X0033643Y0022462D01*
X0033788Y0022334D01*
X0033929Y0022203D01*
X0034068Y0022068D01*
X0034203Y0021929D01*
X0034334Y0021788D01*
X0034462Y0021643D01*
X0034587Y0021495D01*
X0034707Y0021344D01*
X0034824Y0021191D01*
X0034938Y0021034D01*
X0035047Y0020875D01*
X0035152Y0020713D01*
X0035254Y0020548D01*
X0035351Y0020381D01*
X0035444Y0020212D01*
X0035533Y0020040D01*
X0035618Y0019867D01*
X0035698Y0019691D01*
X0035775Y0019513D01*
X0035846Y0019334D01*
X0035914Y0019153D01*
X0035977Y0018970D01*
X0036035Y0018786D01*
X0036089Y0018600D01*
X0036138Y0018413D01*
X0036183Y0018225D01*
X0036223Y0018036D01*
X0036258Y0017846D01*
X0036289Y0017655D01*
X0036315Y0017464D01*
X0036336Y0017272D01*
X0036353Y0017079D01*
X0036365Y0016886D01*
X0036372Y0016693D01*
X0036374Y0016500D01*
X0036372Y0016307D01*
X0036365Y0016114D01*
X0036353Y0015921D01*
X0036336Y0015728D01*
X0036315Y0015536D01*
X0036289Y0015345D01*
X0036258Y0015154D01*
X0036223Y0014964D01*
X0036183Y0014775D01*
X0036138Y0014587D01*
X0036089Y0014400D01*
X0036035Y0014214D01*
X0035977Y0014030D01*
X0035914Y0013847D01*
X0035846Y0013666D01*
X0035775Y0013487D01*
X0035698Y0013309D01*
X0035618Y0013133D01*
X0035533Y0012960D01*
X0035444Y0012788D01*
X0035351Y0012619D01*
X0035254Y0012452D01*
X0035152Y0012287D01*
X0035047Y0012125D01*
X0034938Y0011966D01*
X0034824Y0011809D01*
X0034707Y0011656D01*
X0034587Y0011505D01*
X0034462Y0011357D01*
X0034334Y0011212D01*
X0034203Y0011071D01*
X0034068Y0010932D01*
X0033929Y0010797D01*
X0033788Y0010666D01*
X0033643Y0010538D01*
X0033495Y0010413D01*
X0033344Y0010293D01*
X0033191Y0010176D01*
X0033034Y0010062D01*
X0032875Y0009953D01*
X0032713Y0009848D01*
X0032548Y0009746D01*
X0032381Y0009649D01*
X0032212Y0009556D01*
X0032040Y0009467D01*
X0031867Y0009382D01*
X0031691Y0009302D01*
X0031513Y0009225D01*
X0031334Y0009154D01*
X0031153Y0009086D01*
X0030970Y0009023D01*
X0030786Y0008965D01*
X0030600Y0008911D01*
X0030413Y0008862D01*
X0030225Y0008817D01*
X0030036Y0008777D01*
X0029846Y0008742D01*
X0029655Y0008711D01*
X0029464Y0008685D01*
X0029272Y0008664D01*
X0029079Y0008647D01*
X0028886Y0008635D01*
X0028693Y0008628D01*
X0028500Y0008626D01*
X0028307Y0008628D01*
X0028114Y0008635D01*
X0027921Y0008647D01*
X0027728Y0008664D01*
X0027536Y0008685D01*
X0027345Y0008711D01*
X0027154Y0008742D01*
X0026964Y0008777D01*
X0026775Y0008817D01*
X0026587Y0008862D01*
X0026400Y0008911D01*
X0026214Y0008965D01*
X0026030Y0009023D01*
X0025847Y0009086D01*
X0025666Y0009154D01*
X0025487Y0009225D01*
X0025309Y0009302D01*
X0025133Y0009382D01*
X0024960Y0009467D01*
X0024788Y0009556D01*
X0024619Y0009649D01*
X0024452Y0009746D01*
X0024287Y0009848D01*
X0024125Y0009953D01*
X0023966Y0010062D01*
X0023809Y0010176D01*
X0023656Y0010293D01*
X0023505Y0010413D01*
X0023357Y0010538D01*
X0023212Y0010666D01*
X0023071Y0010797D01*
X0022932Y0010932D01*
X0022797Y0011071D01*
X0022666Y0011212D01*
X0022538Y0011357D01*
X0022413Y0011505D01*
X0022293Y0011656D01*
X0022176Y0011809D01*
X0022062Y0011966D01*
X0021953Y0012125D01*
X0021848Y0012287D01*
X0021746Y0012452D01*
X0021649Y0012619D01*
X0021556Y0012788D01*
X0021467Y0012960D01*
X0021382Y0013133D01*
X0021302Y0013309D01*
X0021225Y0013487D01*
X0021154Y0013666D01*
X0021086Y0013847D01*
X0021023Y0014030D01*
X0020965Y0014214D01*
X0020911Y0014400D01*
X0020862Y0014587D01*
X0020817Y0014775D01*
X0020777Y0014964D01*
X0020742Y0015154D01*
X0020711Y0015345D01*
X0020685Y0015536D01*
X0020664Y0015728D01*
X0020647Y0015921D01*
X0020635Y0016114D01*
X0020628Y0016307D01*
X0020626Y0016500D01*
X0022201Y0041500D02*
X0022203Y0041658D01*
X0022209Y0041816D01*
X0022219Y0041974D01*
X0022233Y0042132D01*
X0022251Y0042289D01*
X0022272Y0042446D01*
X0022298Y0042602D01*
X0022328Y0042758D01*
X0022361Y0042913D01*
X0022399Y0043066D01*
X0022440Y0043219D01*
X0022485Y0043371D01*
X0022534Y0043522D01*
X0022587Y0043671D01*
X0022643Y0043819D01*
X0022703Y0043965D01*
X0022767Y0044110D01*
X0022835Y0044253D01*
X0022906Y0044395D01*
X0022980Y0044535D01*
X0023058Y0044672D01*
X0023140Y0044808D01*
X0023224Y0044942D01*
X0023313Y0045073D01*
X0023404Y0045202D01*
X0023499Y0045329D01*
X0023596Y0045454D01*
X0023697Y0045576D01*
X0023801Y0045695D01*
X0023908Y0045812D01*
X0024018Y0045926D01*
X0024131Y0046037D01*
X0024246Y0046146D01*
X0024364Y0046251D01*
X0024485Y0046353D01*
X0024608Y0046453D01*
X0024734Y0046549D01*
X0024862Y0046642D01*
X0024992Y0046732D01*
X0025125Y0046818D01*
X0025260Y0046902D01*
X0025396Y0046981D01*
X0025535Y0047058D01*
X0025676Y0047130D01*
X0025818Y0047200D01*
X0025962Y0047265D01*
X0026108Y0047327D01*
X0026255Y0047385D01*
X0026404Y0047440D01*
X0026554Y0047491D01*
X0026705Y0047538D01*
X0026857Y0047581D01*
X0027010Y0047620D01*
X0027165Y0047656D01*
X0027320Y0047687D01*
X0027476Y0047715D01*
X0027632Y0047739D01*
X0027789Y0047759D01*
X0027947Y0047775D01*
X0028104Y0047787D01*
X0028263Y0047795D01*
X0028421Y0047799D01*
X0028579Y0047799D01*
X0028737Y0047795D01*
X0028896Y0047787D01*
X0029053Y0047775D01*
X0029211Y0047759D01*
X0029368Y0047739D01*
X0029524Y0047715D01*
X0029680Y0047687D01*
X0029835Y0047656D01*
X0029990Y0047620D01*
X0030143Y0047581D01*
X0030295Y0047538D01*
X0030446Y0047491D01*
X0030596Y0047440D01*
X0030745Y0047385D01*
X0030892Y0047327D01*
X0031038Y0047265D01*
X0031182Y0047200D01*
X0031324Y0047130D01*
X0031465Y0047058D01*
X0031604Y0046981D01*
X0031740Y0046902D01*
X0031875Y0046818D01*
X0032008Y0046732D01*
X0032138Y0046642D01*
X0032266Y0046549D01*
X0032392Y0046453D01*
X0032515Y0046353D01*
X0032636Y0046251D01*
X0032754Y0046146D01*
X0032869Y0046037D01*
X0032982Y0045926D01*
X0033092Y0045812D01*
X0033199Y0045695D01*
X0033303Y0045576D01*
X0033404Y0045454D01*
X0033501Y0045329D01*
X0033596Y0045202D01*
X0033687Y0045073D01*
X0033776Y0044942D01*
X0033860Y0044808D01*
X0033942Y0044672D01*
X0034020Y0044535D01*
X0034094Y0044395D01*
X0034165Y0044253D01*
X0034233Y0044110D01*
X0034297Y0043965D01*
X0034357Y0043819D01*
X0034413Y0043671D01*
X0034466Y0043522D01*
X0034515Y0043371D01*
X0034560Y0043219D01*
X0034601Y0043066D01*
X0034639Y0042913D01*
X0034672Y0042758D01*
X0034702Y0042602D01*
X0034728Y0042446D01*
X0034749Y0042289D01*
X0034767Y0042132D01*
X0034781Y0041974D01*
X0034791Y0041816D01*
X0034797Y0041658D01*
X0034799Y0041500D01*
X0034797Y0041342D01*
X0034791Y0041184D01*
X0034781Y0041026D01*
X0034767Y0040868D01*
X0034749Y0040711D01*
X0034728Y0040554D01*
X0034702Y0040398D01*
X0034672Y0040242D01*
X0034639Y0040087D01*
X0034601Y0039934D01*
X0034560Y0039781D01*
X0034515Y0039629D01*
X0034466Y0039478D01*
X0034413Y0039329D01*
X0034357Y0039181D01*
X0034297Y0039035D01*
X0034233Y0038890D01*
X0034165Y0038747D01*
X0034094Y0038605D01*
X0034020Y0038465D01*
X0033942Y0038328D01*
X0033860Y0038192D01*
X0033776Y0038058D01*
X0033687Y0037927D01*
X0033596Y0037798D01*
X0033501Y0037671D01*
X0033404Y0037546D01*
X0033303Y0037424D01*
X0033199Y0037305D01*
X0033092Y0037188D01*
X0032982Y0037074D01*
X0032869Y0036963D01*
X0032754Y0036854D01*
X0032636Y0036749D01*
X0032515Y0036647D01*
X0032392Y0036547D01*
X0032266Y0036451D01*
X0032138Y0036358D01*
X0032008Y0036268D01*
X0031875Y0036182D01*
X0031740Y0036098D01*
X0031604Y0036019D01*
X0031465Y0035942D01*
X0031324Y0035870D01*
X0031182Y0035800D01*
X0031038Y0035735D01*
X0030892Y0035673D01*
X0030745Y0035615D01*
X0030596Y0035560D01*
X0030446Y0035509D01*
X0030295Y0035462D01*
X0030143Y0035419D01*
X0029990Y0035380D01*
X0029835Y0035344D01*
X0029680Y0035313D01*
X0029524Y0035285D01*
X0029368Y0035261D01*
X0029211Y0035241D01*
X0029053Y0035225D01*
X0028896Y0035213D01*
X0028737Y0035205D01*
X0028579Y0035201D01*
X0028421Y0035201D01*
X0028263Y0035205D01*
X0028104Y0035213D01*
X0027947Y0035225D01*
X0027789Y0035241D01*
X0027632Y0035261D01*
X0027476Y0035285D01*
X0027320Y0035313D01*
X0027165Y0035344D01*
X0027010Y0035380D01*
X0026857Y0035419D01*
X0026705Y0035462D01*
X0026554Y0035509D01*
X0026404Y0035560D01*
X0026255Y0035615D01*
X0026108Y0035673D01*
X0025962Y0035735D01*
X0025818Y0035800D01*
X0025676Y0035870D01*
X0025535Y0035942D01*
X0025396Y0036019D01*
X0025260Y0036098D01*
X0025125Y0036182D01*
X0024992Y0036268D01*
X0024862Y0036358D01*
X0024734Y0036451D01*
X0024608Y0036547D01*
X0024485Y0036647D01*
X0024364Y0036749D01*
X0024246Y0036854D01*
X0024131Y0036963D01*
X0024018Y0037074D01*
X0023908Y0037188D01*
X0023801Y0037305D01*
X0023697Y0037424D01*
X0023596Y0037546D01*
X0023499Y0037671D01*
X0023404Y0037798D01*
X0023313Y0037927D01*
X0023224Y0038058D01*
X0023140Y0038192D01*
X0023058Y0038328D01*
X0022980Y0038465D01*
X0022906Y0038605D01*
X0022835Y0038747D01*
X0022767Y0038890D01*
X0022703Y0039035D01*
X0022643Y0039181D01*
X0022587Y0039329D01*
X0022534Y0039478D01*
X0022485Y0039629D01*
X0022440Y0039781D01*
X0022399Y0039934D01*
X0022361Y0040087D01*
X0022328Y0040242D01*
X0022298Y0040398D01*
X0022272Y0040554D01*
X0022251Y0040711D01*
X0022233Y0040868D01*
X0022219Y0041026D01*
X0022209Y0041184D01*
X0022203Y0041342D01*
X0022201Y0041500D01*
X0022201Y0211500D02*
X0022203Y0211658D01*
X0022209Y0211816D01*
X0022219Y0211974D01*
X0022233Y0212132D01*
X0022251Y0212289D01*
X0022272Y0212446D01*
X0022298Y0212602D01*
X0022328Y0212758D01*
X0022361Y0212913D01*
X0022399Y0213066D01*
X0022440Y0213219D01*
X0022485Y0213371D01*
X0022534Y0213522D01*
X0022587Y0213671D01*
X0022643Y0213819D01*
X0022703Y0213965D01*
X0022767Y0214110D01*
X0022835Y0214253D01*
X0022906Y0214395D01*
X0022980Y0214535D01*
X0023058Y0214672D01*
X0023140Y0214808D01*
X0023224Y0214942D01*
X0023313Y0215073D01*
X0023404Y0215202D01*
X0023499Y0215329D01*
X0023596Y0215454D01*
X0023697Y0215576D01*
X0023801Y0215695D01*
X0023908Y0215812D01*
X0024018Y0215926D01*
X0024131Y0216037D01*
X0024246Y0216146D01*
X0024364Y0216251D01*
X0024485Y0216353D01*
X0024608Y0216453D01*
X0024734Y0216549D01*
X0024862Y0216642D01*
X0024992Y0216732D01*
X0025125Y0216818D01*
X0025260Y0216902D01*
X0025396Y0216981D01*
X0025535Y0217058D01*
X0025676Y0217130D01*
X0025818Y0217200D01*
X0025962Y0217265D01*
X0026108Y0217327D01*
X0026255Y0217385D01*
X0026404Y0217440D01*
X0026554Y0217491D01*
X0026705Y0217538D01*
X0026857Y0217581D01*
X0027010Y0217620D01*
X0027165Y0217656D01*
X0027320Y0217687D01*
X0027476Y0217715D01*
X0027632Y0217739D01*
X0027789Y0217759D01*
X0027947Y0217775D01*
X0028104Y0217787D01*
X0028263Y0217795D01*
X0028421Y0217799D01*
X0028579Y0217799D01*
X0028737Y0217795D01*
X0028896Y0217787D01*
X0029053Y0217775D01*
X0029211Y0217759D01*
X0029368Y0217739D01*
X0029524Y0217715D01*
X0029680Y0217687D01*
X0029835Y0217656D01*
X0029990Y0217620D01*
X0030143Y0217581D01*
X0030295Y0217538D01*
X0030446Y0217491D01*
X0030596Y0217440D01*
X0030745Y0217385D01*
X0030892Y0217327D01*
X0031038Y0217265D01*
X0031182Y0217200D01*
X0031324Y0217130D01*
X0031465Y0217058D01*
X0031604Y0216981D01*
X0031740Y0216902D01*
X0031875Y0216818D01*
X0032008Y0216732D01*
X0032138Y0216642D01*
X0032266Y0216549D01*
X0032392Y0216453D01*
X0032515Y0216353D01*
X0032636Y0216251D01*
X0032754Y0216146D01*
X0032869Y0216037D01*
X0032982Y0215926D01*
X0033092Y0215812D01*
X0033199Y0215695D01*
X0033303Y0215576D01*
X0033404Y0215454D01*
X0033501Y0215329D01*
X0033596Y0215202D01*
X0033687Y0215073D01*
X0033776Y0214942D01*
X0033860Y0214808D01*
X0033942Y0214672D01*
X0034020Y0214535D01*
X0034094Y0214395D01*
X0034165Y0214253D01*
X0034233Y0214110D01*
X0034297Y0213965D01*
X0034357Y0213819D01*
X0034413Y0213671D01*
X0034466Y0213522D01*
X0034515Y0213371D01*
X0034560Y0213219D01*
X0034601Y0213066D01*
X0034639Y0212913D01*
X0034672Y0212758D01*
X0034702Y0212602D01*
X0034728Y0212446D01*
X0034749Y0212289D01*
X0034767Y0212132D01*
X0034781Y0211974D01*
X0034791Y0211816D01*
X0034797Y0211658D01*
X0034799Y0211500D01*
X0034797Y0211342D01*
X0034791Y0211184D01*
X0034781Y0211026D01*
X0034767Y0210868D01*
X0034749Y0210711D01*
X0034728Y0210554D01*
X0034702Y0210398D01*
X0034672Y0210242D01*
X0034639Y0210087D01*
X0034601Y0209934D01*
X0034560Y0209781D01*
X0034515Y0209629D01*
X0034466Y0209478D01*
X0034413Y0209329D01*
X0034357Y0209181D01*
X0034297Y0209035D01*
X0034233Y0208890D01*
X0034165Y0208747D01*
X0034094Y0208605D01*
X0034020Y0208465D01*
X0033942Y0208328D01*
X0033860Y0208192D01*
X0033776Y0208058D01*
X0033687Y0207927D01*
X0033596Y0207798D01*
X0033501Y0207671D01*
X0033404Y0207546D01*
X0033303Y0207424D01*
X0033199Y0207305D01*
X0033092Y0207188D01*
X0032982Y0207074D01*
X0032869Y0206963D01*
X0032754Y0206854D01*
X0032636Y0206749D01*
X0032515Y0206647D01*
X0032392Y0206547D01*
X0032266Y0206451D01*
X0032138Y0206358D01*
X0032008Y0206268D01*
X0031875Y0206182D01*
X0031740Y0206098D01*
X0031604Y0206019D01*
X0031465Y0205942D01*
X0031324Y0205870D01*
X0031182Y0205800D01*
X0031038Y0205735D01*
X0030892Y0205673D01*
X0030745Y0205615D01*
X0030596Y0205560D01*
X0030446Y0205509D01*
X0030295Y0205462D01*
X0030143Y0205419D01*
X0029990Y0205380D01*
X0029835Y0205344D01*
X0029680Y0205313D01*
X0029524Y0205285D01*
X0029368Y0205261D01*
X0029211Y0205241D01*
X0029053Y0205225D01*
X0028896Y0205213D01*
X0028737Y0205205D01*
X0028579Y0205201D01*
X0028421Y0205201D01*
X0028263Y0205205D01*
X0028104Y0205213D01*
X0027947Y0205225D01*
X0027789Y0205241D01*
X0027632Y0205261D01*
X0027476Y0205285D01*
X0027320Y0205313D01*
X0027165Y0205344D01*
X0027010Y0205380D01*
X0026857Y0205419D01*
X0026705Y0205462D01*
X0026554Y0205509D01*
X0026404Y0205560D01*
X0026255Y0205615D01*
X0026108Y0205673D01*
X0025962Y0205735D01*
X0025818Y0205800D01*
X0025676Y0205870D01*
X0025535Y0205942D01*
X0025396Y0206019D01*
X0025260Y0206098D01*
X0025125Y0206182D01*
X0024992Y0206268D01*
X0024862Y0206358D01*
X0024734Y0206451D01*
X0024608Y0206547D01*
X0024485Y0206647D01*
X0024364Y0206749D01*
X0024246Y0206854D01*
X0024131Y0206963D01*
X0024018Y0207074D01*
X0023908Y0207188D01*
X0023801Y0207305D01*
X0023697Y0207424D01*
X0023596Y0207546D01*
X0023499Y0207671D01*
X0023404Y0207798D01*
X0023313Y0207927D01*
X0023224Y0208058D01*
X0023140Y0208192D01*
X0023058Y0208328D01*
X0022980Y0208465D01*
X0022906Y0208605D01*
X0022835Y0208747D01*
X0022767Y0208890D01*
X0022703Y0209035D01*
X0022643Y0209181D01*
X0022587Y0209329D01*
X0022534Y0209478D01*
X0022485Y0209629D01*
X0022440Y0209781D01*
X0022399Y0209934D01*
X0022361Y0210087D01*
X0022328Y0210242D01*
X0022298Y0210398D01*
X0022272Y0210554D01*
X0022251Y0210711D01*
X0022233Y0210868D01*
X0022219Y0211026D01*
X0022209Y0211184D01*
X0022203Y0211342D01*
X0022201Y0211500D01*
X0020626Y0346500D02*
X0020628Y0346693D01*
X0020635Y0346886D01*
X0020647Y0347079D01*
X0020664Y0347272D01*
X0020685Y0347464D01*
X0020711Y0347655D01*
X0020742Y0347846D01*
X0020777Y0348036D01*
X0020817Y0348225D01*
X0020862Y0348413D01*
X0020911Y0348600D01*
X0020965Y0348786D01*
X0021023Y0348970D01*
X0021086Y0349153D01*
X0021154Y0349334D01*
X0021225Y0349513D01*
X0021302Y0349691D01*
X0021382Y0349867D01*
X0021467Y0350040D01*
X0021556Y0350212D01*
X0021649Y0350381D01*
X0021746Y0350548D01*
X0021848Y0350713D01*
X0021953Y0350875D01*
X0022062Y0351034D01*
X0022176Y0351191D01*
X0022293Y0351344D01*
X0022413Y0351495D01*
X0022538Y0351643D01*
X0022666Y0351788D01*
X0022797Y0351929D01*
X0022932Y0352068D01*
X0023071Y0352203D01*
X0023212Y0352334D01*
X0023357Y0352462D01*
X0023505Y0352587D01*
X0023656Y0352707D01*
X0023809Y0352824D01*
X0023966Y0352938D01*
X0024125Y0353047D01*
X0024287Y0353152D01*
X0024452Y0353254D01*
X0024619Y0353351D01*
X0024788Y0353444D01*
X0024960Y0353533D01*
X0025133Y0353618D01*
X0025309Y0353698D01*
X0025487Y0353775D01*
X0025666Y0353846D01*
X0025847Y0353914D01*
X0026030Y0353977D01*
X0026214Y0354035D01*
X0026400Y0354089D01*
X0026587Y0354138D01*
X0026775Y0354183D01*
X0026964Y0354223D01*
X0027154Y0354258D01*
X0027345Y0354289D01*
X0027536Y0354315D01*
X0027728Y0354336D01*
X0027921Y0354353D01*
X0028114Y0354365D01*
X0028307Y0354372D01*
X0028500Y0354374D01*
X0028693Y0354372D01*
X0028886Y0354365D01*
X0029079Y0354353D01*
X0029272Y0354336D01*
X0029464Y0354315D01*
X0029655Y0354289D01*
X0029846Y0354258D01*
X0030036Y0354223D01*
X0030225Y0354183D01*
X0030413Y0354138D01*
X0030600Y0354089D01*
X0030786Y0354035D01*
X0030970Y0353977D01*
X0031153Y0353914D01*
X0031334Y0353846D01*
X0031513Y0353775D01*
X0031691Y0353698D01*
X0031867Y0353618D01*
X0032040Y0353533D01*
X0032212Y0353444D01*
X0032381Y0353351D01*
X0032548Y0353254D01*
X0032713Y0353152D01*
X0032875Y0353047D01*
X0033034Y0352938D01*
X0033191Y0352824D01*
X0033344Y0352707D01*
X0033495Y0352587D01*
X0033643Y0352462D01*
X0033788Y0352334D01*
X0033929Y0352203D01*
X0034068Y0352068D01*
X0034203Y0351929D01*
X0034334Y0351788D01*
X0034462Y0351643D01*
X0034587Y0351495D01*
X0034707Y0351344D01*
X0034824Y0351191D01*
X0034938Y0351034D01*
X0035047Y0350875D01*
X0035152Y0350713D01*
X0035254Y0350548D01*
X0035351Y0350381D01*
X0035444Y0350212D01*
X0035533Y0350040D01*
X0035618Y0349867D01*
X0035698Y0349691D01*
X0035775Y0349513D01*
X0035846Y0349334D01*
X0035914Y0349153D01*
X0035977Y0348970D01*
X0036035Y0348786D01*
X0036089Y0348600D01*
X0036138Y0348413D01*
X0036183Y0348225D01*
X0036223Y0348036D01*
X0036258Y0347846D01*
X0036289Y0347655D01*
X0036315Y0347464D01*
X0036336Y0347272D01*
X0036353Y0347079D01*
X0036365Y0346886D01*
X0036372Y0346693D01*
X0036374Y0346500D01*
X0036372Y0346307D01*
X0036365Y0346114D01*
X0036353Y0345921D01*
X0036336Y0345728D01*
X0036315Y0345536D01*
X0036289Y0345345D01*
X0036258Y0345154D01*
X0036223Y0344964D01*
X0036183Y0344775D01*
X0036138Y0344587D01*
X0036089Y0344400D01*
X0036035Y0344214D01*
X0035977Y0344030D01*
X0035914Y0343847D01*
X0035846Y0343666D01*
X0035775Y0343487D01*
X0035698Y0343309D01*
X0035618Y0343133D01*
X0035533Y0342960D01*
X0035444Y0342788D01*
X0035351Y0342619D01*
X0035254Y0342452D01*
X0035152Y0342287D01*
X0035047Y0342125D01*
X0034938Y0341966D01*
X0034824Y0341809D01*
X0034707Y0341656D01*
X0034587Y0341505D01*
X0034462Y0341357D01*
X0034334Y0341212D01*
X0034203Y0341071D01*
X0034068Y0340932D01*
X0033929Y0340797D01*
X0033788Y0340666D01*
X0033643Y0340538D01*
X0033495Y0340413D01*
X0033344Y0340293D01*
X0033191Y0340176D01*
X0033034Y0340062D01*
X0032875Y0339953D01*
X0032713Y0339848D01*
X0032548Y0339746D01*
X0032381Y0339649D01*
X0032212Y0339556D01*
X0032040Y0339467D01*
X0031867Y0339382D01*
X0031691Y0339302D01*
X0031513Y0339225D01*
X0031334Y0339154D01*
X0031153Y0339086D01*
X0030970Y0339023D01*
X0030786Y0338965D01*
X0030600Y0338911D01*
X0030413Y0338862D01*
X0030225Y0338817D01*
X0030036Y0338777D01*
X0029846Y0338742D01*
X0029655Y0338711D01*
X0029464Y0338685D01*
X0029272Y0338664D01*
X0029079Y0338647D01*
X0028886Y0338635D01*
X0028693Y0338628D01*
X0028500Y0338626D01*
X0028307Y0338628D01*
X0028114Y0338635D01*
X0027921Y0338647D01*
X0027728Y0338664D01*
X0027536Y0338685D01*
X0027345Y0338711D01*
X0027154Y0338742D01*
X0026964Y0338777D01*
X0026775Y0338817D01*
X0026587Y0338862D01*
X0026400Y0338911D01*
X0026214Y0338965D01*
X0026030Y0339023D01*
X0025847Y0339086D01*
X0025666Y0339154D01*
X0025487Y0339225D01*
X0025309Y0339302D01*
X0025133Y0339382D01*
X0024960Y0339467D01*
X0024788Y0339556D01*
X0024619Y0339649D01*
X0024452Y0339746D01*
X0024287Y0339848D01*
X0024125Y0339953D01*
X0023966Y0340062D01*
X0023809Y0340176D01*
X0023656Y0340293D01*
X0023505Y0340413D01*
X0023357Y0340538D01*
X0023212Y0340666D01*
X0023071Y0340797D01*
X0022932Y0340932D01*
X0022797Y0341071D01*
X0022666Y0341212D01*
X0022538Y0341357D01*
X0022413Y0341505D01*
X0022293Y0341656D01*
X0022176Y0341809D01*
X0022062Y0341966D01*
X0021953Y0342125D01*
X0021848Y0342287D01*
X0021746Y0342452D01*
X0021649Y0342619D01*
X0021556Y0342788D01*
X0021467Y0342960D01*
X0021382Y0343133D01*
X0021302Y0343309D01*
X0021225Y0343487D01*
X0021154Y0343666D01*
X0021086Y0343847D01*
X0021023Y0344030D01*
X0020965Y0344214D01*
X0020911Y0344400D01*
X0020862Y0344587D01*
X0020817Y0344775D01*
X0020777Y0344964D01*
X0020742Y0345154D01*
X0020711Y0345345D01*
X0020685Y0345536D01*
X0020664Y0345728D01*
X0020647Y0345921D01*
X0020635Y0346114D01*
X0020628Y0346307D01*
X0020626Y0346500D01*
X0100626Y0346500D02*
X0100628Y0346693D01*
X0100635Y0346886D01*
X0100647Y0347079D01*
X0100664Y0347272D01*
X0100685Y0347464D01*
X0100711Y0347655D01*
X0100742Y0347846D01*
X0100777Y0348036D01*
X0100817Y0348225D01*
X0100862Y0348413D01*
X0100911Y0348600D01*
X0100965Y0348786D01*
X0101023Y0348970D01*
X0101086Y0349153D01*
X0101154Y0349334D01*
X0101225Y0349513D01*
X0101302Y0349691D01*
X0101382Y0349867D01*
X0101467Y0350040D01*
X0101556Y0350212D01*
X0101649Y0350381D01*
X0101746Y0350548D01*
X0101848Y0350713D01*
X0101953Y0350875D01*
X0102062Y0351034D01*
X0102176Y0351191D01*
X0102293Y0351344D01*
X0102413Y0351495D01*
X0102538Y0351643D01*
X0102666Y0351788D01*
X0102797Y0351929D01*
X0102932Y0352068D01*
X0103071Y0352203D01*
X0103212Y0352334D01*
X0103357Y0352462D01*
X0103505Y0352587D01*
X0103656Y0352707D01*
X0103809Y0352824D01*
X0103966Y0352938D01*
X0104125Y0353047D01*
X0104287Y0353152D01*
X0104452Y0353254D01*
X0104619Y0353351D01*
X0104788Y0353444D01*
X0104960Y0353533D01*
X0105133Y0353618D01*
X0105309Y0353698D01*
X0105487Y0353775D01*
X0105666Y0353846D01*
X0105847Y0353914D01*
X0106030Y0353977D01*
X0106214Y0354035D01*
X0106400Y0354089D01*
X0106587Y0354138D01*
X0106775Y0354183D01*
X0106964Y0354223D01*
X0107154Y0354258D01*
X0107345Y0354289D01*
X0107536Y0354315D01*
X0107728Y0354336D01*
X0107921Y0354353D01*
X0108114Y0354365D01*
X0108307Y0354372D01*
X0108500Y0354374D01*
X0108693Y0354372D01*
X0108886Y0354365D01*
X0109079Y0354353D01*
X0109272Y0354336D01*
X0109464Y0354315D01*
X0109655Y0354289D01*
X0109846Y0354258D01*
X0110036Y0354223D01*
X0110225Y0354183D01*
X0110413Y0354138D01*
X0110600Y0354089D01*
X0110786Y0354035D01*
X0110970Y0353977D01*
X0111153Y0353914D01*
X0111334Y0353846D01*
X0111513Y0353775D01*
X0111691Y0353698D01*
X0111867Y0353618D01*
X0112040Y0353533D01*
X0112212Y0353444D01*
X0112381Y0353351D01*
X0112548Y0353254D01*
X0112713Y0353152D01*
X0112875Y0353047D01*
X0113034Y0352938D01*
X0113191Y0352824D01*
X0113344Y0352707D01*
X0113495Y0352587D01*
X0113643Y0352462D01*
X0113788Y0352334D01*
X0113929Y0352203D01*
X0114068Y0352068D01*
X0114203Y0351929D01*
X0114334Y0351788D01*
X0114462Y0351643D01*
X0114587Y0351495D01*
X0114707Y0351344D01*
X0114824Y0351191D01*
X0114938Y0351034D01*
X0115047Y0350875D01*
X0115152Y0350713D01*
X0115254Y0350548D01*
X0115351Y0350381D01*
X0115444Y0350212D01*
X0115533Y0350040D01*
X0115618Y0349867D01*
X0115698Y0349691D01*
X0115775Y0349513D01*
X0115846Y0349334D01*
X0115914Y0349153D01*
X0115977Y0348970D01*
X0116035Y0348786D01*
X0116089Y0348600D01*
X0116138Y0348413D01*
X0116183Y0348225D01*
X0116223Y0348036D01*
X0116258Y0347846D01*
X0116289Y0347655D01*
X0116315Y0347464D01*
X0116336Y0347272D01*
X0116353Y0347079D01*
X0116365Y0346886D01*
X0116372Y0346693D01*
X0116374Y0346500D01*
X0116372Y0346307D01*
X0116365Y0346114D01*
X0116353Y0345921D01*
X0116336Y0345728D01*
X0116315Y0345536D01*
X0116289Y0345345D01*
X0116258Y0345154D01*
X0116223Y0344964D01*
X0116183Y0344775D01*
X0116138Y0344587D01*
X0116089Y0344400D01*
X0116035Y0344214D01*
X0115977Y0344030D01*
X0115914Y0343847D01*
X0115846Y0343666D01*
X0115775Y0343487D01*
X0115698Y0343309D01*
X0115618Y0343133D01*
X0115533Y0342960D01*
X0115444Y0342788D01*
X0115351Y0342619D01*
X0115254Y0342452D01*
X0115152Y0342287D01*
X0115047Y0342125D01*
X0114938Y0341966D01*
X0114824Y0341809D01*
X0114707Y0341656D01*
X0114587Y0341505D01*
X0114462Y0341357D01*
X0114334Y0341212D01*
X0114203Y0341071D01*
X0114068Y0340932D01*
X0113929Y0340797D01*
X0113788Y0340666D01*
X0113643Y0340538D01*
X0113495Y0340413D01*
X0113344Y0340293D01*
X0113191Y0340176D01*
X0113034Y0340062D01*
X0112875Y0339953D01*
X0112713Y0339848D01*
X0112548Y0339746D01*
X0112381Y0339649D01*
X0112212Y0339556D01*
X0112040Y0339467D01*
X0111867Y0339382D01*
X0111691Y0339302D01*
X0111513Y0339225D01*
X0111334Y0339154D01*
X0111153Y0339086D01*
X0110970Y0339023D01*
X0110786Y0338965D01*
X0110600Y0338911D01*
X0110413Y0338862D01*
X0110225Y0338817D01*
X0110036Y0338777D01*
X0109846Y0338742D01*
X0109655Y0338711D01*
X0109464Y0338685D01*
X0109272Y0338664D01*
X0109079Y0338647D01*
X0108886Y0338635D01*
X0108693Y0338628D01*
X0108500Y0338626D01*
X0108307Y0338628D01*
X0108114Y0338635D01*
X0107921Y0338647D01*
X0107728Y0338664D01*
X0107536Y0338685D01*
X0107345Y0338711D01*
X0107154Y0338742D01*
X0106964Y0338777D01*
X0106775Y0338817D01*
X0106587Y0338862D01*
X0106400Y0338911D01*
X0106214Y0338965D01*
X0106030Y0339023D01*
X0105847Y0339086D01*
X0105666Y0339154D01*
X0105487Y0339225D01*
X0105309Y0339302D01*
X0105133Y0339382D01*
X0104960Y0339467D01*
X0104788Y0339556D01*
X0104619Y0339649D01*
X0104452Y0339746D01*
X0104287Y0339848D01*
X0104125Y0339953D01*
X0103966Y0340062D01*
X0103809Y0340176D01*
X0103656Y0340293D01*
X0103505Y0340413D01*
X0103357Y0340538D01*
X0103212Y0340666D01*
X0103071Y0340797D01*
X0102932Y0340932D01*
X0102797Y0341071D01*
X0102666Y0341212D01*
X0102538Y0341357D01*
X0102413Y0341505D01*
X0102293Y0341656D01*
X0102176Y0341809D01*
X0102062Y0341966D01*
X0101953Y0342125D01*
X0101848Y0342287D01*
X0101746Y0342452D01*
X0101649Y0342619D01*
X0101556Y0342788D01*
X0101467Y0342960D01*
X0101382Y0343133D01*
X0101302Y0343309D01*
X0101225Y0343487D01*
X0101154Y0343666D01*
X0101086Y0343847D01*
X0101023Y0344030D01*
X0100965Y0344214D01*
X0100911Y0344400D01*
X0100862Y0344587D01*
X0100817Y0344775D01*
X0100777Y0344964D01*
X0100742Y0345154D01*
X0100711Y0345345D01*
X0100685Y0345536D01*
X0100664Y0345728D01*
X0100647Y0345921D01*
X0100635Y0346114D01*
X0100628Y0346307D01*
X0100626Y0346500D01*
X0102201Y0211500D02*
X0102203Y0211658D01*
X0102209Y0211816D01*
X0102219Y0211974D01*
X0102233Y0212132D01*
X0102251Y0212289D01*
X0102272Y0212446D01*
X0102298Y0212602D01*
X0102328Y0212758D01*
X0102361Y0212913D01*
X0102399Y0213066D01*
X0102440Y0213219D01*
X0102485Y0213371D01*
X0102534Y0213522D01*
X0102587Y0213671D01*
X0102643Y0213819D01*
X0102703Y0213965D01*
X0102767Y0214110D01*
X0102835Y0214253D01*
X0102906Y0214395D01*
X0102980Y0214535D01*
X0103058Y0214672D01*
X0103140Y0214808D01*
X0103224Y0214942D01*
X0103313Y0215073D01*
X0103404Y0215202D01*
X0103499Y0215329D01*
X0103596Y0215454D01*
X0103697Y0215576D01*
X0103801Y0215695D01*
X0103908Y0215812D01*
X0104018Y0215926D01*
X0104131Y0216037D01*
X0104246Y0216146D01*
X0104364Y0216251D01*
X0104485Y0216353D01*
X0104608Y0216453D01*
X0104734Y0216549D01*
X0104862Y0216642D01*
X0104992Y0216732D01*
X0105125Y0216818D01*
X0105260Y0216902D01*
X0105396Y0216981D01*
X0105535Y0217058D01*
X0105676Y0217130D01*
X0105818Y0217200D01*
X0105962Y0217265D01*
X0106108Y0217327D01*
X0106255Y0217385D01*
X0106404Y0217440D01*
X0106554Y0217491D01*
X0106705Y0217538D01*
X0106857Y0217581D01*
X0107010Y0217620D01*
X0107165Y0217656D01*
X0107320Y0217687D01*
X0107476Y0217715D01*
X0107632Y0217739D01*
X0107789Y0217759D01*
X0107947Y0217775D01*
X0108104Y0217787D01*
X0108263Y0217795D01*
X0108421Y0217799D01*
X0108579Y0217799D01*
X0108737Y0217795D01*
X0108896Y0217787D01*
X0109053Y0217775D01*
X0109211Y0217759D01*
X0109368Y0217739D01*
X0109524Y0217715D01*
X0109680Y0217687D01*
X0109835Y0217656D01*
X0109990Y0217620D01*
X0110143Y0217581D01*
X0110295Y0217538D01*
X0110446Y0217491D01*
X0110596Y0217440D01*
X0110745Y0217385D01*
X0110892Y0217327D01*
X0111038Y0217265D01*
X0111182Y0217200D01*
X0111324Y0217130D01*
X0111465Y0217058D01*
X0111604Y0216981D01*
X0111740Y0216902D01*
X0111875Y0216818D01*
X0112008Y0216732D01*
X0112138Y0216642D01*
X0112266Y0216549D01*
X0112392Y0216453D01*
X0112515Y0216353D01*
X0112636Y0216251D01*
X0112754Y0216146D01*
X0112869Y0216037D01*
X0112982Y0215926D01*
X0113092Y0215812D01*
X0113199Y0215695D01*
X0113303Y0215576D01*
X0113404Y0215454D01*
X0113501Y0215329D01*
X0113596Y0215202D01*
X0113687Y0215073D01*
X0113776Y0214942D01*
X0113860Y0214808D01*
X0113942Y0214672D01*
X0114020Y0214535D01*
X0114094Y0214395D01*
X0114165Y0214253D01*
X0114233Y0214110D01*
X0114297Y0213965D01*
X0114357Y0213819D01*
X0114413Y0213671D01*
X0114466Y0213522D01*
X0114515Y0213371D01*
X0114560Y0213219D01*
X0114601Y0213066D01*
X0114639Y0212913D01*
X0114672Y0212758D01*
X0114702Y0212602D01*
X0114728Y0212446D01*
X0114749Y0212289D01*
X0114767Y0212132D01*
X0114781Y0211974D01*
X0114791Y0211816D01*
X0114797Y0211658D01*
X0114799Y0211500D01*
X0114797Y0211342D01*
X0114791Y0211184D01*
X0114781Y0211026D01*
X0114767Y0210868D01*
X0114749Y0210711D01*
X0114728Y0210554D01*
X0114702Y0210398D01*
X0114672Y0210242D01*
X0114639Y0210087D01*
X0114601Y0209934D01*
X0114560Y0209781D01*
X0114515Y0209629D01*
X0114466Y0209478D01*
X0114413Y0209329D01*
X0114357Y0209181D01*
X0114297Y0209035D01*
X0114233Y0208890D01*
X0114165Y0208747D01*
X0114094Y0208605D01*
X0114020Y0208465D01*
X0113942Y0208328D01*
X0113860Y0208192D01*
X0113776Y0208058D01*
X0113687Y0207927D01*
X0113596Y0207798D01*
X0113501Y0207671D01*
X0113404Y0207546D01*
X0113303Y0207424D01*
X0113199Y0207305D01*
X0113092Y0207188D01*
X0112982Y0207074D01*
X0112869Y0206963D01*
X0112754Y0206854D01*
X0112636Y0206749D01*
X0112515Y0206647D01*
X0112392Y0206547D01*
X0112266Y0206451D01*
X0112138Y0206358D01*
X0112008Y0206268D01*
X0111875Y0206182D01*
X0111740Y0206098D01*
X0111604Y0206019D01*
X0111465Y0205942D01*
X0111324Y0205870D01*
X0111182Y0205800D01*
X0111038Y0205735D01*
X0110892Y0205673D01*
X0110745Y0205615D01*
X0110596Y0205560D01*
X0110446Y0205509D01*
X0110295Y0205462D01*
X0110143Y0205419D01*
X0109990Y0205380D01*
X0109835Y0205344D01*
X0109680Y0205313D01*
X0109524Y0205285D01*
X0109368Y0205261D01*
X0109211Y0205241D01*
X0109053Y0205225D01*
X0108896Y0205213D01*
X0108737Y0205205D01*
X0108579Y0205201D01*
X0108421Y0205201D01*
X0108263Y0205205D01*
X0108104Y0205213D01*
X0107947Y0205225D01*
X0107789Y0205241D01*
X0107632Y0205261D01*
X0107476Y0205285D01*
X0107320Y0205313D01*
X0107165Y0205344D01*
X0107010Y0205380D01*
X0106857Y0205419D01*
X0106705Y0205462D01*
X0106554Y0205509D01*
X0106404Y0205560D01*
X0106255Y0205615D01*
X0106108Y0205673D01*
X0105962Y0205735D01*
X0105818Y0205800D01*
X0105676Y0205870D01*
X0105535Y0205942D01*
X0105396Y0206019D01*
X0105260Y0206098D01*
X0105125Y0206182D01*
X0104992Y0206268D01*
X0104862Y0206358D01*
X0104734Y0206451D01*
X0104608Y0206547D01*
X0104485Y0206647D01*
X0104364Y0206749D01*
X0104246Y0206854D01*
X0104131Y0206963D01*
X0104018Y0207074D01*
X0103908Y0207188D01*
X0103801Y0207305D01*
X0103697Y0207424D01*
X0103596Y0207546D01*
X0103499Y0207671D01*
X0103404Y0207798D01*
X0103313Y0207927D01*
X0103224Y0208058D01*
X0103140Y0208192D01*
X0103058Y0208328D01*
X0102980Y0208465D01*
X0102906Y0208605D01*
X0102835Y0208747D01*
X0102767Y0208890D01*
X0102703Y0209035D01*
X0102643Y0209181D01*
X0102587Y0209329D01*
X0102534Y0209478D01*
X0102485Y0209629D01*
X0102440Y0209781D01*
X0102399Y0209934D01*
X0102361Y0210087D01*
X0102328Y0210242D01*
X0102298Y0210398D01*
X0102272Y0210554D01*
X0102251Y0210711D01*
X0102233Y0210868D01*
X0102219Y0211026D01*
X0102209Y0211184D01*
X0102203Y0211342D01*
X0102201Y0211500D01*
X0102201Y0041500D02*
X0102203Y0041658D01*
X0102209Y0041816D01*
X0102219Y0041974D01*
X0102233Y0042132D01*
X0102251Y0042289D01*
X0102272Y0042446D01*
X0102298Y0042602D01*
X0102328Y0042758D01*
X0102361Y0042913D01*
X0102399Y0043066D01*
X0102440Y0043219D01*
X0102485Y0043371D01*
X0102534Y0043522D01*
X0102587Y0043671D01*
X0102643Y0043819D01*
X0102703Y0043965D01*
X0102767Y0044110D01*
X0102835Y0044253D01*
X0102906Y0044395D01*
X0102980Y0044535D01*
X0103058Y0044672D01*
X0103140Y0044808D01*
X0103224Y0044942D01*
X0103313Y0045073D01*
X0103404Y0045202D01*
X0103499Y0045329D01*
X0103596Y0045454D01*
X0103697Y0045576D01*
X0103801Y0045695D01*
X0103908Y0045812D01*
X0104018Y0045926D01*
X0104131Y0046037D01*
X0104246Y0046146D01*
X0104364Y0046251D01*
X0104485Y0046353D01*
X0104608Y0046453D01*
X0104734Y0046549D01*
X0104862Y0046642D01*
X0104992Y0046732D01*
X0105125Y0046818D01*
X0105260Y0046902D01*
X0105396Y0046981D01*
X0105535Y0047058D01*
X0105676Y0047130D01*
X0105818Y0047200D01*
X0105962Y0047265D01*
X0106108Y0047327D01*
X0106255Y0047385D01*
X0106404Y0047440D01*
X0106554Y0047491D01*
X0106705Y0047538D01*
X0106857Y0047581D01*
X0107010Y0047620D01*
X0107165Y0047656D01*
X0107320Y0047687D01*
X0107476Y0047715D01*
X0107632Y0047739D01*
X0107789Y0047759D01*
X0107947Y0047775D01*
X0108104Y0047787D01*
X0108263Y0047795D01*
X0108421Y0047799D01*
X0108579Y0047799D01*
X0108737Y0047795D01*
X0108896Y0047787D01*
X0109053Y0047775D01*
X0109211Y0047759D01*
X0109368Y0047739D01*
X0109524Y0047715D01*
X0109680Y0047687D01*
X0109835Y0047656D01*
X0109990Y0047620D01*
X0110143Y0047581D01*
X0110295Y0047538D01*
X0110446Y0047491D01*
X0110596Y0047440D01*
X0110745Y0047385D01*
X0110892Y0047327D01*
X0111038Y0047265D01*
X0111182Y0047200D01*
X0111324Y0047130D01*
X0111465Y0047058D01*
X0111604Y0046981D01*
X0111740Y0046902D01*
X0111875Y0046818D01*
X0112008Y0046732D01*
X0112138Y0046642D01*
X0112266Y0046549D01*
X0112392Y0046453D01*
X0112515Y0046353D01*
X0112636Y0046251D01*
X0112754Y0046146D01*
X0112869Y0046037D01*
X0112982Y0045926D01*
X0113092Y0045812D01*
X0113199Y0045695D01*
X0113303Y0045576D01*
X0113404Y0045454D01*
X0113501Y0045329D01*
X0113596Y0045202D01*
X0113687Y0045073D01*
X0113776Y0044942D01*
X0113860Y0044808D01*
X0113942Y0044672D01*
X0114020Y0044535D01*
X0114094Y0044395D01*
X0114165Y0044253D01*
X0114233Y0044110D01*
X0114297Y0043965D01*
X0114357Y0043819D01*
X0114413Y0043671D01*
X0114466Y0043522D01*
X0114515Y0043371D01*
X0114560Y0043219D01*
X0114601Y0043066D01*
X0114639Y0042913D01*
X0114672Y0042758D01*
X0114702Y0042602D01*
X0114728Y0042446D01*
X0114749Y0042289D01*
X0114767Y0042132D01*
X0114781Y0041974D01*
X0114791Y0041816D01*
X0114797Y0041658D01*
X0114799Y0041500D01*
X0114797Y0041342D01*
X0114791Y0041184D01*
X0114781Y0041026D01*
X0114767Y0040868D01*
X0114749Y0040711D01*
X0114728Y0040554D01*
X0114702Y0040398D01*
X0114672Y0040242D01*
X0114639Y0040087D01*
X0114601Y0039934D01*
X0114560Y0039781D01*
X0114515Y0039629D01*
X0114466Y0039478D01*
X0114413Y0039329D01*
X0114357Y0039181D01*
X0114297Y0039035D01*
X0114233Y0038890D01*
X0114165Y0038747D01*
X0114094Y0038605D01*
X0114020Y0038465D01*
X0113942Y0038328D01*
X0113860Y0038192D01*
X0113776Y0038058D01*
X0113687Y0037927D01*
X0113596Y0037798D01*
X0113501Y0037671D01*
X0113404Y0037546D01*
X0113303Y0037424D01*
X0113199Y0037305D01*
X0113092Y0037188D01*
X0112982Y0037074D01*
X0112869Y0036963D01*
X0112754Y0036854D01*
X0112636Y0036749D01*
X0112515Y0036647D01*
X0112392Y0036547D01*
X0112266Y0036451D01*
X0112138Y0036358D01*
X0112008Y0036268D01*
X0111875Y0036182D01*
X0111740Y0036098D01*
X0111604Y0036019D01*
X0111465Y0035942D01*
X0111324Y0035870D01*
X0111182Y0035800D01*
X0111038Y0035735D01*
X0110892Y0035673D01*
X0110745Y0035615D01*
X0110596Y0035560D01*
X0110446Y0035509D01*
X0110295Y0035462D01*
X0110143Y0035419D01*
X0109990Y0035380D01*
X0109835Y0035344D01*
X0109680Y0035313D01*
X0109524Y0035285D01*
X0109368Y0035261D01*
X0109211Y0035241D01*
X0109053Y0035225D01*
X0108896Y0035213D01*
X0108737Y0035205D01*
X0108579Y0035201D01*
X0108421Y0035201D01*
X0108263Y0035205D01*
X0108104Y0035213D01*
X0107947Y0035225D01*
X0107789Y0035241D01*
X0107632Y0035261D01*
X0107476Y0035285D01*
X0107320Y0035313D01*
X0107165Y0035344D01*
X0107010Y0035380D01*
X0106857Y0035419D01*
X0106705Y0035462D01*
X0106554Y0035509D01*
X0106404Y0035560D01*
X0106255Y0035615D01*
X0106108Y0035673D01*
X0105962Y0035735D01*
X0105818Y0035800D01*
X0105676Y0035870D01*
X0105535Y0035942D01*
X0105396Y0036019D01*
X0105260Y0036098D01*
X0105125Y0036182D01*
X0104992Y0036268D01*
X0104862Y0036358D01*
X0104734Y0036451D01*
X0104608Y0036547D01*
X0104485Y0036647D01*
X0104364Y0036749D01*
X0104246Y0036854D01*
X0104131Y0036963D01*
X0104018Y0037074D01*
X0103908Y0037188D01*
X0103801Y0037305D01*
X0103697Y0037424D01*
X0103596Y0037546D01*
X0103499Y0037671D01*
X0103404Y0037798D01*
X0103313Y0037927D01*
X0103224Y0038058D01*
X0103140Y0038192D01*
X0103058Y0038328D01*
X0102980Y0038465D01*
X0102906Y0038605D01*
X0102835Y0038747D01*
X0102767Y0038890D01*
X0102703Y0039035D01*
X0102643Y0039181D01*
X0102587Y0039329D01*
X0102534Y0039478D01*
X0102485Y0039629D01*
X0102440Y0039781D01*
X0102399Y0039934D01*
X0102361Y0040087D01*
X0102328Y0040242D01*
X0102298Y0040398D01*
X0102272Y0040554D01*
X0102251Y0040711D01*
X0102233Y0040868D01*
X0102219Y0041026D01*
X0102209Y0041184D01*
X0102203Y0041342D01*
X0102201Y0041500D01*
X0100626Y0016500D02*
X0100628Y0016693D01*
X0100635Y0016886D01*
X0100647Y0017079D01*
X0100664Y0017272D01*
X0100685Y0017464D01*
X0100711Y0017655D01*
X0100742Y0017846D01*
X0100777Y0018036D01*
X0100817Y0018225D01*
X0100862Y0018413D01*
X0100911Y0018600D01*
X0100965Y0018786D01*
X0101023Y0018970D01*
X0101086Y0019153D01*
X0101154Y0019334D01*
X0101225Y0019513D01*
X0101302Y0019691D01*
X0101382Y0019867D01*
X0101467Y0020040D01*
X0101556Y0020212D01*
X0101649Y0020381D01*
X0101746Y0020548D01*
X0101848Y0020713D01*
X0101953Y0020875D01*
X0102062Y0021034D01*
X0102176Y0021191D01*
X0102293Y0021344D01*
X0102413Y0021495D01*
X0102538Y0021643D01*
X0102666Y0021788D01*
X0102797Y0021929D01*
X0102932Y0022068D01*
X0103071Y0022203D01*
X0103212Y0022334D01*
X0103357Y0022462D01*
X0103505Y0022587D01*
X0103656Y0022707D01*
X0103809Y0022824D01*
X0103966Y0022938D01*
X0104125Y0023047D01*
X0104287Y0023152D01*
X0104452Y0023254D01*
X0104619Y0023351D01*
X0104788Y0023444D01*
X0104960Y0023533D01*
X0105133Y0023618D01*
X0105309Y0023698D01*
X0105487Y0023775D01*
X0105666Y0023846D01*
X0105847Y0023914D01*
X0106030Y0023977D01*
X0106214Y0024035D01*
X0106400Y0024089D01*
X0106587Y0024138D01*
X0106775Y0024183D01*
X0106964Y0024223D01*
X0107154Y0024258D01*
X0107345Y0024289D01*
X0107536Y0024315D01*
X0107728Y0024336D01*
X0107921Y0024353D01*
X0108114Y0024365D01*
X0108307Y0024372D01*
X0108500Y0024374D01*
X0108693Y0024372D01*
X0108886Y0024365D01*
X0109079Y0024353D01*
X0109272Y0024336D01*
X0109464Y0024315D01*
X0109655Y0024289D01*
X0109846Y0024258D01*
X0110036Y0024223D01*
X0110225Y0024183D01*
X0110413Y0024138D01*
X0110600Y0024089D01*
X0110786Y0024035D01*
X0110970Y0023977D01*
X0111153Y0023914D01*
X0111334Y0023846D01*
X0111513Y0023775D01*
X0111691Y0023698D01*
X0111867Y0023618D01*
X0112040Y0023533D01*
X0112212Y0023444D01*
X0112381Y0023351D01*
X0112548Y0023254D01*
X0112713Y0023152D01*
X0112875Y0023047D01*
X0113034Y0022938D01*
X0113191Y0022824D01*
X0113344Y0022707D01*
X0113495Y0022587D01*
X0113643Y0022462D01*
X0113788Y0022334D01*
X0113929Y0022203D01*
X0114068Y0022068D01*
X0114203Y0021929D01*
X0114334Y0021788D01*
X0114462Y0021643D01*
X0114587Y0021495D01*
X0114707Y0021344D01*
X0114824Y0021191D01*
X0114938Y0021034D01*
X0115047Y0020875D01*
X0115152Y0020713D01*
X0115254Y0020548D01*
X0115351Y0020381D01*
X0115444Y0020212D01*
X0115533Y0020040D01*
X0115618Y0019867D01*
X0115698Y0019691D01*
X0115775Y0019513D01*
X0115846Y0019334D01*
X0115914Y0019153D01*
X0115977Y0018970D01*
X0116035Y0018786D01*
X0116089Y0018600D01*
X0116138Y0018413D01*
X0116183Y0018225D01*
X0116223Y0018036D01*
X0116258Y0017846D01*
X0116289Y0017655D01*
X0116315Y0017464D01*
X0116336Y0017272D01*
X0116353Y0017079D01*
X0116365Y0016886D01*
X0116372Y0016693D01*
X0116374Y0016500D01*
X0116372Y0016307D01*
X0116365Y0016114D01*
X0116353Y0015921D01*
X0116336Y0015728D01*
X0116315Y0015536D01*
X0116289Y0015345D01*
X0116258Y0015154D01*
X0116223Y0014964D01*
X0116183Y0014775D01*
X0116138Y0014587D01*
X0116089Y0014400D01*
X0116035Y0014214D01*
X0115977Y0014030D01*
X0115914Y0013847D01*
X0115846Y0013666D01*
X0115775Y0013487D01*
X0115698Y0013309D01*
X0115618Y0013133D01*
X0115533Y0012960D01*
X0115444Y0012788D01*
X0115351Y0012619D01*
X0115254Y0012452D01*
X0115152Y0012287D01*
X0115047Y0012125D01*
X0114938Y0011966D01*
X0114824Y0011809D01*
X0114707Y0011656D01*
X0114587Y0011505D01*
X0114462Y0011357D01*
X0114334Y0011212D01*
X0114203Y0011071D01*
X0114068Y0010932D01*
X0113929Y0010797D01*
X0113788Y0010666D01*
X0113643Y0010538D01*
X0113495Y0010413D01*
X0113344Y0010293D01*
X0113191Y0010176D01*
X0113034Y0010062D01*
X0112875Y0009953D01*
X0112713Y0009848D01*
X0112548Y0009746D01*
X0112381Y0009649D01*
X0112212Y0009556D01*
X0112040Y0009467D01*
X0111867Y0009382D01*
X0111691Y0009302D01*
X0111513Y0009225D01*
X0111334Y0009154D01*
X0111153Y0009086D01*
X0110970Y0009023D01*
X0110786Y0008965D01*
X0110600Y0008911D01*
X0110413Y0008862D01*
X0110225Y0008817D01*
X0110036Y0008777D01*
X0109846Y0008742D01*
X0109655Y0008711D01*
X0109464Y0008685D01*
X0109272Y0008664D01*
X0109079Y0008647D01*
X0108886Y0008635D01*
X0108693Y0008628D01*
X0108500Y0008626D01*
X0108307Y0008628D01*
X0108114Y0008635D01*
X0107921Y0008647D01*
X0107728Y0008664D01*
X0107536Y0008685D01*
X0107345Y0008711D01*
X0107154Y0008742D01*
X0106964Y0008777D01*
X0106775Y0008817D01*
X0106587Y0008862D01*
X0106400Y0008911D01*
X0106214Y0008965D01*
X0106030Y0009023D01*
X0105847Y0009086D01*
X0105666Y0009154D01*
X0105487Y0009225D01*
X0105309Y0009302D01*
X0105133Y0009382D01*
X0104960Y0009467D01*
X0104788Y0009556D01*
X0104619Y0009649D01*
X0104452Y0009746D01*
X0104287Y0009848D01*
X0104125Y0009953D01*
X0103966Y0010062D01*
X0103809Y0010176D01*
X0103656Y0010293D01*
X0103505Y0010413D01*
X0103357Y0010538D01*
X0103212Y0010666D01*
X0103071Y0010797D01*
X0102932Y0010932D01*
X0102797Y0011071D01*
X0102666Y0011212D01*
X0102538Y0011357D01*
X0102413Y0011505D01*
X0102293Y0011656D01*
X0102176Y0011809D01*
X0102062Y0011966D01*
X0101953Y0012125D01*
X0101848Y0012287D01*
X0101746Y0012452D01*
X0101649Y0012619D01*
X0101556Y0012788D01*
X0101467Y0012960D01*
X0101382Y0013133D01*
X0101302Y0013309D01*
X0101225Y0013487D01*
X0101154Y0013666D01*
X0101086Y0013847D01*
X0101023Y0014030D01*
X0100965Y0014214D01*
X0100911Y0014400D01*
X0100862Y0014587D01*
X0100817Y0014775D01*
X0100777Y0014964D01*
X0100742Y0015154D01*
X0100711Y0015345D01*
X0100685Y0015536D01*
X0100664Y0015728D01*
X0100647Y0015921D01*
X0100635Y0016114D01*
X0100628Y0016307D01*
X0100626Y0016500D01*
D11*
X0013500Y0011500D02*
X0013500Y0264500D01*
X0013498Y0264669D01*
X0013492Y0264838D01*
X0013482Y0265007D01*
X0013467Y0265176D01*
X0013449Y0265344D01*
X0013427Y0265511D01*
X0013400Y0265678D01*
X0013370Y0265845D01*
X0013335Y0266010D01*
X0013297Y0266175D01*
X0013254Y0266339D01*
X0013208Y0266502D01*
X0013157Y0266663D01*
X0013103Y0266823D01*
X0013045Y0266982D01*
X0012983Y0267140D01*
X0012918Y0267296D01*
X0012848Y0267450D01*
X0012775Y0267602D01*
X0012698Y0267753D01*
X0012618Y0267902D01*
X0012534Y0268049D01*
X0012446Y0268193D01*
X0012355Y0268336D01*
X0012261Y0268476D01*
X0012163Y0268614D01*
X0012062Y0268750D01*
X0011958Y0268883D01*
X0011850Y0269014D01*
X0011740Y0269142D01*
X0011626Y0269267D01*
X0011509Y0269390D01*
X0011390Y0269509D01*
X0011267Y0269626D01*
X0011142Y0269740D01*
X0011014Y0269850D01*
X0010883Y0269958D01*
X0010750Y0270062D01*
X0010614Y0270163D01*
X0010476Y0270261D01*
X0010336Y0270355D01*
X0010193Y0270446D01*
X0010049Y0270534D01*
X0009902Y0270618D01*
X0009753Y0270698D01*
X0009602Y0270775D01*
X0009450Y0270848D01*
X0009296Y0270918D01*
X0009140Y0270983D01*
X0008982Y0271045D01*
X0008823Y0271103D01*
X0008663Y0271157D01*
X0008502Y0271208D01*
X0008339Y0271254D01*
X0008175Y0271297D01*
X0008010Y0271335D01*
X0007845Y0271370D01*
X0007678Y0271400D01*
X0007511Y0271427D01*
X0007344Y0271449D01*
X0007176Y0271467D01*
X0007007Y0271482D01*
X0006838Y0271492D01*
X0006669Y0271498D01*
X0006500Y0271500D01*
X0006360Y0271502D01*
X0006220Y0271508D01*
X0006080Y0271518D01*
X0005940Y0271531D01*
X0005801Y0271549D01*
X0005662Y0271571D01*
X0005525Y0271596D01*
X0005387Y0271625D01*
X0005251Y0271658D01*
X0005116Y0271695D01*
X0004982Y0271736D01*
X0004849Y0271781D01*
X0004717Y0271829D01*
X0004587Y0271881D01*
X0004458Y0271936D01*
X0004331Y0271995D01*
X0004205Y0272058D01*
X0004081Y0272124D01*
X0003960Y0272193D01*
X0003840Y0272266D01*
X0003722Y0272343D01*
X0003607Y0272422D01*
X0003493Y0272505D01*
X0003383Y0272591D01*
X0003274Y0272680D01*
X0003168Y0272772D01*
X0003065Y0272867D01*
X0002964Y0272964D01*
X0002867Y0273065D01*
X0002772Y0273168D01*
X0002680Y0273274D01*
X0002591Y0273383D01*
X0002505Y0273493D01*
X0002422Y0273607D01*
X0002343Y0273722D01*
X0002266Y0273840D01*
X0002193Y0273960D01*
X0002124Y0274081D01*
X0002058Y0274205D01*
X0001995Y0274331D01*
X0001936Y0274458D01*
X0001881Y0274587D01*
X0001829Y0274717D01*
X0001781Y0274849D01*
X0001736Y0274982D01*
X0001695Y0275116D01*
X0001658Y0275251D01*
X0001625Y0275387D01*
X0001596Y0275525D01*
X0001571Y0275662D01*
X0001549Y0275801D01*
X0001531Y0275940D01*
X0001518Y0276080D01*
X0001508Y0276220D01*
X0001502Y0276360D01*
X0001500Y0276500D01*
X0001500Y0316500D01*
X0001502Y0316640D01*
X0001508Y0316780D01*
X0001518Y0316920D01*
X0001531Y0317060D01*
X0001549Y0317199D01*
X0001571Y0317338D01*
X0001596Y0317475D01*
X0001625Y0317613D01*
X0001658Y0317749D01*
X0001695Y0317884D01*
X0001736Y0318018D01*
X0001781Y0318151D01*
X0001829Y0318283D01*
X0001881Y0318413D01*
X0001936Y0318542D01*
X0001995Y0318669D01*
X0002058Y0318795D01*
X0002124Y0318919D01*
X0002193Y0319040D01*
X0002266Y0319160D01*
X0002343Y0319278D01*
X0002422Y0319393D01*
X0002505Y0319507D01*
X0002591Y0319617D01*
X0002680Y0319726D01*
X0002772Y0319832D01*
X0002867Y0319935D01*
X0002964Y0320036D01*
X0003065Y0320133D01*
X0003168Y0320228D01*
X0003274Y0320320D01*
X0003383Y0320409D01*
X0003493Y0320495D01*
X0003607Y0320578D01*
X0003722Y0320657D01*
X0003840Y0320734D01*
X0003960Y0320807D01*
X0004081Y0320876D01*
X0004205Y0320942D01*
X0004331Y0321005D01*
X0004458Y0321064D01*
X0004587Y0321119D01*
X0004717Y0321171D01*
X0004849Y0321219D01*
X0004982Y0321264D01*
X0005116Y0321305D01*
X0005251Y0321342D01*
X0005387Y0321375D01*
X0005525Y0321404D01*
X0005662Y0321429D01*
X0005801Y0321451D01*
X0005940Y0321469D01*
X0006080Y0321482D01*
X0006220Y0321492D01*
X0006360Y0321498D01*
X0006500Y0321500D01*
X0008500Y0321500D01*
X0008640Y0321502D01*
X0008780Y0321508D01*
X0008920Y0321518D01*
X0009060Y0321531D01*
X0009199Y0321549D01*
X0009338Y0321571D01*
X0009475Y0321596D01*
X0009613Y0321625D01*
X0009749Y0321658D01*
X0009884Y0321695D01*
X0010018Y0321736D01*
X0010151Y0321781D01*
X0010283Y0321829D01*
X0010413Y0321881D01*
X0010542Y0321936D01*
X0010669Y0321995D01*
X0010795Y0322058D01*
X0010919Y0322124D01*
X0011040Y0322193D01*
X0011160Y0322266D01*
X0011278Y0322343D01*
X0011393Y0322422D01*
X0011507Y0322505D01*
X0011617Y0322591D01*
X0011726Y0322680D01*
X0011832Y0322772D01*
X0011935Y0322867D01*
X0012036Y0322964D01*
X0012133Y0323065D01*
X0012228Y0323168D01*
X0012320Y0323274D01*
X0012409Y0323383D01*
X0012495Y0323493D01*
X0012578Y0323607D01*
X0012657Y0323722D01*
X0012734Y0323840D01*
X0012807Y0323960D01*
X0012876Y0324081D01*
X0012942Y0324205D01*
X0013005Y0324331D01*
X0013064Y0324458D01*
X0013119Y0324587D01*
X0013171Y0324717D01*
X0013219Y0324849D01*
X0013264Y0324982D01*
X0013305Y0325116D01*
X0013342Y0325251D01*
X0013375Y0325387D01*
X0013404Y0325525D01*
X0013429Y0325662D01*
X0013451Y0325801D01*
X0013469Y0325940D01*
X0013482Y0326080D01*
X0013492Y0326220D01*
X0013498Y0326360D01*
X0013500Y0326500D01*
X0013500Y0351500D01*
X0013503Y0351742D01*
X0013512Y0351983D01*
X0013526Y0352224D01*
X0013547Y0352465D01*
X0013573Y0352705D01*
X0013605Y0352945D01*
X0013643Y0353184D01*
X0013686Y0353421D01*
X0013736Y0353658D01*
X0013791Y0353893D01*
X0013851Y0354127D01*
X0013918Y0354359D01*
X0013989Y0354590D01*
X0014067Y0354819D01*
X0014150Y0355046D01*
X0014238Y0355271D01*
X0014332Y0355494D01*
X0014431Y0355714D01*
X0014536Y0355932D01*
X0014645Y0356147D01*
X0014760Y0356360D01*
X0014880Y0356570D01*
X0015005Y0356776D01*
X0015135Y0356980D01*
X0015270Y0357181D01*
X0015410Y0357378D01*
X0015554Y0357572D01*
X0015703Y0357762D01*
X0015857Y0357948D01*
X0016015Y0358131D01*
X0016177Y0358310D01*
X0016344Y0358485D01*
X0016515Y0358656D01*
X0016690Y0358823D01*
X0016869Y0358985D01*
X0017052Y0359143D01*
X0017238Y0359297D01*
X0017428Y0359446D01*
X0017622Y0359590D01*
X0017819Y0359730D01*
X0018020Y0359865D01*
X0018224Y0359995D01*
X0018430Y0360120D01*
X0018640Y0360240D01*
X0018853Y0360355D01*
X0019068Y0360464D01*
X0019286Y0360569D01*
X0019506Y0360668D01*
X0019729Y0360762D01*
X0019954Y0360850D01*
X0020181Y0360933D01*
X0020410Y0361011D01*
X0020641Y0361082D01*
X0020873Y0361149D01*
X0021107Y0361209D01*
X0021342Y0361264D01*
X0021579Y0361314D01*
X0021816Y0361357D01*
X0022055Y0361395D01*
X0022295Y0361427D01*
X0022535Y0361453D01*
X0022776Y0361474D01*
X0023017Y0361488D01*
X0023258Y0361497D01*
X0023500Y0361500D01*
X0033500Y0361500D01*
X0033742Y0361497D01*
X0033983Y0361488D01*
X0034224Y0361474D01*
X0034465Y0361453D01*
X0034705Y0361427D01*
X0034945Y0361395D01*
X0035184Y0361357D01*
X0035421Y0361314D01*
X0035658Y0361264D01*
X0035893Y0361209D01*
X0036127Y0361149D01*
X0036359Y0361082D01*
X0036590Y0361011D01*
X0036819Y0360933D01*
X0037046Y0360850D01*
X0037271Y0360762D01*
X0037494Y0360668D01*
X0037714Y0360569D01*
X0037932Y0360464D01*
X0038147Y0360355D01*
X0038360Y0360240D01*
X0038570Y0360120D01*
X0038776Y0359995D01*
X0038980Y0359865D01*
X0039181Y0359730D01*
X0039378Y0359590D01*
X0039572Y0359446D01*
X0039762Y0359297D01*
X0039948Y0359143D01*
X0040131Y0358985D01*
X0040310Y0358823D01*
X0040485Y0358656D01*
X0040656Y0358485D01*
X0040823Y0358310D01*
X0040985Y0358131D01*
X0041143Y0357948D01*
X0041297Y0357762D01*
X0041446Y0357572D01*
X0041590Y0357378D01*
X0041730Y0357181D01*
X0041865Y0356980D01*
X0041995Y0356776D01*
X0042120Y0356570D01*
X0042240Y0356360D01*
X0042355Y0356147D01*
X0042464Y0355932D01*
X0042569Y0355714D01*
X0042668Y0355494D01*
X0042762Y0355271D01*
X0042850Y0355046D01*
X0042933Y0354819D01*
X0043011Y0354590D01*
X0043082Y0354359D01*
X0043149Y0354127D01*
X0043209Y0353893D01*
X0043264Y0353658D01*
X0043314Y0353421D01*
X0043357Y0353184D01*
X0043395Y0352945D01*
X0043427Y0352705D01*
X0043453Y0352465D01*
X0043474Y0352224D01*
X0043488Y0351983D01*
X0043497Y0351742D01*
X0043500Y0351500D01*
X0043503Y0351258D01*
X0043512Y0351017D01*
X0043526Y0350776D01*
X0043547Y0350535D01*
X0043573Y0350295D01*
X0043605Y0350055D01*
X0043643Y0349816D01*
X0043686Y0349579D01*
X0043736Y0349342D01*
X0043791Y0349107D01*
X0043851Y0348873D01*
X0043918Y0348641D01*
X0043989Y0348410D01*
X0044067Y0348181D01*
X0044150Y0347954D01*
X0044238Y0347729D01*
X0044332Y0347506D01*
X0044431Y0347286D01*
X0044536Y0347068D01*
X0044645Y0346853D01*
X0044760Y0346640D01*
X0044880Y0346430D01*
X0045005Y0346224D01*
X0045135Y0346020D01*
X0045270Y0345819D01*
X0045410Y0345622D01*
X0045554Y0345428D01*
X0045703Y0345238D01*
X0045857Y0345052D01*
X0046015Y0344869D01*
X0046177Y0344690D01*
X0046344Y0344515D01*
X0046515Y0344344D01*
X0046690Y0344177D01*
X0046869Y0344015D01*
X0047052Y0343857D01*
X0047238Y0343703D01*
X0047428Y0343554D01*
X0047622Y0343410D01*
X0047819Y0343270D01*
X0048020Y0343135D01*
X0048224Y0343005D01*
X0048430Y0342880D01*
X0048640Y0342760D01*
X0048853Y0342645D01*
X0049068Y0342536D01*
X0049286Y0342431D01*
X0049506Y0342332D01*
X0049729Y0342238D01*
X0049954Y0342150D01*
X0050181Y0342067D01*
X0050410Y0341989D01*
X0050641Y0341918D01*
X0050873Y0341851D01*
X0051107Y0341791D01*
X0051342Y0341736D01*
X0051579Y0341686D01*
X0051816Y0341643D01*
X0052055Y0341605D01*
X0052295Y0341573D01*
X0052535Y0341547D01*
X0052776Y0341526D01*
X0053017Y0341512D01*
X0053258Y0341503D01*
X0053500Y0341500D01*
X0083500Y0341500D01*
X0083742Y0341503D01*
X0083983Y0341512D01*
X0084224Y0341526D01*
X0084465Y0341547D01*
X0084705Y0341573D01*
X0084945Y0341605D01*
X0085184Y0341643D01*
X0085421Y0341686D01*
X0085658Y0341736D01*
X0085893Y0341791D01*
X0086127Y0341851D01*
X0086359Y0341918D01*
X0086590Y0341989D01*
X0086819Y0342067D01*
X0087046Y0342150D01*
X0087271Y0342238D01*
X0087494Y0342332D01*
X0087714Y0342431D01*
X0087932Y0342536D01*
X0088147Y0342645D01*
X0088360Y0342760D01*
X0088570Y0342880D01*
X0088776Y0343005D01*
X0088980Y0343135D01*
X0089181Y0343270D01*
X0089378Y0343410D01*
X0089572Y0343554D01*
X0089762Y0343703D01*
X0089948Y0343857D01*
X0090131Y0344015D01*
X0090310Y0344177D01*
X0090485Y0344344D01*
X0090656Y0344515D01*
X0090823Y0344690D01*
X0090985Y0344869D01*
X0091143Y0345052D01*
X0091297Y0345238D01*
X0091446Y0345428D01*
X0091590Y0345622D01*
X0091730Y0345819D01*
X0091865Y0346020D01*
X0091995Y0346224D01*
X0092120Y0346430D01*
X0092240Y0346640D01*
X0092355Y0346853D01*
X0092464Y0347068D01*
X0092569Y0347286D01*
X0092668Y0347506D01*
X0092762Y0347729D01*
X0092850Y0347954D01*
X0092933Y0348181D01*
X0093011Y0348410D01*
X0093082Y0348641D01*
X0093149Y0348873D01*
X0093209Y0349107D01*
X0093264Y0349342D01*
X0093314Y0349579D01*
X0093357Y0349816D01*
X0093395Y0350055D01*
X0093427Y0350295D01*
X0093453Y0350535D01*
X0093474Y0350776D01*
X0093488Y0351017D01*
X0093497Y0351258D01*
X0093500Y0351500D01*
X0093503Y0351742D01*
X0093512Y0351983D01*
X0093526Y0352224D01*
X0093547Y0352465D01*
X0093573Y0352705D01*
X0093605Y0352945D01*
X0093643Y0353184D01*
X0093686Y0353421D01*
X0093736Y0353658D01*
X0093791Y0353893D01*
X0093851Y0354127D01*
X0093918Y0354359D01*
X0093989Y0354590D01*
X0094067Y0354819D01*
X0094150Y0355046D01*
X0094238Y0355271D01*
X0094332Y0355494D01*
X0094431Y0355714D01*
X0094536Y0355932D01*
X0094645Y0356147D01*
X0094760Y0356360D01*
X0094880Y0356570D01*
X0095005Y0356776D01*
X0095135Y0356980D01*
X0095270Y0357181D01*
X0095410Y0357378D01*
X0095554Y0357572D01*
X0095703Y0357762D01*
X0095857Y0357948D01*
X0096015Y0358131D01*
X0096177Y0358310D01*
X0096344Y0358485D01*
X0096515Y0358656D01*
X0096690Y0358823D01*
X0096869Y0358985D01*
X0097052Y0359143D01*
X0097238Y0359297D01*
X0097428Y0359446D01*
X0097622Y0359590D01*
X0097819Y0359730D01*
X0098020Y0359865D01*
X0098224Y0359995D01*
X0098430Y0360120D01*
X0098640Y0360240D01*
X0098853Y0360355D01*
X0099068Y0360464D01*
X0099286Y0360569D01*
X0099506Y0360668D01*
X0099729Y0360762D01*
X0099954Y0360850D01*
X0100181Y0360933D01*
X0100410Y0361011D01*
X0100641Y0361082D01*
X0100873Y0361149D01*
X0101107Y0361209D01*
X0101342Y0361264D01*
X0101579Y0361314D01*
X0101816Y0361357D01*
X0102055Y0361395D01*
X0102295Y0361427D01*
X0102535Y0361453D01*
X0102776Y0361474D01*
X0103017Y0361488D01*
X0103258Y0361497D01*
X0103500Y0361500D01*
X0113500Y0361500D01*
X0113742Y0361497D01*
X0113983Y0361488D01*
X0114224Y0361474D01*
X0114465Y0361453D01*
X0114705Y0361427D01*
X0114945Y0361395D01*
X0115184Y0361357D01*
X0115421Y0361314D01*
X0115658Y0361264D01*
X0115893Y0361209D01*
X0116127Y0361149D01*
X0116359Y0361082D01*
X0116590Y0361011D01*
X0116819Y0360933D01*
X0117046Y0360850D01*
X0117271Y0360762D01*
X0117494Y0360668D01*
X0117714Y0360569D01*
X0117932Y0360464D01*
X0118147Y0360355D01*
X0118360Y0360240D01*
X0118570Y0360120D01*
X0118776Y0359995D01*
X0118980Y0359865D01*
X0119181Y0359730D01*
X0119378Y0359590D01*
X0119572Y0359446D01*
X0119762Y0359297D01*
X0119948Y0359143D01*
X0120131Y0358985D01*
X0120310Y0358823D01*
X0120485Y0358656D01*
X0120656Y0358485D01*
X0120823Y0358310D01*
X0120985Y0358131D01*
X0121143Y0357948D01*
X0121297Y0357762D01*
X0121446Y0357572D01*
X0121590Y0357378D01*
X0121730Y0357181D01*
X0121865Y0356980D01*
X0121995Y0356776D01*
X0122120Y0356570D01*
X0122240Y0356360D01*
X0122355Y0356147D01*
X0122464Y0355932D01*
X0122569Y0355714D01*
X0122668Y0355494D01*
X0122762Y0355271D01*
X0122850Y0355046D01*
X0122933Y0354819D01*
X0123011Y0354590D01*
X0123082Y0354359D01*
X0123149Y0354127D01*
X0123209Y0353893D01*
X0123264Y0353658D01*
X0123314Y0353421D01*
X0123357Y0353184D01*
X0123395Y0352945D01*
X0123427Y0352705D01*
X0123453Y0352465D01*
X0123474Y0352224D01*
X0123488Y0351983D01*
X0123497Y0351742D01*
X0123500Y0351500D01*
X0123500Y0326500D01*
X0123502Y0326360D01*
X0123508Y0326220D01*
X0123518Y0326080D01*
X0123531Y0325940D01*
X0123549Y0325801D01*
X0123571Y0325662D01*
X0123596Y0325525D01*
X0123625Y0325387D01*
X0123658Y0325251D01*
X0123695Y0325116D01*
X0123736Y0324982D01*
X0123781Y0324849D01*
X0123829Y0324717D01*
X0123881Y0324587D01*
X0123936Y0324458D01*
X0123995Y0324331D01*
X0124058Y0324205D01*
X0124124Y0324081D01*
X0124193Y0323960D01*
X0124266Y0323840D01*
X0124343Y0323722D01*
X0124422Y0323607D01*
X0124505Y0323493D01*
X0124591Y0323383D01*
X0124680Y0323274D01*
X0124772Y0323168D01*
X0124867Y0323065D01*
X0124964Y0322964D01*
X0125065Y0322867D01*
X0125168Y0322772D01*
X0125274Y0322680D01*
X0125383Y0322591D01*
X0125493Y0322505D01*
X0125607Y0322422D01*
X0125722Y0322343D01*
X0125840Y0322266D01*
X0125960Y0322193D01*
X0126081Y0322124D01*
X0126205Y0322058D01*
X0126331Y0321995D01*
X0126458Y0321936D01*
X0126587Y0321881D01*
X0126717Y0321829D01*
X0126849Y0321781D01*
X0126982Y0321736D01*
X0127116Y0321695D01*
X0127251Y0321658D01*
X0127387Y0321625D01*
X0127525Y0321596D01*
X0127662Y0321571D01*
X0127801Y0321549D01*
X0127940Y0321531D01*
X0128080Y0321518D01*
X0128220Y0321508D01*
X0128360Y0321502D01*
X0128500Y0321500D01*
X0128640Y0321498D01*
X0128780Y0321492D01*
X0128920Y0321482D01*
X0129060Y0321469D01*
X0129199Y0321451D01*
X0129338Y0321429D01*
X0129475Y0321404D01*
X0129613Y0321375D01*
X0129749Y0321342D01*
X0129884Y0321305D01*
X0130018Y0321264D01*
X0130151Y0321219D01*
X0130283Y0321171D01*
X0130413Y0321119D01*
X0130542Y0321064D01*
X0130669Y0321005D01*
X0130795Y0320942D01*
X0130919Y0320876D01*
X0131040Y0320807D01*
X0131160Y0320734D01*
X0131278Y0320657D01*
X0131393Y0320578D01*
X0131507Y0320495D01*
X0131617Y0320409D01*
X0131726Y0320320D01*
X0131832Y0320228D01*
X0131935Y0320133D01*
X0132036Y0320036D01*
X0132133Y0319935D01*
X0132228Y0319832D01*
X0132320Y0319726D01*
X0132409Y0319617D01*
X0132495Y0319507D01*
X0132578Y0319393D01*
X0132657Y0319278D01*
X0132734Y0319160D01*
X0132807Y0319040D01*
X0132876Y0318919D01*
X0132942Y0318795D01*
X0133005Y0318669D01*
X0133064Y0318542D01*
X0133119Y0318413D01*
X0133171Y0318283D01*
X0133219Y0318151D01*
X0133264Y0318018D01*
X0133305Y0317884D01*
X0133342Y0317749D01*
X0133375Y0317613D01*
X0133404Y0317475D01*
X0133429Y0317338D01*
X0133451Y0317199D01*
X0133469Y0317060D01*
X0133482Y0316920D01*
X0133492Y0316780D01*
X0133498Y0316640D01*
X0133500Y0316500D01*
X0133500Y0230500D01*
X0133498Y0230360D01*
X0133492Y0230220D01*
X0133482Y0230080D01*
X0133469Y0229940D01*
X0133451Y0229801D01*
X0133429Y0229662D01*
X0133404Y0229525D01*
X0133375Y0229387D01*
X0133342Y0229251D01*
X0133305Y0229116D01*
X0133264Y0228982D01*
X0133219Y0228849D01*
X0133171Y0228717D01*
X0133119Y0228587D01*
X0133064Y0228458D01*
X0133005Y0228331D01*
X0132942Y0228205D01*
X0132876Y0228081D01*
X0132807Y0227960D01*
X0132734Y0227840D01*
X0132657Y0227722D01*
X0132578Y0227607D01*
X0132495Y0227493D01*
X0132409Y0227383D01*
X0132320Y0227274D01*
X0132228Y0227168D01*
X0132133Y0227065D01*
X0132036Y0226964D01*
X0131935Y0226867D01*
X0131832Y0226772D01*
X0131726Y0226680D01*
X0131617Y0226591D01*
X0131507Y0226505D01*
X0131393Y0226422D01*
X0131278Y0226343D01*
X0131160Y0226266D01*
X0131040Y0226193D01*
X0130919Y0226124D01*
X0130795Y0226058D01*
X0130669Y0225995D01*
X0130542Y0225936D01*
X0130413Y0225881D01*
X0130283Y0225829D01*
X0130151Y0225781D01*
X0130018Y0225736D01*
X0129884Y0225695D01*
X0129749Y0225658D01*
X0129613Y0225625D01*
X0129475Y0225596D01*
X0129338Y0225571D01*
X0129199Y0225549D01*
X0129060Y0225531D01*
X0128920Y0225518D01*
X0128780Y0225508D01*
X0128640Y0225502D01*
X0128500Y0225500D01*
X0128360Y0225498D01*
X0128220Y0225492D01*
X0128080Y0225482D01*
X0127940Y0225469D01*
X0127801Y0225451D01*
X0127662Y0225429D01*
X0127525Y0225404D01*
X0127387Y0225375D01*
X0127251Y0225342D01*
X0127116Y0225305D01*
X0126982Y0225264D01*
X0126849Y0225219D01*
X0126717Y0225171D01*
X0126587Y0225119D01*
X0126458Y0225064D01*
X0126331Y0225005D01*
X0126205Y0224942D01*
X0126081Y0224876D01*
X0125960Y0224807D01*
X0125840Y0224734D01*
X0125722Y0224657D01*
X0125607Y0224578D01*
X0125493Y0224495D01*
X0125383Y0224409D01*
X0125274Y0224320D01*
X0125168Y0224228D01*
X0125065Y0224133D01*
X0124964Y0224036D01*
X0124867Y0223935D01*
X0124772Y0223832D01*
X0124680Y0223726D01*
X0124591Y0223617D01*
X0124505Y0223507D01*
X0124422Y0223393D01*
X0124343Y0223278D01*
X0124266Y0223160D01*
X0124193Y0223040D01*
X0124124Y0222919D01*
X0124058Y0222795D01*
X0123995Y0222669D01*
X0123936Y0222542D01*
X0123881Y0222413D01*
X0123829Y0222283D01*
X0123781Y0222151D01*
X0123736Y0222018D01*
X0123695Y0221884D01*
X0123658Y0221749D01*
X0123625Y0221613D01*
X0123596Y0221475D01*
X0123571Y0221338D01*
X0123549Y0221199D01*
X0123531Y0221060D01*
X0123518Y0220920D01*
X0123508Y0220780D01*
X0123502Y0220640D01*
X0123500Y0220500D01*
X0123500Y0011500D01*
X0123497Y0011258D01*
X0123488Y0011017D01*
X0123474Y0010776D01*
X0123453Y0010535D01*
X0123427Y0010295D01*
X0123395Y0010055D01*
X0123357Y0009816D01*
X0123314Y0009579D01*
X0123264Y0009342D01*
X0123209Y0009107D01*
X0123149Y0008873D01*
X0123082Y0008641D01*
X0123011Y0008410D01*
X0122933Y0008181D01*
X0122850Y0007954D01*
X0122762Y0007729D01*
X0122668Y0007506D01*
X0122569Y0007286D01*
X0122464Y0007068D01*
X0122355Y0006853D01*
X0122240Y0006640D01*
X0122120Y0006430D01*
X0121995Y0006224D01*
X0121865Y0006020D01*
X0121730Y0005819D01*
X0121590Y0005622D01*
X0121446Y0005428D01*
X0121297Y0005238D01*
X0121143Y0005052D01*
X0120985Y0004869D01*
X0120823Y0004690D01*
X0120656Y0004515D01*
X0120485Y0004344D01*
X0120310Y0004177D01*
X0120131Y0004015D01*
X0119948Y0003857D01*
X0119762Y0003703D01*
X0119572Y0003554D01*
X0119378Y0003410D01*
X0119181Y0003270D01*
X0118980Y0003135D01*
X0118776Y0003005D01*
X0118570Y0002880D01*
X0118360Y0002760D01*
X0118147Y0002645D01*
X0117932Y0002536D01*
X0117714Y0002431D01*
X0117494Y0002332D01*
X0117271Y0002238D01*
X0117046Y0002150D01*
X0116819Y0002067D01*
X0116590Y0001989D01*
X0116359Y0001918D01*
X0116127Y0001851D01*
X0115893Y0001791D01*
X0115658Y0001736D01*
X0115421Y0001686D01*
X0115184Y0001643D01*
X0114945Y0001605D01*
X0114705Y0001573D01*
X0114465Y0001547D01*
X0114224Y0001526D01*
X0113983Y0001512D01*
X0113742Y0001503D01*
X0113500Y0001500D01*
X0103500Y0001500D01*
X0103258Y0001503D01*
X0103017Y0001512D01*
X0102776Y0001526D01*
X0102535Y0001547D01*
X0102295Y0001573D01*
X0102055Y0001605D01*
X0101816Y0001643D01*
X0101579Y0001686D01*
X0101342Y0001736D01*
X0101107Y0001791D01*
X0100873Y0001851D01*
X0100641Y0001918D01*
X0100410Y0001989D01*
X0100181Y0002067D01*
X0099954Y0002150D01*
X0099729Y0002238D01*
X0099506Y0002332D01*
X0099286Y0002431D01*
X0099068Y0002536D01*
X0098853Y0002645D01*
X0098640Y0002760D01*
X0098430Y0002880D01*
X0098224Y0003005D01*
X0098020Y0003135D01*
X0097819Y0003270D01*
X0097622Y0003410D01*
X0097428Y0003554D01*
X0097238Y0003703D01*
X0097052Y0003857D01*
X0096869Y0004015D01*
X0096690Y0004177D01*
X0096515Y0004344D01*
X0096344Y0004515D01*
X0096177Y0004690D01*
X0096015Y0004869D01*
X0095857Y0005052D01*
X0095703Y0005238D01*
X0095554Y0005428D01*
X0095410Y0005622D01*
X0095270Y0005819D01*
X0095135Y0006020D01*
X0095005Y0006224D01*
X0094880Y0006430D01*
X0094760Y0006640D01*
X0094645Y0006853D01*
X0094536Y0007068D01*
X0094431Y0007286D01*
X0094332Y0007506D01*
X0094238Y0007729D01*
X0094150Y0007954D01*
X0094067Y0008181D01*
X0093989Y0008410D01*
X0093918Y0008641D01*
X0093851Y0008873D01*
X0093791Y0009107D01*
X0093736Y0009342D01*
X0093686Y0009579D01*
X0093643Y0009816D01*
X0093605Y0010055D01*
X0093573Y0010295D01*
X0093547Y0010535D01*
X0093526Y0010776D01*
X0093512Y0011017D01*
X0093503Y0011258D01*
X0093500Y0011500D01*
X0093497Y0011742D01*
X0093488Y0011983D01*
X0093474Y0012224D01*
X0093453Y0012465D01*
X0093427Y0012705D01*
X0093395Y0012945D01*
X0093357Y0013184D01*
X0093314Y0013421D01*
X0093264Y0013658D01*
X0093209Y0013893D01*
X0093149Y0014127D01*
X0093082Y0014359D01*
X0093011Y0014590D01*
X0092933Y0014819D01*
X0092850Y0015046D01*
X0092762Y0015271D01*
X0092668Y0015494D01*
X0092569Y0015714D01*
X0092464Y0015932D01*
X0092355Y0016147D01*
X0092240Y0016360D01*
X0092120Y0016570D01*
X0091995Y0016776D01*
X0091865Y0016980D01*
X0091730Y0017181D01*
X0091590Y0017378D01*
X0091446Y0017572D01*
X0091297Y0017762D01*
X0091143Y0017948D01*
X0090985Y0018131D01*
X0090823Y0018310D01*
X0090656Y0018485D01*
X0090485Y0018656D01*
X0090310Y0018823D01*
X0090131Y0018985D01*
X0089948Y0019143D01*
X0089762Y0019297D01*
X0089572Y0019446D01*
X0089378Y0019590D01*
X0089181Y0019730D01*
X0088980Y0019865D01*
X0088776Y0019995D01*
X0088570Y0020120D01*
X0088360Y0020240D01*
X0088147Y0020355D01*
X0087932Y0020464D01*
X0087714Y0020569D01*
X0087494Y0020668D01*
X0087271Y0020762D01*
X0087046Y0020850D01*
X0086819Y0020933D01*
X0086590Y0021011D01*
X0086359Y0021082D01*
X0086127Y0021149D01*
X0085893Y0021209D01*
X0085658Y0021264D01*
X0085421Y0021314D01*
X0085184Y0021357D01*
X0084945Y0021395D01*
X0084705Y0021427D01*
X0084465Y0021453D01*
X0084224Y0021474D01*
X0083983Y0021488D01*
X0083742Y0021497D01*
X0083500Y0021500D01*
X0053500Y0021500D01*
X0053258Y0021497D01*
X0053017Y0021488D01*
X0052776Y0021474D01*
X0052535Y0021453D01*
X0052295Y0021427D01*
X0052055Y0021395D01*
X0051816Y0021357D01*
X0051579Y0021314D01*
X0051342Y0021264D01*
X0051107Y0021209D01*
X0050873Y0021149D01*
X0050641Y0021082D01*
X0050410Y0021011D01*
X0050181Y0020933D01*
X0049954Y0020850D01*
X0049729Y0020762D01*
X0049506Y0020668D01*
X0049286Y0020569D01*
X0049068Y0020464D01*
X0048853Y0020355D01*
X0048640Y0020240D01*
X0048430Y0020120D01*
X0048224Y0019995D01*
X0048020Y0019865D01*
X0047819Y0019730D01*
X0047622Y0019590D01*
X0047428Y0019446D01*
X0047238Y0019297D01*
X0047052Y0019143D01*
X0046869Y0018985D01*
X0046690Y0018823D01*
X0046515Y0018656D01*
X0046344Y0018485D01*
X0046177Y0018310D01*
X0046015Y0018131D01*
X0045857Y0017948D01*
X0045703Y0017762D01*
X0045554Y0017572D01*
X0045410Y0017378D01*
X0045270Y0017181D01*
X0045135Y0016980D01*
X0045005Y0016776D01*
X0044880Y0016570D01*
X0044760Y0016360D01*
X0044645Y0016147D01*
X0044536Y0015932D01*
X0044431Y0015714D01*
X0044332Y0015494D01*
X0044238Y0015271D01*
X0044150Y0015046D01*
X0044067Y0014819D01*
X0043989Y0014590D01*
X0043918Y0014359D01*
X0043851Y0014127D01*
X0043791Y0013893D01*
X0043736Y0013658D01*
X0043686Y0013421D01*
X0043643Y0013184D01*
X0043605Y0012945D01*
X0043573Y0012705D01*
X0043547Y0012465D01*
X0043526Y0012224D01*
X0043512Y0011983D01*
X0043503Y0011742D01*
X0043500Y0011500D01*
X0043497Y0011258D01*
X0043488Y0011017D01*
X0043474Y0010776D01*
X0043453Y0010535D01*
X0043427Y0010295D01*
X0043395Y0010055D01*
X0043357Y0009816D01*
X0043314Y0009579D01*
X0043264Y0009342D01*
X0043209Y0009107D01*
X0043149Y0008873D01*
X0043082Y0008641D01*
X0043011Y0008410D01*
X0042933Y0008181D01*
X0042850Y0007954D01*
X0042762Y0007729D01*
X0042668Y0007506D01*
X0042569Y0007286D01*
X0042464Y0007068D01*
X0042355Y0006853D01*
X0042240Y0006640D01*
X0042120Y0006430D01*
X0041995Y0006224D01*
X0041865Y0006020D01*
X0041730Y0005819D01*
X0041590Y0005622D01*
X0041446Y0005428D01*
X0041297Y0005238D01*
X0041143Y0005052D01*
X0040985Y0004869D01*
X0040823Y0004690D01*
X0040656Y0004515D01*
X0040485Y0004344D01*
X0040310Y0004177D01*
X0040131Y0004015D01*
X0039948Y0003857D01*
X0039762Y0003703D01*
X0039572Y0003554D01*
X0039378Y0003410D01*
X0039181Y0003270D01*
X0038980Y0003135D01*
X0038776Y0003005D01*
X0038570Y0002880D01*
X0038360Y0002760D01*
X0038147Y0002645D01*
X0037932Y0002536D01*
X0037714Y0002431D01*
X0037494Y0002332D01*
X0037271Y0002238D01*
X0037046Y0002150D01*
X0036819Y0002067D01*
X0036590Y0001989D01*
X0036359Y0001918D01*
X0036127Y0001851D01*
X0035893Y0001791D01*
X0035658Y0001736D01*
X0035421Y0001686D01*
X0035184Y0001643D01*
X0034945Y0001605D01*
X0034705Y0001573D01*
X0034465Y0001547D01*
X0034224Y0001526D01*
X0033983Y0001512D01*
X0033742Y0001503D01*
X0033500Y0001500D01*
X0023500Y0001500D01*
X0023258Y0001503D01*
X0023017Y0001512D01*
X0022776Y0001526D01*
X0022535Y0001547D01*
X0022295Y0001573D01*
X0022055Y0001605D01*
X0021816Y0001643D01*
X0021579Y0001686D01*
X0021342Y0001736D01*
X0021107Y0001791D01*
X0020873Y0001851D01*
X0020641Y0001918D01*
X0020410Y0001989D01*
X0020181Y0002067D01*
X0019954Y0002150D01*
X0019729Y0002238D01*
X0019506Y0002332D01*
X0019286Y0002431D01*
X0019068Y0002536D01*
X0018853Y0002645D01*
X0018640Y0002760D01*
X0018430Y0002880D01*
X0018224Y0003005D01*
X0018020Y0003135D01*
X0017819Y0003270D01*
X0017622Y0003410D01*
X0017428Y0003554D01*
X0017238Y0003703D01*
X0017052Y0003857D01*
X0016869Y0004015D01*
X0016690Y0004177D01*
X0016515Y0004344D01*
X0016344Y0004515D01*
X0016177Y0004690D01*
X0016015Y0004869D01*
X0015857Y0005052D01*
X0015703Y0005238D01*
X0015554Y0005428D01*
X0015410Y0005622D01*
X0015270Y0005819D01*
X0015135Y0006020D01*
X0015005Y0006224D01*
X0014880Y0006430D01*
X0014760Y0006640D01*
X0014645Y0006853D01*
X0014536Y0007068D01*
X0014431Y0007286D01*
X0014332Y0007506D01*
X0014238Y0007729D01*
X0014150Y0007954D01*
X0014067Y0008181D01*
X0013989Y0008410D01*
X0013918Y0008641D01*
X0013851Y0008873D01*
X0013791Y0009107D01*
X0013736Y0009342D01*
X0013686Y0009579D01*
X0013643Y0009816D01*
X0013605Y0010055D01*
X0013573Y0010295D01*
X0013547Y0010535D01*
X0013526Y0010776D01*
X0013512Y0011017D01*
X0013503Y0011258D01*
X0013500Y0011500D01*
D12*
X0078500Y0251500D02*
X0078500Y0291500D01*
X0118500Y0291500D01*
X0118500Y0251500D01*
X0078500Y0251500D01*
M02*
