%
M48
M72
T01C0.01378
T02C0.01969
T03C0.03150
T04C0.03543
T05C0.12598
T06C0.15748
%
T01
X58500Y141500
X63500Y126500
X58500Y271500
X63500Y296500
T02
X63579Y234728
X68500Y234728
X73421Y234728
X78343Y234728
X83264Y234728
X58657Y234728
X53736Y234728
T03
X23500Y56500
X23500Y66500
X23500Y76500
X23500Y86500
X23500Y96500
X23500Y106500
X23500Y116500
X23500Y126500
X23500Y136500
X23500Y146500
X23500Y156500
X23500Y166500
X23500Y176500
X23500Y186500
X23500Y196500
X113500Y196500
X113500Y186500
X113500Y176500
X113500Y166500
X113500Y156500
X113500Y146500
X113500Y136500
X113500Y126500
X113500Y116500
X113500Y106500
X113500Y96500
X113500Y86500
X113500Y76500
X113500Y66500
X113500Y56500
T04
X126000Y271500
X126000Y281500
X126000Y291500
X126000Y301500
X126000Y311500
X9500Y311500
X9500Y301500
X9500Y291500
X9500Y281500
T05
X28500Y211500
X28500Y41500
X108500Y41500
X108500Y211500
T06
X108500Y346500
X28500Y346500
X28500Y16500
X108500Y16500
M30
