G75*
%MOIN*%
%OFA0B0*%
%FSLAX25Y25*%
%IPPOS*%
%LPD*%
%AMOC8*
5,1,8,0,0,1.08239X$1,22.5*
%
%ADD10C,0.07600*%
%ADD11R,0.05543X0.05543*%
%ADD12C,0.05543*%
%ADD13C,0.03969*%
%ADD14C,0.01000*%
%ADD15C,0.01200*%
%ADD16C,0.02978*%
D10*
X0023500Y0056500D03*
X0023500Y0066500D03*
X0023500Y0076500D03*
X0023500Y0086500D03*
X0023500Y0096500D03*
X0023500Y0106500D03*
X0023500Y0116500D03*
X0023500Y0126500D03*
X0023500Y0136500D03*
X0023500Y0146500D03*
X0023500Y0156500D03*
X0023500Y0166500D03*
X0023500Y0176500D03*
X0023500Y0186500D03*
X0023500Y0196500D03*
X0113500Y0196500D03*
X0113500Y0186500D03*
X0113500Y0176500D03*
X0113500Y0166500D03*
X0113500Y0156500D03*
X0113500Y0146500D03*
X0113500Y0136500D03*
X0113500Y0126500D03*
X0113500Y0116500D03*
X0113500Y0106500D03*
X0113500Y0096500D03*
X0113500Y0086500D03*
X0113500Y0076500D03*
X0113500Y0066500D03*
X0113500Y0056500D03*
D11*
X0126000Y0311500D03*
D12*
X0126000Y0301500D03*
X0126000Y0291500D03*
X0126000Y0281500D03*
X0126000Y0271500D03*
X0009500Y0281500D03*
X0009500Y0291500D03*
X0009500Y0301500D03*
X0009500Y0311500D03*
D13*
X0053736Y0236713D02*
X0053736Y0232744D01*
X0058657Y0232744D02*
X0058657Y0236713D01*
X0063579Y0236713D02*
X0063579Y0232744D01*
X0068500Y0232744D02*
X0068500Y0236713D01*
X0073421Y0236713D02*
X0073421Y0232744D01*
X0078343Y0232744D02*
X0078343Y0236713D01*
X0083264Y0236713D02*
X0083264Y0232744D01*
D14*
X0080803Y0229994D02*
X0081177Y0229621D01*
X0082531Y0229060D01*
X0083997Y0229060D01*
X0085351Y0229621D01*
X0086387Y0230657D01*
X0086948Y0232011D01*
X0086948Y0237445D01*
X0086387Y0238800D01*
X0085351Y0239836D01*
X0083997Y0240397D01*
X0082531Y0240397D01*
X0081177Y0239836D01*
X0080803Y0239462D01*
X0080429Y0239836D01*
X0079075Y0240397D01*
X0077610Y0240397D01*
X0076256Y0239836D01*
X0075740Y0239321D01*
X0075642Y0239419D01*
X0075072Y0239800D01*
X0074438Y0240063D01*
X0073764Y0240197D01*
X0073421Y0240197D01*
X0073078Y0240197D01*
X0072405Y0240063D01*
X0071771Y0239800D01*
X0071200Y0239419D01*
X0071102Y0239321D01*
X0070587Y0239836D01*
X0069233Y0240397D01*
X0067767Y0240397D01*
X0066413Y0239836D01*
X0066039Y0239462D01*
X0065800Y0239702D01*
X0065800Y0294290D01*
X0066203Y0294694D01*
X0066689Y0295866D01*
X0066689Y0297134D01*
X0066203Y0298306D01*
X0065306Y0299203D01*
X0064134Y0299689D01*
X0062866Y0299689D01*
X0061694Y0299203D01*
X0060797Y0298306D01*
X0060311Y0297134D01*
X0060311Y0295866D01*
X0060797Y0294694D01*
X0061200Y0294290D01*
X0061200Y0273310D01*
X0060306Y0274203D01*
X0059134Y0274689D01*
X0057866Y0274689D01*
X0056694Y0274203D01*
X0055797Y0273306D01*
X0055311Y0272134D01*
X0055311Y0270866D01*
X0055797Y0269694D01*
X0056357Y0269133D01*
X0056357Y0239623D01*
X0056197Y0239462D01*
X0055823Y0239836D01*
X0054469Y0240397D01*
X0053003Y0240397D01*
X0051649Y0239836D01*
X0050613Y0238800D01*
X0050052Y0237445D01*
X0050052Y0232011D01*
X0050613Y0230657D01*
X0051649Y0229621D01*
X0053003Y0229060D01*
X0054469Y0229060D01*
X0055823Y0229621D01*
X0056197Y0229994D01*
X0056571Y0229621D01*
X0057925Y0229060D01*
X0059390Y0229060D01*
X0060744Y0229621D01*
X0061118Y0229994D01*
X0061492Y0229621D01*
X0062846Y0229060D01*
X0064312Y0229060D01*
X0065666Y0229621D01*
X0066039Y0229994D01*
X0066413Y0229621D01*
X0067767Y0229060D01*
X0069233Y0229060D01*
X0070587Y0229621D01*
X0071102Y0230136D01*
X0071200Y0230038D01*
X0071771Y0229656D01*
X0072405Y0229394D01*
X0073078Y0229260D01*
X0073421Y0229260D01*
X0073421Y0234728D01*
X0073421Y0234728D01*
X0073421Y0229260D01*
X0073764Y0229260D01*
X0074438Y0229394D01*
X0075072Y0229656D01*
X0075642Y0230038D01*
X0075740Y0230136D01*
X0076256Y0229621D01*
X0077610Y0229060D01*
X0079075Y0229060D01*
X0080429Y0229621D01*
X0080803Y0229994D01*
X0079319Y0229161D02*
X0082288Y0229161D01*
X0084240Y0229161D02*
X0119282Y0229161D01*
X0119170Y0229000D02*
X0118802Y0228210D01*
X0118576Y0227368D01*
X0118500Y0226500D01*
X0118500Y0215778D01*
X0117142Y0218131D01*
X0115131Y0220142D01*
X0112668Y0221563D01*
X0109922Y0222299D01*
X0107078Y0222299D01*
X0104332Y0221563D01*
X0101869Y0220142D01*
X0099858Y0218131D01*
X0098437Y0215668D01*
X0097701Y0212922D01*
X0097701Y0210078D01*
X0098437Y0207332D01*
X0099858Y0204869D01*
X0101869Y0202858D01*
X0104332Y0201437D01*
X0107078Y0200701D01*
X0109922Y0200701D01*
X0109923Y0200701D01*
X0108837Y0199615D01*
X0108000Y0197594D01*
X0108000Y0195406D01*
X0108837Y0193384D01*
X0110384Y0191837D01*
X0111199Y0191500D01*
X0110384Y0191163D01*
X0108837Y0189615D01*
X0108000Y0187594D01*
X0108000Y0185406D01*
X0108837Y0183384D01*
X0110384Y0181837D01*
X0111199Y0181500D01*
X0110384Y0181163D01*
X0108837Y0179615D01*
X0108000Y0177594D01*
X0108000Y0175406D01*
X0108837Y0173384D01*
X0110384Y0171837D01*
X0111199Y0171500D01*
X0110384Y0171163D01*
X0108837Y0169615D01*
X0108000Y0167594D01*
X0108000Y0165406D01*
X0108837Y0163384D01*
X0110384Y0161837D01*
X0111199Y0161500D01*
X0110384Y0161163D01*
X0108837Y0159615D01*
X0108000Y0157594D01*
X0108000Y0155406D01*
X0108837Y0153384D01*
X0110384Y0151837D01*
X0111199Y0151500D01*
X0110384Y0151163D01*
X0108837Y0149615D01*
X0108000Y0147594D01*
X0108000Y0145406D01*
X0108837Y0143384D01*
X0110384Y0141837D01*
X0111442Y0141399D01*
X0110722Y0141033D01*
X0110047Y0140543D01*
X0109457Y0139953D01*
X0108967Y0139278D01*
X0108588Y0138534D01*
X0108330Y0137741D01*
X0108200Y0136917D01*
X0108200Y0136787D01*
X0113213Y0136787D01*
X0113213Y0136213D01*
X0108200Y0136213D01*
X0108200Y0136083D01*
X0108330Y0135259D01*
X0108588Y0134466D01*
X0108967Y0133722D01*
X0109457Y0133047D01*
X0110047Y0132457D01*
X0110722Y0131967D01*
X0111442Y0131601D01*
X0110384Y0131163D01*
X0108837Y0129615D01*
X0108000Y0127594D01*
X0108000Y0125406D01*
X0108837Y0123384D01*
X0110384Y0121837D01*
X0111199Y0121500D01*
X0110384Y0121163D01*
X0108837Y0119615D01*
X0108000Y0117594D01*
X0108000Y0115406D01*
X0108837Y0113384D01*
X0110384Y0111837D01*
X0111199Y0111500D01*
X0110384Y0111163D01*
X0108837Y0109615D01*
X0108000Y0107594D01*
X0108000Y0105406D01*
X0108837Y0103384D01*
X0110384Y0101837D01*
X0111199Y0101500D01*
X0110384Y0101163D01*
X0108837Y0099615D01*
X0108000Y0097594D01*
X0108000Y0095406D01*
X0108108Y0095144D01*
X0061689Y0141564D01*
X0061689Y0142134D01*
X0061203Y0143306D01*
X0060306Y0144203D01*
X0059134Y0144689D01*
X0057866Y0144689D01*
X0056694Y0144203D01*
X0055797Y0143306D01*
X0055311Y0142134D01*
X0055311Y0140866D01*
X0055797Y0139694D01*
X0056694Y0138797D01*
X0057866Y0138311D01*
X0058436Y0138311D01*
X0108338Y0088410D01*
X0108000Y0087594D01*
X0108000Y0085406D01*
X0108108Y0085144D01*
X0066689Y0126564D01*
X0066689Y0127134D01*
X0066203Y0128306D01*
X0065306Y0129203D01*
X0064134Y0129689D01*
X0062866Y0129689D01*
X0061694Y0129203D01*
X0060797Y0128306D01*
X0060311Y0127134D01*
X0060311Y0125866D01*
X0060797Y0124694D01*
X0061694Y0123797D01*
X0062866Y0123311D01*
X0063436Y0123311D01*
X0108338Y0078410D01*
X0108000Y0077594D01*
X0108000Y0075406D01*
X0108837Y0073384D01*
X0110384Y0071837D01*
X0111442Y0071399D01*
X0110722Y0071033D01*
X0110047Y0070543D01*
X0109457Y0069953D01*
X0108967Y0069278D01*
X0108588Y0068534D01*
X0108330Y0067741D01*
X0108200Y0066917D01*
X0108200Y0066787D01*
X0113213Y0066787D01*
X0113213Y0066213D01*
X0108200Y0066213D01*
X0108200Y0066083D01*
X0108330Y0065259D01*
X0108588Y0064466D01*
X0108967Y0063722D01*
X0109457Y0063047D01*
X0110047Y0062457D01*
X0110722Y0061967D01*
X0111442Y0061601D01*
X0110384Y0061163D01*
X0108837Y0059615D01*
X0108000Y0057594D01*
X0108000Y0055406D01*
X0108837Y0053384D01*
X0109923Y0052299D01*
X0109922Y0052299D01*
X0107078Y0052299D01*
X0104332Y0051563D01*
X0101869Y0050142D01*
X0099858Y0048131D01*
X0098437Y0045668D01*
X0097701Y0042922D01*
X0097701Y0040078D01*
X0098437Y0037332D01*
X0099858Y0034869D01*
X0101869Y0032858D01*
X0104222Y0031500D01*
X0032778Y0031500D01*
X0035131Y0032858D01*
X0037142Y0034869D01*
X0038563Y0037332D01*
X0039299Y0040078D01*
X0039299Y0042922D01*
X0038563Y0045668D01*
X0037142Y0048131D01*
X0035131Y0050142D01*
X0032668Y0051563D01*
X0029922Y0052299D01*
X0027078Y0052299D01*
X0027077Y0052299D01*
X0028163Y0053384D01*
X0029000Y0055406D01*
X0029000Y0057594D01*
X0028163Y0059615D01*
X0026615Y0061163D01*
X0025558Y0061601D01*
X0026278Y0061967D01*
X0026953Y0062457D01*
X0027543Y0063047D01*
X0028033Y0063722D01*
X0028412Y0064466D01*
X0028669Y0065259D01*
X0028800Y0066083D01*
X0028800Y0066213D01*
X0023787Y0066213D01*
X0023787Y0066787D01*
X0028800Y0066787D01*
X0028800Y0066917D01*
X0028669Y0067741D01*
X0028412Y0068534D01*
X0028033Y0069278D01*
X0027543Y0069953D01*
X0026953Y0070543D01*
X0026278Y0071033D01*
X0025558Y0071399D01*
X0026615Y0071837D01*
X0028163Y0073384D01*
X0029000Y0075406D01*
X0029000Y0077594D01*
X0028163Y0079615D01*
X0026615Y0081163D01*
X0025801Y0081500D01*
X0026615Y0081837D01*
X0028163Y0083384D01*
X0029000Y0085406D01*
X0029000Y0087594D01*
X0028163Y0089615D01*
X0026615Y0091163D01*
X0025801Y0091500D01*
X0026615Y0091837D01*
X0028163Y0093384D01*
X0029000Y0095406D01*
X0029000Y0097594D01*
X0028163Y0099615D01*
X0026615Y0101163D01*
X0025558Y0101601D01*
X0026278Y0101967D01*
X0026953Y0102457D01*
X0027543Y0103047D01*
X0028033Y0103722D01*
X0028412Y0104466D01*
X0028669Y0105259D01*
X0028800Y0106083D01*
X0028800Y0106213D01*
X0023787Y0106213D01*
X0023787Y0106787D01*
X0028800Y0106787D01*
X0028800Y0106917D01*
X0028669Y0107741D01*
X0028412Y0108534D01*
X0028033Y0109278D01*
X0027543Y0109953D01*
X0026953Y0110543D01*
X0026278Y0111033D01*
X0025558Y0111399D01*
X0026615Y0111837D01*
X0028163Y0113384D01*
X0029000Y0115406D01*
X0029000Y0117594D01*
X0028163Y0119615D01*
X0026615Y0121163D01*
X0025801Y0121500D01*
X0026615Y0121837D01*
X0028163Y0123384D01*
X0029000Y0125406D01*
X0029000Y0127594D01*
X0028163Y0129615D01*
X0026615Y0131163D01*
X0025801Y0131500D01*
X0026615Y0131837D01*
X0028163Y0133384D01*
X0029000Y0135406D01*
X0029000Y0137594D01*
X0028163Y0139615D01*
X0026615Y0141163D01*
X0025801Y0141500D01*
X0026615Y0141837D01*
X0028163Y0143384D01*
X0029000Y0145406D01*
X0029000Y0147594D01*
X0028163Y0149615D01*
X0026615Y0151163D01*
X0025801Y0151500D01*
X0026615Y0151837D01*
X0028163Y0153384D01*
X0029000Y0155406D01*
X0029000Y0157594D01*
X0028163Y0159615D01*
X0026615Y0161163D01*
X0025801Y0161500D01*
X0026615Y0161837D01*
X0028163Y0163384D01*
X0029000Y0165406D01*
X0029000Y0167594D01*
X0028163Y0169615D01*
X0026615Y0171163D01*
X0025801Y0171500D01*
X0026615Y0171837D01*
X0028163Y0173384D01*
X0029000Y0175406D01*
X0029000Y0177594D01*
X0028163Y0179615D01*
X0026615Y0181163D01*
X0025801Y0181500D01*
X0026615Y0181837D01*
X0028163Y0183384D01*
X0029000Y0185406D01*
X0029000Y0187594D01*
X0028163Y0189615D01*
X0026615Y0191163D01*
X0025801Y0191500D01*
X0026615Y0191837D01*
X0028163Y0193384D01*
X0029000Y0195406D01*
X0029000Y0197594D01*
X0028163Y0199615D01*
X0027077Y0200701D01*
X0027078Y0200701D01*
X0029922Y0200701D01*
X0032668Y0201437D01*
X0035131Y0202858D01*
X0037142Y0204869D01*
X0038563Y0207332D01*
X0039299Y0210078D01*
X0039299Y0212922D01*
X0038563Y0215668D01*
X0037142Y0218131D01*
X0035131Y0220142D01*
X0032668Y0221563D01*
X0029922Y0222299D01*
X0027078Y0222299D01*
X0024332Y0221563D01*
X0021869Y0220142D01*
X0019858Y0218131D01*
X0018500Y0215778D01*
X0018500Y0271500D01*
X0018424Y0272368D01*
X0018198Y0273210D01*
X0017830Y0274000D01*
X0017330Y0274714D01*
X0016714Y0275330D01*
X0016000Y0275830D01*
X0015210Y0276198D01*
X0014368Y0276424D01*
X0013500Y0276500D01*
X0010500Y0276500D01*
X0009632Y0276576D01*
X0008790Y0276802D01*
X0008000Y0277170D01*
X0007611Y0277443D01*
X0008611Y0277028D01*
X0010389Y0277028D01*
X0012033Y0277709D01*
X0013291Y0278967D01*
X0013972Y0280611D01*
X0013972Y0282389D01*
X0013291Y0284033D01*
X0012033Y0285291D01*
X0010389Y0285972D01*
X0008611Y0285972D01*
X0006967Y0285291D01*
X0006500Y0284824D01*
X0006500Y0288176D01*
X0006967Y0287709D01*
X0008611Y0287028D01*
X0010389Y0287028D01*
X0012033Y0287709D01*
X0013291Y0288967D01*
X0013972Y0290611D01*
X0013972Y0292389D01*
X0013291Y0294033D01*
X0012033Y0295291D01*
X0010389Y0295972D01*
X0008611Y0295972D01*
X0006967Y0295291D01*
X0006500Y0294824D01*
X0006500Y0298459D01*
X0006717Y0298242D01*
X0007261Y0297847D01*
X0007860Y0297541D01*
X0008500Y0297334D01*
X0009114Y0297236D01*
X0009114Y0301114D01*
X0009886Y0301114D01*
X0009886Y0301886D01*
X0013764Y0301886D01*
X0013666Y0302500D01*
X0013459Y0303140D01*
X0013153Y0303739D01*
X0012758Y0304283D01*
X0012283Y0304758D01*
X0011739Y0305153D01*
X0011140Y0305459D01*
X0010500Y0305666D01*
X0009886Y0305764D01*
X0009886Y0301886D01*
X0009114Y0301886D01*
X0009114Y0305764D01*
X0008500Y0305666D01*
X0007860Y0305459D01*
X0007261Y0305153D01*
X0006717Y0304758D01*
X0006500Y0304541D01*
X0006500Y0308176D01*
X0006967Y0307709D01*
X0008611Y0307028D01*
X0010389Y0307028D01*
X0012033Y0307709D01*
X0013291Y0308967D01*
X0013972Y0310611D01*
X0013972Y0312389D01*
X0013291Y0314033D01*
X0012033Y0315291D01*
X0010389Y0315972D01*
X0008611Y0315972D01*
X0006967Y0315291D01*
X0006500Y0314824D01*
X0006500Y0316500D01*
X0010084Y0316500D01*
X0013096Y0317479D01*
X0015659Y0319341D01*
X0015659Y0319341D01*
X0017521Y0321903D01*
X0017521Y0321904D01*
X0018500Y0324916D01*
X0018500Y0331500D01*
X0118500Y0331500D01*
X0118500Y0324916D01*
X0119479Y0321903D01*
X0121341Y0319341D01*
X0121341Y0319341D01*
X0123903Y0317479D01*
X0126916Y0316500D01*
X0128500Y0316500D01*
X0128500Y0315972D01*
X0122524Y0315972D01*
X0121528Y0314976D01*
X0121528Y0308024D01*
X0122524Y0307028D01*
X0128500Y0307028D01*
X0128500Y0305305D01*
X0126889Y0305972D01*
X0125111Y0305972D01*
X0123467Y0305291D01*
X0122209Y0304033D01*
X0121528Y0302389D01*
X0121528Y0300611D01*
X0122209Y0298967D01*
X0123467Y0297709D01*
X0125111Y0297028D01*
X0126889Y0297028D01*
X0128500Y0297695D01*
X0128500Y0295305D01*
X0126889Y0295972D01*
X0125111Y0295972D01*
X0123467Y0295291D01*
X0122482Y0294306D01*
X0121219Y0295569D01*
X0119455Y0296300D01*
X0077545Y0296300D01*
X0075781Y0295569D01*
X0074431Y0294219D01*
X0073700Y0292455D01*
X0073700Y0250545D01*
X0074431Y0248781D01*
X0075781Y0247431D01*
X0077545Y0246700D01*
X0119455Y0246700D01*
X0121219Y0247431D01*
X0122569Y0248781D01*
X0123300Y0250545D01*
X0123300Y0267876D01*
X0123467Y0267709D01*
X0125111Y0267028D01*
X0126889Y0267028D01*
X0128500Y0267695D01*
X0128500Y0236500D01*
X0128424Y0235632D01*
X0128198Y0234790D01*
X0127830Y0234000D01*
X0127330Y0233286D01*
X0126714Y0232670D01*
X0126000Y0232170D01*
X0125210Y0231802D01*
X0124368Y0231576D01*
X0122632Y0231424D01*
X0121790Y0231198D01*
X0121000Y0230830D01*
X0120286Y0230330D01*
X0119670Y0229714D01*
X0119170Y0229000D01*
X0118789Y0228162D02*
X0018500Y0228162D01*
X0018500Y0227164D02*
X0118558Y0227164D01*
X0118500Y0226165D02*
X0018500Y0226165D01*
X0018500Y0225167D02*
X0118500Y0225167D01*
X0118500Y0224168D02*
X0018500Y0224168D01*
X0018500Y0223170D02*
X0118500Y0223170D01*
X0118500Y0222171D02*
X0110400Y0222171D01*
X0113345Y0221172D02*
X0118500Y0221172D01*
X0118500Y0220174D02*
X0115075Y0220174D01*
X0116097Y0219175D02*
X0118500Y0219175D01*
X0118500Y0218177D02*
X0117095Y0218177D01*
X0117691Y0217178D02*
X0118500Y0217178D01*
X0118500Y0216180D02*
X0118268Y0216180D01*
X0120115Y0230159D02*
X0085889Y0230159D01*
X0086594Y0231158D02*
X0121702Y0231158D01*
X0125971Y0232156D02*
X0086948Y0232156D01*
X0086948Y0233155D02*
X0127199Y0233155D01*
X0127902Y0234153D02*
X0086948Y0234153D01*
X0086948Y0235152D02*
X0128295Y0235152D01*
X0128469Y0236150D02*
X0086948Y0236150D01*
X0086948Y0237149D02*
X0128500Y0237149D01*
X0128500Y0238147D02*
X0086657Y0238147D01*
X0086041Y0239146D02*
X0128500Y0239146D01*
X0128500Y0240144D02*
X0084607Y0240144D01*
X0081921Y0240144D02*
X0079685Y0240144D01*
X0077000Y0240144D02*
X0074029Y0240144D01*
X0073421Y0240144D02*
X0073421Y0240144D01*
X0073421Y0240197D02*
X0073421Y0234728D01*
X0073421Y0234728D01*
X0073421Y0240197D01*
X0072813Y0240144D02*
X0069843Y0240144D01*
X0067157Y0240144D02*
X0065800Y0240144D01*
X0065800Y0241143D02*
X0128500Y0241143D01*
X0128500Y0242141D02*
X0065800Y0242141D01*
X0065800Y0243140D02*
X0128500Y0243140D01*
X0128500Y0244138D02*
X0065800Y0244138D01*
X0065800Y0245137D02*
X0128500Y0245137D01*
X0128500Y0246135D02*
X0065800Y0246135D01*
X0065800Y0247134D02*
X0076498Y0247134D01*
X0075079Y0248132D02*
X0065800Y0248132D01*
X0065800Y0249131D02*
X0074286Y0249131D01*
X0073872Y0250129D02*
X0065800Y0250129D01*
X0065800Y0251128D02*
X0073700Y0251128D01*
X0073700Y0252126D02*
X0065800Y0252126D01*
X0065800Y0253125D02*
X0073700Y0253125D01*
X0073700Y0254123D02*
X0065800Y0254123D01*
X0065800Y0255122D02*
X0073700Y0255122D01*
X0073700Y0256120D02*
X0065800Y0256120D01*
X0065800Y0257119D02*
X0073700Y0257119D01*
X0073700Y0258117D02*
X0065800Y0258117D01*
X0065800Y0259116D02*
X0073700Y0259116D01*
X0073700Y0260114D02*
X0065800Y0260114D01*
X0065800Y0261113D02*
X0073700Y0261113D01*
X0073700Y0262111D02*
X0065800Y0262111D01*
X0065800Y0263110D02*
X0073700Y0263110D01*
X0073700Y0264108D02*
X0065800Y0264108D01*
X0065800Y0265107D02*
X0073700Y0265107D01*
X0073700Y0266105D02*
X0065800Y0266105D01*
X0065800Y0267104D02*
X0073700Y0267104D01*
X0073700Y0268103D02*
X0065800Y0268103D01*
X0065800Y0269101D02*
X0073700Y0269101D01*
X0073700Y0270100D02*
X0065800Y0270100D01*
X0065800Y0271098D02*
X0073700Y0271098D01*
X0073700Y0272097D02*
X0065800Y0272097D01*
X0065800Y0273095D02*
X0073700Y0273095D01*
X0073700Y0274094D02*
X0065800Y0274094D01*
X0065800Y0275092D02*
X0073700Y0275092D01*
X0073700Y0276091D02*
X0065800Y0276091D01*
X0065800Y0277089D02*
X0073700Y0277089D01*
X0073700Y0278088D02*
X0065800Y0278088D01*
X0065800Y0279086D02*
X0073700Y0279086D01*
X0073700Y0280085D02*
X0065800Y0280085D01*
X0065800Y0281083D02*
X0073700Y0281083D01*
X0073700Y0282082D02*
X0065800Y0282082D01*
X0065800Y0283080D02*
X0073700Y0283080D01*
X0073700Y0284079D02*
X0065800Y0284079D01*
X0065800Y0285077D02*
X0073700Y0285077D01*
X0073700Y0286076D02*
X0065800Y0286076D01*
X0065800Y0287074D02*
X0073700Y0287074D01*
X0073700Y0288073D02*
X0065800Y0288073D01*
X0065800Y0289071D02*
X0073700Y0289071D01*
X0073700Y0290070D02*
X0065800Y0290070D01*
X0065800Y0291068D02*
X0073700Y0291068D01*
X0073700Y0292067D02*
X0065800Y0292067D01*
X0065800Y0293065D02*
X0073953Y0293065D01*
X0074366Y0294064D02*
X0065800Y0294064D01*
X0066356Y0295062D02*
X0075274Y0295062D01*
X0076968Y0296061D02*
X0066689Y0296061D01*
X0066689Y0297059D02*
X0125036Y0297059D01*
X0123118Y0298058D02*
X0066306Y0298058D01*
X0065453Y0299056D02*
X0122172Y0299056D01*
X0121758Y0300055D02*
X0013522Y0300055D01*
X0013459Y0299860D02*
X0013666Y0300500D01*
X0013764Y0301114D01*
X0009886Y0301114D01*
X0009886Y0297236D01*
X0010500Y0297334D01*
X0011140Y0297541D01*
X0011739Y0297847D01*
X0012283Y0298242D01*
X0012758Y0298717D01*
X0013153Y0299261D01*
X0013459Y0299860D01*
X0013005Y0299056D02*
X0061546Y0299056D01*
X0060694Y0298058D02*
X0012030Y0298058D01*
X0009886Y0298058D02*
X0009114Y0298058D01*
X0009114Y0299056D02*
X0009886Y0299056D01*
X0009886Y0300055D02*
X0009114Y0300055D01*
X0009114Y0301053D02*
X0009886Y0301053D01*
X0009886Y0302052D02*
X0009114Y0302052D01*
X0009114Y0303050D02*
X0009886Y0303050D01*
X0009886Y0304049D02*
X0009114Y0304049D01*
X0009114Y0305047D02*
X0009886Y0305047D01*
X0011885Y0305047D02*
X0123224Y0305047D01*
X0122225Y0304049D02*
X0012928Y0304049D01*
X0013488Y0303050D02*
X0121802Y0303050D01*
X0121528Y0302052D02*
X0013737Y0302052D01*
X0013754Y0301053D02*
X0121528Y0301053D01*
X0121726Y0295062D02*
X0123238Y0295062D01*
X0120032Y0296061D02*
X0128500Y0296061D01*
X0128500Y0297059D02*
X0126964Y0297059D01*
X0128500Y0306046D02*
X0006500Y0306046D01*
X0006500Y0307044D02*
X0008572Y0307044D01*
X0010428Y0307044D02*
X0122508Y0307044D01*
X0121528Y0308043D02*
X0012367Y0308043D01*
X0013322Y0309041D02*
X0121528Y0309041D01*
X0121528Y0310040D02*
X0013735Y0310040D01*
X0013972Y0311039D02*
X0121528Y0311039D01*
X0121528Y0312037D02*
X0013972Y0312037D01*
X0013704Y0313036D02*
X0121528Y0313036D01*
X0121528Y0314034D02*
X0013290Y0314034D01*
X0012291Y0315033D02*
X0121585Y0315033D01*
X0123148Y0318028D02*
X0013852Y0318028D01*
X0015227Y0319027D02*
X0121773Y0319027D01*
X0120844Y0320025D02*
X0016156Y0320025D01*
X0016882Y0321024D02*
X0120118Y0321024D01*
X0119479Y0321903D02*
X0119479Y0321903D01*
X0119440Y0322022D02*
X0017560Y0322022D01*
X0017884Y0323021D02*
X0119116Y0323021D01*
X0118791Y0324019D02*
X0018209Y0324019D01*
X0018500Y0325018D02*
X0118500Y0325018D01*
X0118500Y0326016D02*
X0018500Y0326016D01*
X0018500Y0327015D02*
X0118500Y0327015D01*
X0118500Y0328013D02*
X0018500Y0328013D01*
X0018500Y0329012D02*
X0118500Y0329012D01*
X0118500Y0330010D02*
X0018500Y0330010D01*
X0018500Y0331009D02*
X0118500Y0331009D01*
X0125286Y0317030D02*
X0011714Y0317030D01*
X0007115Y0305047D02*
X0006500Y0305047D01*
X0006500Y0308043D02*
X0006633Y0308043D01*
X0006709Y0315033D02*
X0006500Y0315033D01*
X0006500Y0316031D02*
X0128500Y0316031D01*
X0128500Y0267104D02*
X0127072Y0267104D01*
X0128500Y0266105D02*
X0123300Y0266105D01*
X0123300Y0265107D02*
X0128500Y0265107D01*
X0128500Y0264108D02*
X0123300Y0264108D01*
X0123300Y0263110D02*
X0128500Y0263110D01*
X0128500Y0262111D02*
X0123300Y0262111D01*
X0123300Y0261113D02*
X0128500Y0261113D01*
X0128500Y0260114D02*
X0123300Y0260114D01*
X0123300Y0259116D02*
X0128500Y0259116D01*
X0128500Y0258117D02*
X0123300Y0258117D01*
X0123300Y0257119D02*
X0128500Y0257119D01*
X0128500Y0256120D02*
X0123300Y0256120D01*
X0123300Y0255122D02*
X0128500Y0255122D01*
X0128500Y0254123D02*
X0123300Y0254123D01*
X0123300Y0253125D02*
X0128500Y0253125D01*
X0128500Y0252126D02*
X0123300Y0252126D01*
X0123300Y0251128D02*
X0128500Y0251128D01*
X0128500Y0250129D02*
X0123128Y0250129D01*
X0122714Y0249131D02*
X0128500Y0249131D01*
X0128500Y0248132D02*
X0121921Y0248132D01*
X0120502Y0247134D02*
X0128500Y0247134D01*
X0124928Y0267104D02*
X0123300Y0267104D01*
X0106600Y0222171D02*
X0030400Y0222171D01*
X0033345Y0221172D02*
X0103655Y0221172D01*
X0101925Y0220174D02*
X0035075Y0220174D01*
X0036097Y0219175D02*
X0100903Y0219175D01*
X0099905Y0218177D02*
X0037095Y0218177D01*
X0037691Y0217178D02*
X0099309Y0217178D01*
X0098732Y0216180D02*
X0038268Y0216180D01*
X0038694Y0215181D02*
X0098306Y0215181D01*
X0098039Y0214183D02*
X0038961Y0214183D01*
X0039229Y0213184D02*
X0097771Y0213184D01*
X0097701Y0212186D02*
X0039299Y0212186D01*
X0039299Y0211187D02*
X0097701Y0211187D01*
X0097701Y0210189D02*
X0039299Y0210189D01*
X0039061Y0209190D02*
X0097939Y0209190D01*
X0098206Y0208192D02*
X0038794Y0208192D01*
X0038483Y0207193D02*
X0098517Y0207193D01*
X0099093Y0206195D02*
X0037907Y0206195D01*
X0037330Y0205196D02*
X0099670Y0205196D01*
X0100530Y0204198D02*
X0036470Y0204198D01*
X0035472Y0203199D02*
X0101528Y0203199D01*
X0103008Y0202201D02*
X0033992Y0202201D01*
X0031793Y0201202D02*
X0105207Y0201202D01*
X0108667Y0199205D02*
X0028333Y0199205D01*
X0028746Y0198207D02*
X0108254Y0198207D01*
X0108000Y0197208D02*
X0029000Y0197208D01*
X0029000Y0196210D02*
X0108000Y0196210D01*
X0108081Y0195211D02*
X0028919Y0195211D01*
X0028506Y0194213D02*
X0108494Y0194213D01*
X0109008Y0193214D02*
X0027992Y0193214D01*
X0026994Y0192216D02*
X0110006Y0192216D01*
X0110516Y0191217D02*
X0026484Y0191217D01*
X0027560Y0190219D02*
X0109440Y0190219D01*
X0108674Y0189220D02*
X0028326Y0189220D01*
X0028740Y0188222D02*
X0108260Y0188222D01*
X0108000Y0187223D02*
X0029000Y0187223D01*
X0029000Y0186225D02*
X0108000Y0186225D01*
X0108075Y0185226D02*
X0028925Y0185226D01*
X0028512Y0184228D02*
X0108488Y0184228D01*
X0108993Y0183229D02*
X0028007Y0183229D01*
X0027009Y0182231D02*
X0109991Y0182231D01*
X0110552Y0181232D02*
X0026448Y0181232D01*
X0027545Y0180234D02*
X0109455Y0180234D01*
X0108680Y0179235D02*
X0028320Y0179235D01*
X0028734Y0178237D02*
X0108266Y0178237D01*
X0108000Y0177238D02*
X0029000Y0177238D01*
X0029000Y0176239D02*
X0108000Y0176239D01*
X0108068Y0175241D02*
X0028932Y0175241D01*
X0028518Y0174242D02*
X0108482Y0174242D01*
X0108978Y0173244D02*
X0028022Y0173244D01*
X0027024Y0172245D02*
X0109976Y0172245D01*
X0110588Y0171247D02*
X0026412Y0171247D01*
X0027530Y0170248D02*
X0109470Y0170248D01*
X0108686Y0169250D02*
X0028314Y0169250D01*
X0028728Y0168251D02*
X0108272Y0168251D01*
X0108000Y0167253D02*
X0029000Y0167253D01*
X0029000Y0166254D02*
X0108000Y0166254D01*
X0108062Y0165256D02*
X0028938Y0165256D01*
X0028524Y0164257D02*
X0108476Y0164257D01*
X0108963Y0163259D02*
X0028037Y0163259D01*
X0027038Y0162260D02*
X0109962Y0162260D01*
X0110624Y0161262D02*
X0026376Y0161262D01*
X0027515Y0160263D02*
X0109485Y0160263D01*
X0108692Y0159265D02*
X0028308Y0159265D01*
X0028722Y0158266D02*
X0108278Y0158266D01*
X0108000Y0157268D02*
X0029000Y0157268D01*
X0029000Y0156269D02*
X0108000Y0156269D01*
X0108056Y0155271D02*
X0028944Y0155271D01*
X0028530Y0154272D02*
X0108470Y0154272D01*
X0108948Y0153274D02*
X0028052Y0153274D01*
X0027053Y0152275D02*
X0109947Y0152275D01*
X0110660Y0151277D02*
X0026340Y0151277D01*
X0027500Y0150278D02*
X0109500Y0150278D01*
X0108698Y0149280D02*
X0028302Y0149280D01*
X0028715Y0148281D02*
X0108285Y0148281D01*
X0108000Y0147283D02*
X0029000Y0147283D01*
X0029000Y0146284D02*
X0108000Y0146284D01*
X0108050Y0145286D02*
X0028950Y0145286D01*
X0028537Y0144287D02*
X0056896Y0144287D01*
X0055789Y0143289D02*
X0028067Y0143289D01*
X0027068Y0142290D02*
X0055376Y0142290D01*
X0055311Y0141292D02*
X0026304Y0141292D01*
X0027485Y0140293D02*
X0055548Y0140293D01*
X0056196Y0139295D02*
X0028296Y0139295D01*
X0028709Y0138296D02*
X0058451Y0138296D01*
X0059450Y0137298D02*
X0029000Y0137298D01*
X0029000Y0136299D02*
X0060448Y0136299D01*
X0061447Y0135301D02*
X0028956Y0135301D01*
X0028543Y0134302D02*
X0062445Y0134302D01*
X0063444Y0133303D02*
X0028082Y0133303D01*
X0027083Y0132305D02*
X0064442Y0132305D01*
X0065441Y0131306D02*
X0026268Y0131306D01*
X0027470Y0130308D02*
X0066439Y0130308D01*
X0067438Y0129309D02*
X0065051Y0129309D01*
X0066199Y0128311D02*
X0068436Y0128311D01*
X0069435Y0127312D02*
X0066615Y0127312D01*
X0066939Y0126314D02*
X0070433Y0126314D01*
X0071432Y0125315D02*
X0067937Y0125315D01*
X0068936Y0124317D02*
X0072430Y0124317D01*
X0073429Y0123318D02*
X0069934Y0123318D01*
X0070933Y0122320D02*
X0074427Y0122320D01*
X0075426Y0121321D02*
X0071931Y0121321D01*
X0072930Y0120323D02*
X0076424Y0120323D01*
X0077423Y0119324D02*
X0073928Y0119324D01*
X0074927Y0118326D02*
X0078421Y0118326D01*
X0079420Y0117327D02*
X0075925Y0117327D01*
X0076924Y0116329D02*
X0080419Y0116329D01*
X0081417Y0115330D02*
X0077922Y0115330D01*
X0078921Y0114332D02*
X0082416Y0114332D01*
X0083414Y0113333D02*
X0079919Y0113333D01*
X0080918Y0112335D02*
X0084413Y0112335D01*
X0085411Y0111336D02*
X0081916Y0111336D01*
X0082915Y0110338D02*
X0086410Y0110338D01*
X0087408Y0109339D02*
X0083913Y0109339D01*
X0084912Y0108341D02*
X0088407Y0108341D01*
X0089405Y0107342D02*
X0085910Y0107342D01*
X0086909Y0106344D02*
X0090404Y0106344D01*
X0091402Y0105345D02*
X0087907Y0105345D01*
X0088906Y0104347D02*
X0092401Y0104347D01*
X0093399Y0103348D02*
X0089905Y0103348D01*
X0090903Y0102350D02*
X0094398Y0102350D01*
X0095396Y0101351D02*
X0091902Y0101351D01*
X0092900Y0100353D02*
X0096395Y0100353D01*
X0097393Y0099354D02*
X0093899Y0099354D01*
X0094897Y0098356D02*
X0098392Y0098356D01*
X0099390Y0097357D02*
X0095896Y0097357D01*
X0096894Y0096359D02*
X0100389Y0096359D01*
X0101387Y0095360D02*
X0097893Y0095360D01*
X0098891Y0094362D02*
X0102386Y0094362D01*
X0103384Y0093363D02*
X0099890Y0093363D01*
X0100888Y0092365D02*
X0104383Y0092365D01*
X0105381Y0091366D02*
X0101887Y0091366D01*
X0102885Y0090368D02*
X0106380Y0090368D01*
X0107378Y0089369D02*
X0103884Y0089369D01*
X0104882Y0088370D02*
X0108322Y0088370D01*
X0108000Y0087372D02*
X0105881Y0087372D01*
X0106879Y0086373D02*
X0108000Y0086373D01*
X0108013Y0085375D02*
X0107878Y0085375D01*
X0105366Y0081381D02*
X0026089Y0081381D01*
X0027158Y0082379D02*
X0104368Y0082379D01*
X0103369Y0083378D02*
X0028156Y0083378D01*
X0028574Y0084376D02*
X0102371Y0084376D01*
X0101372Y0085375D02*
X0028987Y0085375D01*
X0029000Y0086373D02*
X0100374Y0086373D01*
X0099375Y0087372D02*
X0029000Y0087372D01*
X0028678Y0088370D02*
X0098377Y0088370D01*
X0097378Y0089369D02*
X0028265Y0089369D01*
X0027411Y0090368D02*
X0096380Y0090368D01*
X0095381Y0091366D02*
X0026125Y0091366D01*
X0027143Y0092365D02*
X0094383Y0092365D01*
X0093384Y0093363D02*
X0028141Y0093363D01*
X0028567Y0094362D02*
X0092386Y0094362D01*
X0091387Y0095360D02*
X0028981Y0095360D01*
X0029000Y0096359D02*
X0090389Y0096359D01*
X0089390Y0097357D02*
X0029000Y0097357D01*
X0028685Y0098356D02*
X0088392Y0098356D01*
X0087393Y0099354D02*
X0028271Y0099354D01*
X0027426Y0100353D02*
X0086395Y0100353D01*
X0085396Y0101351D02*
X0026160Y0101351D01*
X0026804Y0102350D02*
X0084398Y0102350D01*
X0083399Y0103348D02*
X0027761Y0103348D01*
X0028351Y0104347D02*
X0082401Y0104347D01*
X0081402Y0105345D02*
X0028683Y0105345D01*
X0028733Y0107342D02*
X0079405Y0107342D01*
X0080404Y0106344D02*
X0023787Y0106344D01*
X0025683Y0111336D02*
X0075411Y0111336D01*
X0076410Y0110338D02*
X0027158Y0110338D01*
X0027988Y0109339D02*
X0077408Y0109339D01*
X0078407Y0108341D02*
X0028475Y0108341D01*
X0027113Y0112335D02*
X0074413Y0112335D01*
X0073414Y0113333D02*
X0028111Y0113333D01*
X0028555Y0114332D02*
X0072416Y0114332D01*
X0071417Y0115330D02*
X0028969Y0115330D01*
X0029000Y0116329D02*
X0070419Y0116329D01*
X0069420Y0117327D02*
X0029000Y0117327D01*
X0028697Y0118326D02*
X0068421Y0118326D01*
X0067423Y0119324D02*
X0028283Y0119324D01*
X0027455Y0120323D02*
X0066424Y0120323D01*
X0065426Y0121321D02*
X0026232Y0121321D01*
X0027098Y0122320D02*
X0064427Y0122320D01*
X0062848Y0123318D02*
X0028097Y0123318D01*
X0028549Y0124317D02*
X0061173Y0124317D01*
X0060539Y0125315D02*
X0028962Y0125315D01*
X0029000Y0126314D02*
X0060311Y0126314D01*
X0060385Y0127312D02*
X0029000Y0127312D01*
X0028703Y0128311D02*
X0060801Y0128311D01*
X0061949Y0129309D02*
X0028289Y0129309D01*
X0027396Y0080382D02*
X0106365Y0080382D01*
X0107363Y0079384D02*
X0028259Y0079384D01*
X0028672Y0078385D02*
X0108328Y0078385D01*
X0108000Y0077387D02*
X0029000Y0077387D01*
X0029000Y0076388D02*
X0108000Y0076388D01*
X0108007Y0075390D02*
X0028993Y0075390D01*
X0028580Y0074391D02*
X0108420Y0074391D01*
X0108834Y0073393D02*
X0028166Y0073393D01*
X0027172Y0072394D02*
X0109828Y0072394D01*
X0111434Y0071396D02*
X0025566Y0071396D01*
X0023787Y0066403D02*
X0113213Y0066403D01*
X0110114Y0062409D02*
X0026886Y0062409D01*
X0026017Y0061411D02*
X0110983Y0061411D01*
X0109634Y0060412D02*
X0027366Y0060412D01*
X0028246Y0059414D02*
X0108754Y0059414D01*
X0108340Y0058415D02*
X0028660Y0058415D01*
X0029000Y0057417D02*
X0108000Y0057417D01*
X0108000Y0056418D02*
X0029000Y0056418D01*
X0029000Y0055420D02*
X0108000Y0055420D01*
X0108408Y0054421D02*
X0028592Y0054421D01*
X0028178Y0053423D02*
X0108822Y0053423D01*
X0109798Y0052424D02*
X0027202Y0052424D01*
X0027804Y0063408D02*
X0109196Y0063408D01*
X0108619Y0064406D02*
X0028381Y0064406D01*
X0028693Y0065405D02*
X0108307Y0065405D01*
X0108277Y0067402D02*
X0028723Y0067402D01*
X0028455Y0068400D02*
X0108545Y0068400D01*
X0109055Y0069399D02*
X0027945Y0069399D01*
X0027098Y0070397D02*
X0109902Y0070397D01*
X0104093Y0051426D02*
X0032907Y0051426D01*
X0034636Y0050427D02*
X0102364Y0050427D01*
X0101156Y0049429D02*
X0035844Y0049429D01*
X0036842Y0048430D02*
X0100158Y0048430D01*
X0099455Y0047432D02*
X0037545Y0047432D01*
X0038122Y0046433D02*
X0098878Y0046433D01*
X0098374Y0045434D02*
X0038626Y0045434D01*
X0038893Y0044436D02*
X0098107Y0044436D01*
X0097839Y0043437D02*
X0039161Y0043437D01*
X0039299Y0042439D02*
X0097701Y0042439D01*
X0097701Y0041440D02*
X0039299Y0041440D01*
X0039299Y0040442D02*
X0097701Y0040442D01*
X0097871Y0039443D02*
X0039129Y0039443D01*
X0038862Y0038445D02*
X0098138Y0038445D01*
X0098406Y0037446D02*
X0038594Y0037446D01*
X0038053Y0036448D02*
X0098947Y0036448D01*
X0099523Y0035449D02*
X0037477Y0035449D01*
X0036723Y0034451D02*
X0100277Y0034451D01*
X0101275Y0033452D02*
X0035725Y0033452D01*
X0034430Y0032454D02*
X0102570Y0032454D01*
X0107893Y0095360D02*
X0108019Y0095360D01*
X0108000Y0096359D02*
X0106894Y0096359D01*
X0105896Y0097357D02*
X0108000Y0097357D01*
X0108315Y0098356D02*
X0104897Y0098356D01*
X0103899Y0099354D02*
X0108729Y0099354D01*
X0109574Y0100353D02*
X0102900Y0100353D01*
X0101902Y0101351D02*
X0110840Y0101351D01*
X0109872Y0102350D02*
X0100903Y0102350D01*
X0099905Y0103348D02*
X0108874Y0103348D01*
X0108439Y0104347D02*
X0098906Y0104347D01*
X0097907Y0105345D02*
X0108025Y0105345D01*
X0108000Y0106344D02*
X0096909Y0106344D01*
X0095910Y0107342D02*
X0108000Y0107342D01*
X0108309Y0108341D02*
X0094912Y0108341D01*
X0093913Y0109339D02*
X0108723Y0109339D01*
X0109560Y0110338D02*
X0092915Y0110338D01*
X0091916Y0111336D02*
X0110804Y0111336D01*
X0109887Y0112335D02*
X0090918Y0112335D01*
X0089919Y0113333D02*
X0108889Y0113333D01*
X0108445Y0114332D02*
X0088921Y0114332D01*
X0087922Y0115330D02*
X0108031Y0115330D01*
X0108000Y0116329D02*
X0086924Y0116329D01*
X0085925Y0117327D02*
X0108000Y0117327D01*
X0108303Y0118326D02*
X0084927Y0118326D01*
X0083928Y0119324D02*
X0108717Y0119324D01*
X0109545Y0120323D02*
X0082930Y0120323D01*
X0081931Y0121321D02*
X0110768Y0121321D01*
X0109902Y0122320D02*
X0080933Y0122320D01*
X0079934Y0123318D02*
X0108903Y0123318D01*
X0108451Y0124317D02*
X0078936Y0124317D01*
X0077937Y0125315D02*
X0108038Y0125315D01*
X0108000Y0126314D02*
X0076939Y0126314D01*
X0075940Y0127312D02*
X0108000Y0127312D01*
X0108297Y0128311D02*
X0074942Y0128311D01*
X0073943Y0129309D02*
X0108711Y0129309D01*
X0109530Y0130308D02*
X0072945Y0130308D01*
X0071946Y0131306D02*
X0110732Y0131306D01*
X0110257Y0132305D02*
X0070948Y0132305D01*
X0069949Y0133303D02*
X0109271Y0133303D01*
X0108672Y0134302D02*
X0068951Y0134302D01*
X0067952Y0135301D02*
X0108324Y0135301D01*
X0108260Y0137298D02*
X0065955Y0137298D01*
X0064957Y0138296D02*
X0108511Y0138296D01*
X0108979Y0139295D02*
X0063958Y0139295D01*
X0062960Y0140293D02*
X0109798Y0140293D01*
X0111230Y0141292D02*
X0061961Y0141292D01*
X0061624Y0142290D02*
X0109932Y0142290D01*
X0108933Y0143289D02*
X0061211Y0143289D01*
X0060104Y0144287D02*
X0108463Y0144287D01*
X0113213Y0136299D02*
X0066954Y0136299D01*
X0067524Y0229161D02*
X0064555Y0229161D01*
X0062603Y0229161D02*
X0059634Y0229161D01*
X0057681Y0229161D02*
X0054712Y0229161D01*
X0052760Y0229161D02*
X0018500Y0229161D01*
X0018500Y0230159D02*
X0051111Y0230159D01*
X0050406Y0231158D02*
X0018500Y0231158D01*
X0018500Y0232156D02*
X0050052Y0232156D01*
X0050052Y0233155D02*
X0018500Y0233155D01*
X0018500Y0234153D02*
X0050052Y0234153D01*
X0050052Y0235152D02*
X0018500Y0235152D01*
X0018500Y0236150D02*
X0050052Y0236150D01*
X0050052Y0237149D02*
X0018500Y0237149D01*
X0018500Y0238147D02*
X0050343Y0238147D01*
X0050959Y0239146D02*
X0018500Y0239146D01*
X0018500Y0240144D02*
X0052393Y0240144D01*
X0055079Y0240144D02*
X0056357Y0240144D01*
X0056357Y0241143D02*
X0018500Y0241143D01*
X0018500Y0242141D02*
X0056357Y0242141D01*
X0056357Y0243140D02*
X0018500Y0243140D01*
X0018500Y0244138D02*
X0056357Y0244138D01*
X0056357Y0245137D02*
X0018500Y0245137D01*
X0018500Y0246135D02*
X0056357Y0246135D01*
X0056357Y0247134D02*
X0018500Y0247134D01*
X0018500Y0248132D02*
X0056357Y0248132D01*
X0056357Y0249131D02*
X0018500Y0249131D01*
X0018500Y0250129D02*
X0056357Y0250129D01*
X0056357Y0251128D02*
X0018500Y0251128D01*
X0018500Y0252126D02*
X0056357Y0252126D01*
X0056357Y0253125D02*
X0018500Y0253125D01*
X0018500Y0254123D02*
X0056357Y0254123D01*
X0056357Y0255122D02*
X0018500Y0255122D01*
X0018500Y0256120D02*
X0056357Y0256120D01*
X0056357Y0257119D02*
X0018500Y0257119D01*
X0018500Y0258117D02*
X0056357Y0258117D01*
X0056357Y0259116D02*
X0018500Y0259116D01*
X0018500Y0260114D02*
X0056357Y0260114D01*
X0056357Y0261113D02*
X0018500Y0261113D01*
X0018500Y0262111D02*
X0056357Y0262111D01*
X0056357Y0263110D02*
X0018500Y0263110D01*
X0018500Y0264108D02*
X0056357Y0264108D01*
X0056357Y0265107D02*
X0018500Y0265107D01*
X0018500Y0266105D02*
X0056357Y0266105D01*
X0056357Y0267104D02*
X0018500Y0267104D01*
X0018500Y0268103D02*
X0056357Y0268103D01*
X0056357Y0269101D02*
X0018500Y0269101D01*
X0018500Y0270100D02*
X0055628Y0270100D01*
X0055311Y0271098D02*
X0018500Y0271098D01*
X0018448Y0272097D02*
X0055311Y0272097D01*
X0055709Y0273095D02*
X0018229Y0273095D01*
X0017765Y0274094D02*
X0056584Y0274094D01*
X0060416Y0274094D02*
X0061200Y0274094D01*
X0061200Y0275092D02*
X0016952Y0275092D01*
X0015441Y0276091D02*
X0061200Y0276091D01*
X0061200Y0277089D02*
X0010536Y0277089D01*
X0008464Y0277089D02*
X0008173Y0277089D01*
X0006753Y0285077D02*
X0006500Y0285077D01*
X0006500Y0286076D02*
X0061200Y0286076D01*
X0061200Y0287074D02*
X0010500Y0287074D01*
X0008500Y0287074D02*
X0006500Y0287074D01*
X0006500Y0288073D02*
X0006603Y0288073D01*
X0006500Y0295062D02*
X0006738Y0295062D01*
X0006500Y0296061D02*
X0060311Y0296061D01*
X0060311Y0297059D02*
X0006500Y0297059D01*
X0006500Y0298058D02*
X0006970Y0298058D01*
X0012262Y0295062D02*
X0060644Y0295062D01*
X0061200Y0294064D02*
X0013260Y0294064D01*
X0013692Y0293065D02*
X0061200Y0293065D01*
X0061200Y0292067D02*
X0013972Y0292067D01*
X0013972Y0291068D02*
X0061200Y0291068D01*
X0061200Y0290070D02*
X0013748Y0290070D01*
X0013334Y0289071D02*
X0061200Y0289071D01*
X0061200Y0288073D02*
X0012397Y0288073D01*
X0012247Y0285077D02*
X0061200Y0285077D01*
X0061200Y0284079D02*
X0013245Y0284079D01*
X0013686Y0283080D02*
X0061200Y0283080D01*
X0061200Y0282082D02*
X0013972Y0282082D01*
X0013972Y0281083D02*
X0061200Y0281083D01*
X0061200Y0280085D02*
X0013754Y0280085D01*
X0013340Y0279086D02*
X0061200Y0279086D01*
X0061200Y0278088D02*
X0012412Y0278088D01*
X0018500Y0222171D02*
X0026600Y0222171D01*
X0023655Y0221172D02*
X0018500Y0221172D01*
X0018500Y0220174D02*
X0021925Y0220174D01*
X0020903Y0219175D02*
X0018500Y0219175D01*
X0018500Y0218177D02*
X0019905Y0218177D01*
X0019309Y0217178D02*
X0018500Y0217178D01*
X0018500Y0216180D02*
X0018732Y0216180D01*
X0027574Y0200204D02*
X0109426Y0200204D01*
X0077366Y0229161D02*
X0069476Y0229161D01*
X0073421Y0230159D02*
X0073421Y0230159D01*
X0073421Y0231158D02*
X0073421Y0231158D01*
X0073421Y0232156D02*
X0073421Y0232156D01*
X0073421Y0233155D02*
X0073421Y0233155D01*
X0073421Y0234153D02*
X0073421Y0234153D01*
X0073421Y0235152D02*
X0073421Y0235152D01*
X0073421Y0236150D02*
X0073421Y0236150D01*
X0073421Y0237149D02*
X0073421Y0237149D01*
X0073421Y0238147D02*
X0073421Y0238147D01*
X0073421Y0239146D02*
X0073421Y0239146D01*
D15*
X0063579Y0234728D02*
X0063500Y0234807D01*
X0063500Y0296500D01*
X0058500Y0271500D02*
X0058657Y0271343D01*
X0058657Y0234728D01*
X0058500Y0141500D02*
X0113500Y0086500D01*
X0113500Y0076500D02*
X0063500Y0126500D01*
D16*
X0063500Y0126500D03*
X0058500Y0141500D03*
X0058500Y0271500D03*
X0063500Y0296500D03*
M02*
